<?xml version="1.0" encoding="utf-8"?>
<!-- Generator: Adobe Illustrator 21.0.0, SVG Export Plug-In . SVG Version: 6.00 Build 0)  -->
<svg version="1.1" id="Layer_1" xmlns="http://www.w3.org/2000/svg" xmlns:xlink="http://www.w3.org/1999/xlink" x="0px" y="0px"
	 viewBox="0 0 476.4 348.4" style="enable-background:new 0 0 476.4 348.4;" xml:space="preserve">
<style type="text/css">
	.st0{fill:#FFFFFF;}
</style>
<g>
	<g>
		<path class="st0" d="M59.4,93c-0.6,0-1-0.4-1-1V8c0-0.6,0.4-1,1-1h367c0.6,0,1,0.4,1,1v56c0,0.6-0.4,1-1,1s-1-0.4-1-1V9h-365v83
			C60.4,92.6,60,93,59.4,93z"/>
		<path class="st0" d="M103.4,321h-44c-0.6,0-1-0.4-1-1v-52c0-0.6,0.4-1,1-1s1,0.4,1,1v51h43c0.6,0,1,0.4,1,1S104,321,103.4,321z"/>
		<path class="st0" d="M426.4,321h-128c-0.6,0-1-0.4-1-1s0.4-1,1-1h127V133c0-0.6,0.4-1,1-1s1,0.4,1,1v187
			C427.4,320.6,427,321,426.4,321z"/>
		<path class="st0" d="M110.4,328h-58c-0.6,0-1-0.4-1-1v-59c0-0.6,0.4-1,1-1s1,0.4,1,1v58h57c0.6,0,1,0.4,1,1S111,328,110.4,328z"/>
		<path class="st0" d="M434.4,328h-114c-0.6,0-1-0.4-1-1s0.4-1,1-1h113V133c0-0.6,0.4-1,1-1s1,0.4,1,1v194
			C435.4,327.6,435,328,434.4,328z"/>
		<path class="st0" d="M52.4,103c-0.6,0-1-0.4-1-1V1c0-0.6,0.4-1,1-1h382c0.6,0,1,0.4,1,1v76c0,0.6-0.4,1-1,1s-1-0.4-1-1V2h-380v100
			C53.4,102.6,53,103,52.4,103z"/>
	</g>
	<g>
		<g>
			<g>
				<path class="st0" d="M79.8,203.2c-0.6,0-1-0.4-1-1V156c0-0.6,0.4-1,1-1s1,0.4,1,1v46.2C80.8,202.8,80.4,203.2,79.8,203.2z"/>
				<path class="st0" d="M72.2,163c-0.4,0-0.8-0.3-1-0.7c-0.2-0.5,0.1-1.1,0.6-1.3c3-1,5.5-3.2,7-6.1c0.2-0.5,0.8-0.7,1.3-0.5
					c0.5,0.2,0.7,0.8,0.5,1.3c-1.7,3.4-4.7,6-8.2,7.2C72.4,163,72.3,163,72.2,163z"/>
				<path class="st0" d="M71.4,169.5c-0.4,0-0.8-0.3-1-0.7c-0.2-0.5,0.1-1.1,0.6-1.3c3.3-1.1,6.2-3.6,7.8-6.8
					c0.2-0.5,0.8-0.7,1.3-0.5c0.5,0.2,0.7,0.8,0.5,1.3c-1.9,3.8-5.1,6.6-9,7.9C71.6,169.5,71.5,169.5,71.4,169.5z"/>
				<path class="st0" d="M68.9,176.7c-0.5,0-0.9-0.3-1-0.8c-0.1-0.5,0.2-1.1,0.7-1.2c5.3-1.3,8.8-5,10.2-7.9
					c0.2-0.5,0.8-0.7,1.3-0.5c0.5,0.2,0.7,0.8,0.5,1.3c-1.6,3.2-5.6,7.5-11.6,9C69.1,176.7,69,176.7,68.9,176.7z"/>
				<path class="st0" d="M71.4,187.9c-0.4,0-0.8-0.3-1-0.7c-0.2-0.5,0.1-1.1,0.6-1.3c3.3-1.1,6.2-3.6,7.8-6.8
					c0.2-0.5,0.8-0.7,1.3-0.5c0.5,0.2,0.7,0.8,0.5,1.3c-1.9,3.8-5.1,6.6-9,7.9C71.6,187.8,71.5,187.9,71.4,187.9z"/>
				<path class="st0" d="M71.4,194c-0.4,0-0.8-0.3-1-0.7c-0.2-0.5,0.1-1.1,0.6-1.3c3.3-1.1,6.2-3.6,7.8-6.8c0.2-0.5,0.8-0.7,1.3-0.5
					c0.5,0.2,0.7,0.8,0.5,1.3c-1.9,3.8-5.1,6.6-9,7.9C71.6,194,71.5,194,71.4,194z"/>
				<path class="st0" d="M87.1,163c-0.1,0-0.2,0-0.3,0c-3.5-1.1-6.5-3.7-8.2-7.2c-0.2-0.5,0-1.1,0.5-1.3c0.5-0.2,1.1,0,1.3,0.5
					c1.5,2.9,4,5.2,7,6.1c0.5,0.2,0.8,0.7,0.6,1.3C88,162.7,87.6,163,87.1,163z"/>
				<path class="st0" d="M88,169.5c-0.1,0-0.2,0-0.3,0c-3.8-1.2-7.1-4.1-9-7.9c-0.2-0.5,0-1.1,0.5-1.3c0.5-0.2,1.1,0,1.3,0.5
					c1.6,3.3,4.5,5.8,7.8,6.8c0.5,0.2,0.8,0.7,0.6,1.3C88.8,169.2,88.4,169.5,88,169.5z"/>
				<path class="st0" d="M90.5,176.7c-0.1,0-0.2,0-0.2,0c-6-1.4-10-5.7-11.6-9c-0.2-0.5,0-1.1,0.5-1.3c0.5-0.2,1.1,0,1.3,0.5
					c1.4,2.9,4.9,6.6,10.2,7.9c0.5,0.1,0.9,0.7,0.7,1.2C91.3,176.4,90.9,176.7,90.5,176.7z"/>
				<path class="st0" d="M88,187.9c-0.1,0-0.2,0-0.3,0c-3.8-1.2-7.1-4.1-9-7.9c-0.2-0.5,0-1.1,0.5-1.3c0.5-0.2,1.1,0,1.3,0.5
					c1.6,3.3,4.5,5.8,7.8,6.8c0.5,0.2,0.8,0.7,0.6,1.3C88.8,187.6,88.4,187.9,88,187.9z"/>
				<path class="st0" d="M88,194c-0.1,0-0.2,0-0.3,0c-3.8-1.2-7.1-4.1-9-7.9c-0.2-0.5,0-1.1,0.5-1.3c0.5-0.2,1.1,0,1.3,0.5
					c1.6,3.3,4.5,5.8,7.8,6.8c0.5,0.2,0.8,0.7,0.6,1.3C88.8,193.7,88.4,194,88,194z"/>
			</g>
			<g>
				<path class="st0" d="M105.5,241.6c-0.6,0-1-0.4-1-1v-52.5c0-0.6,0.4-1,1-1s1,0.4,1,1v52.5C106.5,241.1,106.1,241.6,105.5,241.6z
					"/>
				<path class="st0" d="M97.9,195.1c-0.4,0-0.8-0.3-1-0.7c-0.2-0.5,0.1-1.1,0.6-1.3c3-1,5.5-3.2,7-6.1c0.2-0.5,0.8-0.7,1.3-0.5
					c0.5,0.2,0.7,0.8,0.5,1.3c-1.7,3.4-4.7,6-8.2,7.2C98.2,195,98,195.1,97.9,195.1z"/>
				<path class="st0" d="M97.1,201.5c-0.4,0-0.8-0.3-1-0.7c-0.2-0.5,0.1-1.1,0.6-1.3c3.3-1.1,6.2-3.6,7.8-6.8
					c0.2-0.5,0.8-0.7,1.3-0.5c0.5,0.2,0.7,0.8,0.5,1.3c-1.9,3.8-5.1,6.6-9,7.9C97.3,201.5,97.2,201.5,97.1,201.5z"/>
				<path class="st0" d="M94.8,220.9c-0.5,0-0.9-0.3-1-0.8c-0.1-0.5,0.2-1.1,0.7-1.2c5.3-1.3,8.8-5,10.2-7.9
					c0.2-0.5,0.8-0.7,1.3-0.5c0.5,0.2,0.7,0.8,0.5,1.3c-1.6,3.2-5.6,7.5-11.6,9C94.9,220.9,94.8,220.9,94.8,220.9z"/>
				<path class="st0" d="M97.1,213.9c-0.4,0-0.8-0.3-1-0.7c-0.2-0.5,0.1-1.1,0.6-1.3c3.3-1.1,6.2-3.6,7.8-6.8
					c0.2-0.5,0.8-0.7,1.3-0.5c0.5,0.2,0.7,0.8,0.5,1.3c-1.9,3.8-5.1,6.6-9,7.9C97.3,213.9,97.2,213.9,97.1,213.9z"/>
				<path class="st0" d="M112.9,195.1c-0.1,0-0.2,0-0.3,0c-3.5-1.1-6.5-3.7-8.2-7.2c-0.2-0.5,0-1.1,0.5-1.3s1.1,0,1.3,0.5
					c1.5,2.9,4,5.2,7,6.1c0.5,0.2,0.8,0.7,0.6,1.3C113.7,194.8,113.3,195.1,112.9,195.1z"/>
				<path class="st0" d="M113.7,201.5c-0.1,0-0.2,0-0.3,0c-3.8-1.2-7.1-4.1-9-7.9c-0.2-0.5,0-1.1,0.5-1.3c0.5-0.2,1.1,0,1.3,0.5
					c1.6,3.3,4.5,5.8,7.8,6.8c0.5,0.2,0.8,0.7,0.6,1.3C114.5,201.3,114.1,201.5,113.7,201.5z"/>
				<path class="st0" d="M116.3,220.9c-0.1,0-0.2,0-0.2,0c-6-1.4-10-5.7-11.6-9c-0.2-0.5,0-1.1,0.5-1.3c0.5-0.2,1.1,0,1.3,0.5
					c1.4,2.9,4.9,6.6,10.2,7.9c0.5,0.1,0.9,0.7,0.7,1.2C117.2,220.6,116.8,220.9,116.3,220.9z"/>
				<path class="st0" d="M113.7,213.9c-0.1,0-0.2,0-0.3,0c-3.8-1.2-7.1-4.1-9-7.9c-0.2-0.5,0-1.1,0.5-1.3c0.5-0.2,1.1,0,1.3,0.5
					c1.6,3.3,4.5,5.8,7.8,6.8c0.5,0.2,0.8,0.7,0.6,1.3C114.5,213.7,114.1,213.9,113.7,213.9z"/>
				<path class="st0" d="M97.3,226.1c-0.4,0-0.8-0.3-1-0.7c-0.2-0.5,0.1-1.1,0.6-1.3c3.3-1.1,6.2-3.6,7.8-6.8
					c0.2-0.5,0.8-0.7,1.3-0.5c0.5,0.2,0.7,0.8,0.5,1.3c-1.9,3.8-5.1,6.6-9,7.9C97.5,226.1,97.4,226.1,97.3,226.1z"/>
				<path class="st0" d="M97.3,232.3c-0.4,0-0.8-0.3-1-0.7c-0.2-0.5,0.1-1.1,0.6-1.3c3.3-1.1,6.2-3.6,7.8-6.8
					c0.2-0.5,0.8-0.7,1.3-0.5c0.5,0.2,0.7,0.8,0.5,1.3c-1.9,3.8-5.1,6.6-9,7.9C97.5,232.2,97.4,232.3,97.3,232.3z"/>
				<path class="st0" d="M97.3,238.4c-0.4,0-0.8-0.3-1-0.7c-0.2-0.5,0.1-1.1,0.6-1.3c3.3-1.1,6.2-3.6,7.8-6.8
					c0.2-0.5,0.8-0.7,1.3-0.5c0.5,0.2,0.7,0.8,0.5,1.3c-1.9,3.8-5.1,6.6-9,7.9C97.5,238.4,97.4,238.4,97.3,238.4z"/>
				<path class="st0" d="M113.8,226.1c-0.1,0-0.2,0-0.3,0c-3.8-1.2-7.1-4.1-9-7.9c-0.2-0.5,0-1.1,0.5-1.3c0.5-0.2,1.1,0,1.3,0.5
					c1.6,3.3,4.5,5.8,7.8,6.8c0.5,0.2,0.8,0.7,0.6,1.3C114.6,225.9,114.2,226.1,113.8,226.1z"/>
				<path class="st0" d="M113.8,232.3c-0.1,0-0.2,0-0.3,0c-3.8-1.2-7.1-4.1-9-7.9c-0.2-0.5,0-1.1,0.5-1.3c0.5-0.2,1.1,0,1.3,0.5
					c1.6,3.3,4.5,5.8,7.8,6.8c0.5,0.2,0.8,0.7,0.6,1.3C114.6,232,114.2,232.3,113.8,232.3z"/>
				<path class="st0" d="M113.8,238.4c-0.1,0-0.2,0-0.3,0c-3.8-1.2-7.1-4.1-9-7.9c-0.2-0.5,0-1.1,0.5-1.3c0.5-0.2,1.1,0,1.3,0.5
					c1.6,3.3,4.5,5.8,7.8,6.8c0.5,0.2,0.8,0.7,0.6,1.3C114.6,238.1,114.2,238.4,113.8,238.4z"/>
			</g>
			<g>
				<path class="st0" d="M201.1,281.5c-0.6,0-1-0.4-1-1v-36.9c0-0.6,0.4-1,1-1s1,0.4,1,1v36.9C202.1,281.1,201.6,281.5,201.1,281.5z
					"/>
				<path class="st0" d="M194,250.6c-0.4,0-0.8-0.3-0.9-0.7c-0.2-0.5,0.1-1.1,0.6-1.3c2.9-1,5.4-3.2,6.8-6.1
					c0.2-0.5,0.8-0.7,1.3-0.5c0.5,0.2,0.7,0.8,0.5,1.3c-1.6,3.4-4.5,6-7.9,7.2C194.2,250.5,194.1,250.6,194,250.6z"/>
				<path class="st0" d="M193.2,257c-0.4,0-0.8-0.3-0.9-0.7c-0.2-0.5,0.1-1.1,0.6-1.3c3.2-1.1,6-3.6,7.6-6.8
					c0.2-0.5,0.8-0.7,1.3-0.5c0.5,0.2,0.7,0.8,0.5,1.3c-1.8,3.8-5,6.6-8.7,7.9C193.4,257,193.3,257,193.2,257z"/>
				<path class="st0" d="M193.2,275.4c-0.4,0-0.8-0.3-0.9-0.7c-0.2-0.5,0.1-1.1,0.6-1.3c3.2-1.1,6-3.6,7.6-6.8
					c0.2-0.5,0.8-0.7,1.3-0.5c0.5,0.2,0.7,0.8,0.5,1.3c-1.8,3.8-5,6.6-8.7,7.9C193.4,275.4,193.3,275.4,193.2,275.4z"/>
				<path class="st0" d="M208.4,250.6c-0.1,0-0.2,0-0.3-0.1c-3.4-1.1-6.3-3.7-7.9-7.2c-0.2-0.5,0-1.1,0.5-1.3c0.5-0.2,1.1,0,1.3,0.5
					c1.4,2.9,3.9,5.2,6.8,6.1c0.5,0.2,0.8,0.7,0.6,1.3C209.3,250.3,208.9,250.6,208.4,250.6z"/>
				<path class="st0" d="M209.2,257c-0.1,0-0.2,0-0.3-0.1c-3.7-1.2-6.9-4.1-8.7-7.9c-0.2-0.5,0-1.1,0.5-1.3c0.5-0.2,1.1,0,1.3,0.5
					c1.6,3.3,4.3,5.8,7.6,6.8c0.5,0.2,0.8,0.7,0.6,1.3C210,256.8,209.7,257,209.2,257z"/>
				<path class="st0" d="M193.1,263.2c-0.4,0-0.8-0.3-0.9-0.7c-0.2-0.5,0.1-1.1,0.6-1.3c3.2-1.1,6-3.6,7.6-6.8
					c0.2-0.5,0.8-0.7,1.3-0.5c0.5,0.2,0.7,0.8,0.5,1.3c-1.8,3.8-5,6.6-8.7,7.9C193.3,263.2,193.2,263.2,193.1,263.2z"/>
				<path class="st0" d="M209.1,263.2c-0.1,0-0.2,0-0.3-0.1c-3.7-1.2-6.9-4.1-8.7-7.9c-0.2-0.5,0-1.1,0.5-1.3s1.1,0,1.3,0.5
					c1.6,3.3,4.3,5.8,7.6,6.8c0.5,0.2,0.8,0.7,0.6,1.3C209.9,262.9,209.5,263.2,209.1,263.2z"/>
				<path class="st0" d="M209.2,275.4c-0.1,0-0.2,0-0.3-0.1c-3.7-1.2-6.9-4.1-8.7-7.9c-0.2-0.5,0-1.1,0.5-1.3c0.5-0.2,1.1,0,1.3,0.5
					c1.6,3.3,4.3,5.8,7.6,6.8c0.5,0.2,0.8,0.7,0.6,1.3C210,275.2,209.7,275.4,209.2,275.4z"/>
			</g>
			<g>
				<path class="st0" d="M157.6,222.5c-0.6,0-1-0.4-1-1v-36.9c0-0.6,0.4-1,1-1s1,0.4,1,1v36.9C158.6,222,158.1,222.5,157.6,222.5z"
					/>
				<path class="st0" d="M150.5,191.5c-0.4,0-0.8-0.3-0.9-0.7c-0.2-0.5,0.1-1.1,0.6-1.3c2.9-1,5.4-3.2,6.8-6.1
					c0.2-0.5,0.8-0.7,1.3-0.5c0.5,0.2,0.7,0.8,0.5,1.3c-1.6,3.4-4.5,6-7.9,7.2C150.7,191.5,150.6,191.5,150.5,191.5z"/>
				<path class="st0" d="M149.7,198c-0.4,0-0.8-0.3-0.9-0.7c-0.2-0.5,0.1-1.1,0.6-1.3c3.2-1.1,6-3.6,7.6-6.8
					c0.2-0.5,0.8-0.7,1.3-0.5c0.5,0.2,0.7,0.8,0.5,1.3c-1.8,3.8-5,6.6-8.7,7.9C149.9,198,149.8,198,149.7,198z"/>
				<path class="st0" d="M149.7,216.4c-0.4,0-0.8-0.3-0.9-0.7c-0.2-0.5,0.1-1.1,0.6-1.3c3.2-1.1,6-3.6,7.6-6.8
					c0.2-0.5,0.8-0.7,1.3-0.5c0.5,0.2,0.7,0.8,0.5,1.3c-1.8,3.8-5,6.6-8.7,7.9C149.9,216.4,149.8,216.4,149.7,216.4z"/>
				<path class="st0" d="M164.9,191.5c-0.1,0-0.2,0-0.3-0.1c-3.4-1.1-6.3-3.7-7.9-7.2c-0.2-0.5,0-1.1,0.5-1.3c0.5-0.2,1.1,0,1.3,0.5
					c1.4,2.9,3.9,5.2,6.8,6.1c0.5,0.2,0.8,0.7,0.6,1.3C165.7,191.3,165.4,191.5,164.9,191.5z"/>
				<path class="st0" d="M165.7,198c-0.1,0-0.2,0-0.3-0.1c-3.7-1.2-6.9-4.1-8.7-7.9c-0.2-0.5,0-1.1,0.5-1.3c0.5-0.2,1.1,0,1.3,0.5
					c1.6,3.3,4.3,5.8,7.6,6.8c0.5,0.2,0.8,0.7,0.6,1.3C166.5,197.7,166.1,198,165.7,198z"/>
				<path class="st0" d="M149.6,204.1c-0.4,0-0.8-0.3-0.9-0.7c-0.2-0.5,0.1-1.1,0.6-1.3c3.2-1.1,6-3.6,7.6-6.8
					c0.2-0.5,0.8-0.7,1.3-0.5c0.5,0.2,0.7,0.8,0.5,1.3c-1.8,3.8-5,6.6-8.7,7.9C149.8,204.1,149.7,204.1,149.6,204.1z"/>
				<path class="st0" d="M165.6,204.1c-0.1,0-0.2,0-0.3-0.1c-3.7-1.2-6.9-4.1-8.7-7.9c-0.2-0.5,0-1.1,0.5-1.3c0.5-0.2,1.1,0,1.3,0.5
					c1.6,3.3,4.3,5.8,7.6,6.8c0.5,0.2,0.8,0.7,0.6,1.3C166.4,203.9,166,204.1,165.6,204.1z"/>
				<path class="st0" d="M165.7,216.4c-0.1,0-0.2,0-0.3-0.1c-3.7-1.2-6.9-4.1-8.7-7.9c-0.2-0.5,0-1.1,0.5-1.3c0.5-0.2,1.1,0,1.3,0.5
					c1.6,3.3,4.3,5.8,7.6,6.8c0.5,0.2,0.8,0.7,0.6,1.3C166.5,216.1,166.1,216.4,165.7,216.4z"/>
				<path class="st0" d="M149.7,210.7c-0.4,0-0.8-0.3-0.9-0.7c-0.2-0.5,0.1-1.1,0.6-1.3c3.2-1.1,6-3.6,7.6-6.8
					c0.2-0.5,0.8-0.7,1.3-0.5c0.5,0.2,0.7,0.8,0.5,1.3c-1.8,3.8-5,6.6-8.7,7.9C149.9,210.7,149.8,210.7,149.7,210.7z"/>
				<path class="st0" d="M165.7,210.7c-0.1,0-0.2,0-0.3-0.1c-3.7-1.2-6.9-4.1-8.7-7.9c-0.2-0.5,0-1.1,0.5-1.3c0.5-0.2,1.1,0,1.3,0.5
					c1.6,3.3,4.3,5.8,7.6,6.8c0.5,0.2,0.8,0.7,0.6,1.3C166.5,210.4,166.1,210.7,165.7,210.7z"/>
			</g>
			<g>
				<path class="st0" d="M396,309.3c-0.6,0-1-0.4-1-1v-41.9c0-0.6,0.4-1,1-1s1,0.4,1,1v41.9C397,308.8,396.6,309.3,396,309.3z"/>
				<path class="st0" d="M388.9,278.3c-0.4,0-0.8-0.3-0.9-0.7c-0.2-0.5,0.1-1.1,0.6-1.3c2.9-1,5.4-3.2,6.8-6.1
					c0.2-0.5,0.8-0.7,1.3-0.5c0.5,0.2,0.7,0.8,0.5,1.3c-1.6,3.4-4.5,6-7.9,7.2C389.2,278.3,389,278.3,388.9,278.3z"/>
				<path class="st0" d="M388.2,284.8c-0.4,0-0.8-0.3-0.9-0.7c-0.2-0.5,0.1-1.1,0.6-1.3c3.2-1.1,6-3.6,7.6-6.8
					c0.2-0.5,0.8-0.7,1.3-0.5c0.5,0.2,0.7,0.8,0.5,1.3c-1.8,3.8-5,6.6-8.7,7.9C388.4,284.8,388.3,284.8,388.2,284.8z"/>
				<path class="st0" d="M388.2,303.2c-0.4,0-0.8-0.3-0.9-0.7c-0.2-0.5,0.1-1.1,0.6-1.3c3.2-1.1,6-3.6,7.6-6.8
					c0.2-0.5,0.8-0.7,1.3-0.5c0.5,0.2,0.7,0.8,0.5,1.3c-1.8,3.8-5,6.6-8.7,7.9C388.4,303.1,388.3,303.2,388.2,303.2z"/>
				<path class="st0" d="M403.4,278.3c-0.1,0-0.2,0-0.3-0.1c-3.4-1.1-6.3-3.7-7.9-7.2c-0.2-0.5,0-1.1,0.5-1.3c0.5-0.2,1.1,0,1.3,0.5
					c1.4,2.9,3.9,5.2,6.8,6.1c0.5,0.2,0.8,0.7,0.6,1.3C404.2,278,403.8,278.3,403.4,278.3z"/>
				<path class="st0" d="M388.9,272.3c-0.4,0-0.8-0.3-0.9-0.7c-0.2-0.5,0.1-1.1,0.6-1.3c2.9-1,5.4-3.2,6.8-6.1
					c0.2-0.5,0.8-0.7,1.3-0.5c0.5,0.2,0.7,0.8,0.5,1.3c-1.6,3.4-4.5,6-7.9,7.2C389.2,272.3,389,272.3,388.9,272.3z"/>
				<path class="st0" d="M403.4,272.3c-0.1,0-0.2,0-0.3-0.1c-3.4-1.1-6.3-3.7-7.9-7.2c-0.2-0.5,0-1.1,0.5-1.3c0.5-0.2,1.1,0,1.3,0.5
					c1.4,2.9,3.9,5.2,6.8,6.1c0.5,0.2,0.8,0.7,0.6,1.3C404.2,272,403.8,272.3,403.4,272.3z"/>
				<path class="st0" d="M404.2,284.8c-0.1,0-0.2,0-0.3-0.1c-3.7-1.2-6.9-4.1-8.7-7.9c-0.2-0.5,0-1.1,0.5-1.3c0.5-0.2,1.1,0,1.3,0.5
					c1.6,3.3,4.3,5.8,7.6,6.8c0.5,0.2,0.8,0.7,0.6,1.3C405,284.5,404.6,284.8,404.2,284.8z"/>
				<path class="st0" d="M388,290.9c-0.4,0-0.8-0.3-0.9-0.7c-0.2-0.5,0.1-1.1,0.6-1.3c3.2-1.1,6-3.6,7.6-6.8
					c0.2-0.5,0.8-0.7,1.3-0.5c0.5,0.2,0.7,0.8,0.5,1.3c-1.8,3.8-5,6.6-8.7,7.9C388.2,290.9,388.1,290.9,388,290.9z"/>
				<path class="st0" d="M404.1,290.9c-0.1,0-0.2,0-0.3-0.1c-3.7-1.2-6.9-4.1-8.7-7.9c-0.2-0.5,0-1.1,0.5-1.3c0.5-0.2,1.1,0,1.3,0.5
					c1.6,3.3,4.3,5.8,7.6,6.8c0.5,0.2,0.8,0.7,0.6,1.3C404.9,290.7,404.5,290.9,404.1,290.9z"/>
				<path class="st0" d="M404.2,303.2c-0.1,0-0.2,0-0.3-0.1c-3.7-1.2-6.9-4.1-8.7-7.9c-0.2-0.5,0-1.1,0.5-1.3c0.5-0.2,1.1,0,1.3,0.5
					c1.6,3.3,4.3,5.8,7.6,6.8c0.5,0.2,0.8,0.7,0.6,1.3C405,302.9,404.6,303.2,404.2,303.2z"/>
				<path class="st0" d="M388.2,297.5c-0.4,0-0.8-0.3-0.9-0.7c-0.2-0.5,0.1-1.1,0.6-1.3c3.2-1.1,6-3.6,7.6-6.8
					c0.2-0.5,0.8-0.7,1.3-0.5c0.5,0.2,0.7,0.8,0.5,1.3c-1.8,3.8-5,6.6-8.7,7.9C388.4,297.5,388.3,297.5,388.2,297.5z"/>
				<path class="st0" d="M404.2,297.5c-0.1,0-0.2,0-0.3-0.1c-3.7-1.2-6.9-4.1-8.7-7.9c-0.2-0.5,0-1.1,0.5-1.3c0.5-0.2,1.1,0,1.3,0.5
					c1.6,3.3,4.3,5.8,7.6,6.8c0.5,0.2,0.8,0.7,0.6,1.3C405,297.2,404.6,297.5,404.2,297.5z"/>
			</g>
			<g>
				<path class="st0" d="M373.3,273.7c-0.6,0-1-0.4-1-1v-35.8c0-0.6,0.4-1,1-1s1,0.4,1,1v35.8C374.3,273.3,373.9,273.7,373.3,273.7z
					"/>
				<path class="st0" d="M366.9,243.8c-0.4,0-0.8-0.3-1-0.7c-0.2-0.5,0.1-1.1,0.6-1.3c2.5-0.8,4.6-2.7,5.9-5.1
					c0.2-0.5,0.8-0.7,1.3-0.5c0.5,0.2,0.7,0.8,0.5,1.3c-1.5,2.9-4,5.2-7,6.2C367.1,243.8,367,243.8,366.9,243.8z"/>
				<path class="st0" d="M364.1,255.5c-0.5,0-0.9-0.3-1-0.8c-0.1-0.5,0.2-1.1,0.7-1.2c4.4-1.1,7.4-4.2,8.6-6.6
					c0.2-0.5,0.8-0.7,1.3-0.5c0.5,0.2,0.7,0.8,0.5,1.3c-1.4,2.8-4.8,6.5-9.9,7.7C364.2,255.4,364.1,255.5,364.1,255.5z"/>
				<path class="st0" d="M366.2,259.8c-0.4,0-0.8-0.3-1-0.7c-0.2-0.5,0.1-1.1,0.6-1.3c2.8-0.9,5.2-3,6.6-5.7
					c0.2-0.5,0.8-0.7,1.3-0.5c0.5,0.2,0.7,0.8,0.5,1.3c-1.6,3.2-4.4,5.7-7.7,6.8C366.4,259.7,366.3,259.8,366.2,259.8z"/>
				<path class="st0" d="M366.2,270.2c-0.4,0-0.8-0.3-1-0.7c-0.2-0.5,0.1-1.1,0.6-1.3c2.8-0.9,5.2-3,6.6-5.7
					c0.2-0.5,0.8-0.7,1.3-0.5c0.5,0.2,0.7,0.8,0.5,1.3c-1.6,3.2-4.4,5.7-7.7,6.8C366.4,270.2,366.3,270.2,366.2,270.2z"/>
				<path class="st0" d="M379.6,243.8c-0.1,0-0.2,0-0.3,0c-3-1-5.6-3.2-7-6.2c-0.2-0.5,0-1.1,0.5-1.3s1.1,0,1.3,0.5
					c1.2,2.5,3.4,4.3,5.9,5.1c0.5,0.2,0.8,0.7,0.6,1.3C380.4,243.6,380,243.8,379.6,243.8z"/>
				<path class="st0" d="M382.4,255.5c-0.1,0-0.2,0-0.2,0c-5.1-1.2-8.5-4.9-9.9-7.7c-0.2-0.5,0-1.1,0.5-1.3s1.1,0,1.3,0.5
					c1.2,2.4,4.2,5.6,8.6,6.6c0.5,0.1,0.9,0.7,0.7,1.2C383.2,255.1,382.8,255.5,382.4,255.5z"/>
				<path class="st0" d="M364,265.9c-0.5,0-0.9-0.3-1-0.8c-0.1-0.5,0.2-1.1,0.7-1.2c4.4-1.1,7.4-4.2,8.6-6.6
					c0.2-0.5,0.8-0.7,1.3-0.5c0.5,0.2,0.7,0.8,0.5,1.3c-1.4,2.8-4.8,6.5-9.9,7.7C364.1,265.8,364,265.9,364,265.9z"/>
				<path class="st0" d="M382.3,265.9c-0.1,0-0.2,0-0.2,0c-5.1-1.2-8.5-4.9-9.9-7.7c-0.2-0.5,0-1.1,0.5-1.3c0.5-0.2,1.1,0,1.3,0.5
					c1.2,2.4,4.2,5.6,8.6,6.6c0.5,0.1,0.9,0.7,0.7,1.2C383.1,265.5,382.7,265.9,382.3,265.9z"/>
				<path class="st0" d="M380.3,259.8c-0.1,0-0.2,0-0.3,0c-3.3-1.1-6.1-3.5-7.7-6.8c-0.2-0.5,0-1.1,0.5-1.3c0.5-0.2,1.1,0,1.3,0.5
					c1.4,2.8,3.8,4.8,6.6,5.7c0.5,0.2,0.8,0.7,0.6,1.3C381.1,259.5,380.7,259.8,380.3,259.8z"/>
				<path class="st0" d="M380.3,270.2c-0.1,0-0.2,0-0.3,0c-3.3-1.1-6.1-3.5-7.7-6.8c-0.2-0.5,0-1.1,0.5-1.3c0.5-0.2,1.1,0,1.3,0.5
					c1.4,2.8,3.8,4.8,6.5,5.7c0.5,0.2,0.8,0.7,0.6,1.3C381.1,269.9,380.7,270.2,380.3,270.2z"/>
			</g>
			<g>
				<path class="st0" d="M48.4,265.7c-0.6,0-1-0.4-1-1v-35.8c0-0.6,0.4-1,1-1s1,0.4,1,1v35.8C49.4,265.3,48.9,265.7,48.4,265.7z"/>
				<path class="st0" d="M41.9,235.8c-0.4,0-0.8-0.3-1-0.7c-0.2-0.5,0.1-1.1,0.6-1.3c2.5-0.8,4.6-2.7,5.9-5.1
					c0.2-0.5,0.8-0.7,1.3-0.5c0.5,0.2,0.7,0.8,0.5,1.3c-1.5,2.9-4,5.2-7,6.2C42.1,235.8,42,235.8,41.9,235.8z"/>
				<path class="st0" d="M39.1,247.5c-0.5,0-0.9-0.3-1-0.8c-0.1-0.5,0.2-1.1,0.7-1.2c4.4-1.1,7.4-4.2,8.6-6.6
					c0.2-0.5,0.8-0.7,1.3-0.5c0.5,0.2,0.7,0.8,0.5,1.3c-1.4,2.8-4.8,6.5-9.9,7.7C39.3,247.4,39.2,247.5,39.1,247.5z"/>
				<path class="st0" d="M41.2,251.8c-0.4,0-0.8-0.3-1-0.7c-0.2-0.5,0.1-1.1,0.6-1.3c2.8-0.9,5.2-3,6.6-5.7c0.2-0.5,0.8-0.7,1.3-0.5
					c0.5,0.2,0.7,0.8,0.5,1.3c-1.6,3.2-4.4,5.7-7.7,6.8C41.4,251.7,41.3,251.8,41.2,251.8z"/>
				<path class="st0" d="M41.2,262.2c-0.4,0-0.8-0.3-1-0.7c-0.2-0.5,0.1-1.1,0.6-1.3c2.8-0.9,5.2-3,6.6-5.7c0.2-0.5,0.8-0.7,1.3-0.5
					c0.5,0.2,0.7,0.8,0.5,1.3c-1.6,3.2-4.4,5.7-7.7,6.8C41.4,262.2,41.3,262.2,41.2,262.2z"/>
				<path class="st0" d="M54.6,235.8c-0.1,0-0.2,0-0.3,0c-3-1-5.6-3.2-7-6.2c-0.2-0.5,0-1.1,0.5-1.3c0.5-0.2,1.1,0,1.3,0.5
					c1.2,2.5,3.4,4.3,5.9,5.1c0.5,0.2,0.8,0.7,0.6,1.3C55.4,235.6,55,235.8,54.6,235.8z"/>
				<path class="st0" d="M57.4,247.5c-0.1,0-0.2,0-0.2,0c-5.1-1.2-8.5-4.9-9.9-7.7c-0.2-0.5,0-1.1,0.5-1.3c0.5-0.2,1.1,0,1.3,0.5
					c1.2,2.4,4.2,5.6,8.6,6.6c0.5,0.1,0.9,0.7,0.7,1.2C58.3,247.1,57.9,247.5,57.4,247.5z"/>
				<path class="st0" d="M39,257.9c-0.5,0-0.9-0.3-1-0.8c-0.1-0.5,0.2-1.1,0.7-1.2c4.4-1.1,7.4-4.2,8.6-6.6c0.2-0.5,0.8-0.7,1.3-0.5
					c0.5,0.2,0.7,0.8,0.5,1.3c-1.4,2.8-4.8,6.5-9.9,7.7C39.2,257.8,39.1,257.9,39,257.9z"/>
				<path class="st0" d="M57.3,257.9c-0.1,0-0.2,0-0.2,0c-5.1-1.2-8.5-4.9-9.9-7.7c-0.2-0.5,0-1.1,0.5-1.3s1.1,0,1.3,0.5
					c1.2,2.4,4.2,5.6,8.6,6.6c0.5,0.1,0.9,0.7,0.7,1.2C58.2,257.5,57.8,257.9,57.3,257.9z"/>
				<path class="st0" d="M55.3,251.8c-0.1,0-0.2,0-0.3,0c-3.3-1.1-6.1-3.5-7.7-6.8c-0.2-0.5,0-1.1,0.5-1.3s1.1,0,1.3,0.5
					c1.4,2.8,3.8,4.8,6.6,5.7c0.5,0.2,0.8,0.7,0.6,1.3C56.1,251.5,55.7,251.8,55.3,251.8z"/>
				<path class="st0" d="M55.3,262.2c-0.1,0-0.2,0-0.3,0c-3.3-1.1-6.1-3.5-7.7-6.8c-0.2-0.5,0-1.1,0.5-1.3c0.5-0.2,1.1,0,1.3,0.5
					c1.4,2.8,3.8,4.8,6.6,5.7c0.5,0.2,0.8,0.7,0.6,1.3C56.1,261.9,55.7,262.2,55.3,262.2z"/>
			</g>
			<g>
				<path class="st0" d="M135.2,229.4c-0.6,0-1-0.4-1-1v-35.8c0-0.6,0.4-1,1-1s1,0.4,1,1v35.8C136.2,229,135.8,229.4,135.2,229.4z"
					/>
				<path class="st0" d="M128.8,199.5c-0.4,0-0.8-0.3-1-0.7c-0.2-0.5,0.1-1.1,0.6-1.3c2.5-0.8,4.6-2.7,5.9-5.1
					c0.2-0.5,0.8-0.7,1.3-0.5c0.5,0.2,0.7,0.8,0.5,1.3c-1.5,2.9-4,5.2-7,6.2C129,199.5,128.9,199.5,128.8,199.5z"/>
				<path class="st0" d="M125.9,211.2c-0.5,0-0.9-0.3-1-0.8c-0.1-0.5,0.2-1.1,0.7-1.2c4.4-1.1,7.4-4.2,8.6-6.6
					c0.2-0.5,0.8-0.7,1.3-0.5c0.5,0.2,0.7,0.8,0.5,1.3c-1.4,2.8-4.8,6.5-9.9,7.7C126.1,211.1,126,211.2,125.9,211.2z"/>
				<path class="st0" d="M128.1,215.5c-0.4,0-0.8-0.3-1-0.7c-0.2-0.5,0.1-1.1,0.6-1.3c2.8-0.9,5.2-3,6.6-5.7
					c0.2-0.5,0.8-0.7,1.3-0.5c0.5,0.2,0.7,0.8,0.5,1.3c-1.6,3.2-4.4,5.7-7.7,6.8C128.3,215.4,128.2,215.5,128.1,215.5z"/>
				<path class="st0" d="M128.1,225.9c-0.4,0-0.8-0.3-1-0.7c-0.2-0.5,0.1-1.1,0.6-1.3c2.8-0.9,5.2-3,6.6-5.7
					c0.2-0.5,0.8-0.7,1.3-0.5c0.5,0.2,0.7,0.8,0.5,1.3c-1.6,3.2-4.4,5.7-7.7,6.8C128.3,225.9,128.2,225.9,128.1,225.9z"/>
				<path class="st0" d="M141.4,199.5c-0.1,0-0.2,0-0.3,0c-3-1-5.6-3.2-7-6.2c-0.2-0.5,0-1.1,0.5-1.3c0.5-0.2,1.1,0,1.3,0.5
					c1.2,2.5,3.4,4.3,5.9,5.1c0.5,0.2,0.8,0.7,0.6,1.3C142.3,199.3,141.9,199.5,141.4,199.5z"/>
				<path class="st0" d="M144.3,211.2c-0.1,0-0.2,0-0.2,0c-5.1-1.2-8.5-4.9-9.9-7.7c-0.2-0.5,0-1.1,0.5-1.3c0.5-0.2,1.1,0,1.3,0.5
					c1.2,2.4,4.2,5.6,8.6,6.6c0.5,0.1,0.9,0.7,0.7,1.2C145.1,210.8,144.7,211.2,144.3,211.2z"/>
				<path class="st0" d="M125.8,221.5c-0.5,0-0.9-0.3-1-0.8c-0.1-0.5,0.2-1.1,0.7-1.2c4.4-1.1,7.4-4.2,8.6-6.6
					c0.2-0.5,0.8-0.7,1.3-0.5c0.5,0.2,0.7,0.8,0.5,1.3c-1.4,2.8-4.8,6.5-9.9,7.7C126,221.5,125.9,221.5,125.8,221.5z"/>
				<path class="st0" d="M144.2,221.5c-0.1,0-0.2,0-0.2,0c-5.1-1.2-8.5-4.9-9.9-7.7c-0.2-0.5,0-1.1,0.5-1.3c0.5-0.2,1.1,0,1.3,0.5
					c1.2,2.4,4.2,5.6,8.6,6.6c0.5,0.1,0.9,0.7,0.7,1.2C145,221.2,144.6,221.5,144.2,221.5z"/>
				<path class="st0" d="M142.1,215.5c-0.1,0-0.2,0-0.3,0c-3.3-1.1-6.1-3.5-7.7-6.8c-0.2-0.5,0-1.1,0.5-1.3c0.5-0.2,1.1,0,1.3,0.5
					c1.4,2.8,3.8,4.8,6.6,5.7c0.5,0.2,0.8,0.7,0.6,1.3C142.9,215.2,142.6,215.5,142.1,215.5z"/>
				<path class="st0" d="M142.1,225.9c-0.1,0-0.2,0-0.3,0c-3.3-1.1-6.1-3.5-7.7-6.8c-0.2-0.5,0-1.1,0.5-1.3c0.5-0.2,1.1,0,1.3,0.5
					c1.4,2.8,3.8,4.8,6.6,5.7c0.5,0.2,0.8,0.7,0.6,1.3C142.9,225.6,142.6,225.9,142.1,225.9z"/>
			</g>
			<g>
				<path class="st0" d="M214.4,239.2c-0.4,0-0.8-0.3-1-0.7c-0.2-0.5,0.1-1.1,0.7-1.2c2.7-0.8,5-2.7,6.3-5.1
					c0.3-0.5,0.9-0.7,1.4-0.4c0.5,0.3,0.7,0.9,0.4,1.4c-1.6,2.9-4.3,5.1-7.5,6.1C214.6,239.2,214.5,239.2,214.4,239.2z"/>
				<path class="st0" d="M214.4,245c-0.4,0-0.8-0.3-1-0.7c-0.2-0.5,0.1-1.1,0.7-1.2c2.7-0.8,5-2.7,6.3-5.1c0.3-0.5,0.9-0.7,1.4-0.4
					c0.5,0.3,0.7,0.9,0.4,1.4c-1.6,2.9-4.3,5.1-7.5,6.1C214.6,245,214.5,245,214.4,245z"/>
				<path class="st0" d="M214.4,250.8c-0.4,0-0.8-0.3-1-0.7c-0.2-0.5,0.1-1.1,0.7-1.2c2.7-0.8,5-2.7,6.3-5.1
					c0.3-0.5,0.9-0.7,1.4-0.4c0.5,0.3,0.7,0.9,0.4,1.4c-1.6,2.9-4.3,5.1-7.5,6.1C214.6,250.7,214.5,250.8,214.4,250.8z"/>
				<path class="st0" d="M228,239.2c-0.1,0-0.2,0-0.3,0c-3.2-1-5.9-3.2-7.5-6.1c-0.3-0.5-0.1-1.1,0.4-1.4c0.5-0.3,1.1-0.1,1.4,0.4
					c1.3,2.4,3.6,4.3,6.3,5.1c0.5,0.2,0.8,0.7,0.7,1.2C228.8,238.9,228.4,239.2,228,239.2z"/>
				<path class="st0" d="M228,245c-0.1,0-0.2,0-0.3,0c-3.2-1-5.9-3.2-7.5-6.1c-0.3-0.5-0.1-1.1,0.4-1.4c0.5-0.3,1.1-0.1,1.4,0.4
					c1.3,2.4,3.6,4.3,6.3,5.1c0.5,0.2,0.8,0.7,0.7,1.2C228.8,244.7,228.4,245,228,245z"/>
				<path class="st0" d="M228,250.8c-0.1,0-0.2,0-0.3,0c-3.2-1-5.9-3.2-7.5-6.1c-0.3-0.5-0.1-1.1,0.4-1.4c0.5-0.3,1.1-0.1,1.4,0.4
					c1.3,2.4,3.6,4.3,6.3,5.1c0.5,0.2,0.8,0.7,0.7,1.2C228.8,250.5,228.4,250.8,228,250.8z"/>
				<path class="st0" d="M221.2,252.9c-0.6,0-1-0.4-1-1v-18.5c0-0.6,0.4-1,1-1s1,0.4,1,1v18.5C222.2,252.4,221.7,252.9,221.2,252.9z
					"/>
			</g>
			<g>
				<path class="st0" d="M72.1,228c-0.4,0-0.8-0.3-1-0.7c-0.2-0.5,0.1-1.1,0.7-1.2c2.7-0.8,5-2.7,6.3-5.1c0.3-0.5,0.9-0.7,1.4-0.4
					c0.5,0.3,0.7,0.9,0.4,1.4c-1.6,2.9-4.3,5.1-7.5,6.1C72.3,227.9,72.2,228,72.1,228z"/>
				<path class="st0" d="M72.1,233.7c-0.4,0-0.8-0.3-1-0.7c-0.2-0.5,0.1-1.1,0.7-1.2c2.7-0.8,5-2.7,6.3-5.1c0.3-0.5,0.9-0.7,1.4-0.4
					c0.5,0.3,0.7,0.9,0.4,1.4c-1.6,2.9-4.3,5.1-7.5,6.1C72.3,233.7,72.2,233.7,72.1,233.7z"/>
				<path class="st0" d="M72.1,239.5c-0.4,0-0.8-0.3-1-0.7c-0.2-0.5,0.1-1.1,0.7-1.2c2.7-0.8,5-2.7,6.3-5.1c0.3-0.5,0.9-0.7,1.4-0.4
					c0.5,0.3,0.7,0.9,0.4,1.4c-1.6,2.9-4.3,5.1-7.5,6.1C72.3,239.5,72.2,239.5,72.1,239.5z"/>
				<path class="st0" d="M85.7,228c-0.1,0-0.2,0-0.3,0c-3.2-1-5.9-3.2-7.5-6.1c-0.3-0.5-0.1-1.1,0.4-1.4c0.5-0.3,1.1-0.1,1.4,0.4
					c1.3,2.4,3.6,4.3,6.3,5.1c0.5,0.2,0.8,0.7,0.7,1.2C86.5,227.7,86.1,228,85.7,228z"/>
				<path class="st0" d="M85.7,233.7c-0.1,0-0.2,0-0.3,0c-3.2-1-5.9-3.2-7.5-6.1c-0.3-0.5-0.1-1.1,0.4-1.4c0.5-0.3,1.1-0.1,1.4,0.4
					c1.3,2.4,3.6,4.3,6.3,5.1c0.5,0.2,0.8,0.7,0.7,1.2C86.5,233.5,86.1,233.7,85.7,233.7z"/>
				<path class="st0" d="M85.7,239.5c-0.1,0-0.2,0-0.3,0c-3.2-1-5.9-3.2-7.5-6.1c-0.3-0.5-0.1-1.1,0.4-1.4c0.5-0.3,1.1-0.1,1.4,0.4
					c1.3,2.4,3.6,4.3,6.3,5.1c0.5,0.2,0.8,0.7,0.7,1.2C86.5,239.2,86.1,239.5,85.7,239.5z"/>
				<path class="st0" d="M78.9,241.6c-0.6,0-1-0.4-1-1v-18.5c0-0.6,0.4-1,1-1s1,0.4,1,1v18.5C79.9,241.2,79.4,241.6,78.9,241.6z"/>
			</g>
			<g>
				<path class="st0" d="M340.6,252.6c-0.4,0-0.8-0.3-1-0.7c-0.2-0.5,0.1-1.1,0.7-1.2c2.7-0.8,5-2.7,6.3-5.1
					c0.3-0.5,0.9-0.7,1.4-0.4c0.5,0.3,0.7,0.9,0.4,1.4c-1.6,2.9-4.3,5.1-7.5,6.1C340.8,252.6,340.7,252.6,340.6,252.6z"/>
				<path class="st0" d="M340.6,258.4c-0.4,0-0.8-0.3-1-0.7c-0.2-0.5,0.1-1.1,0.7-1.2c2.7-0.8,5-2.7,6.3-5.1
					c0.3-0.5,0.9-0.7,1.4-0.4c0.5,0.3,0.7,0.9,0.4,1.4c-1.6,2.9-4.3,5.1-7.5,6.1C340.8,258.4,340.7,258.4,340.6,258.4z"/>
				<path class="st0" d="M340.6,264.1c-0.4,0-0.8-0.3-1-0.7c-0.2-0.5,0.1-1.1,0.7-1.2c2.7-0.8,5-2.7,6.3-5.1
					c0.3-0.5,0.9-0.7,1.4-0.4c0.5,0.3,0.7,0.9,0.4,1.4c-1.6,2.9-4.3,5.1-7.5,6.1C340.8,264.1,340.7,264.1,340.6,264.1z"/>
				<path class="st0" d="M354.2,252.6c-0.1,0-0.2,0-0.3,0c-3.2-1-5.9-3.2-7.5-6.1c-0.3-0.5-0.1-1.1,0.4-1.4c0.5-0.3,1.1-0.1,1.4,0.4
					c1.3,2.4,3.6,4.3,6.3,5.1c0.5,0.2,0.8,0.7,0.7,1.2C355,252.3,354.6,252.6,354.2,252.6z"/>
				<path class="st0" d="M354.2,258.4c-0.1,0-0.2,0-0.3,0c-3.2-1-5.9-3.2-7.5-6.1c-0.3-0.5-0.1-1.1,0.4-1.4c0.5-0.3,1.1-0.1,1.4,0.4
					c1.3,2.4,3.6,4.3,6.3,5.1c0.5,0.2,0.8,0.7,0.7,1.2C355,258.1,354.6,258.4,354.2,258.4z"/>
				<path class="st0" d="M354.2,264.1c-0.1,0-0.2,0-0.3,0c-3.2-1-5.9-3.2-7.5-6.1c-0.3-0.5-0.1-1.1,0.4-1.4c0.5-0.3,1.1-0.1,1.4,0.4
					c1.3,2.4,3.6,4.3,6.3,5.1c0.5,0.2,0.8,0.7,0.7,1.2C355,263.9,354.6,264.1,354.2,264.1z"/>
				<path class="st0" d="M347.3,266.3c-0.6,0-1-0.4-1-1v-18.5c0-0.6,0.4-1,1-1s1,0.4,1,1v18.5C348.3,265.8,347.9,266.3,347.3,266.3z
					"/>
			</g>
			<g>
				<path class="st0" d="M299,228.6c-0.4,0-0.8-0.3-1-0.7c-0.2-0.5,0.1-1.1,0.7-1.2c2.7-0.8,5-2.7,6.3-5.1c0.3-0.5,0.9-0.7,1.4-0.4
					c0.5,0.3,0.7,0.9,0.4,1.4c-1.6,2.9-4.3,5.1-7.5,6.1C299.2,228.6,299.1,228.6,299,228.6z"/>
				<path class="st0" d="M299,234.4c-0.4,0-0.8-0.3-1-0.7c-0.2-0.5,0.1-1.1,0.7-1.2c2.7-0.8,5-2.7,6.3-5.1c0.3-0.5,0.9-0.7,1.4-0.4
					c0.5,0.3,0.7,0.9,0.4,1.4c-1.6,2.9-4.3,5.1-7.5,6.1C299.2,234.3,299.1,234.4,299,234.4z"/>
				<path class="st0" d="M312.6,228.6c-0.1,0-0.2,0-0.3,0c-3.2-1-5.9-3.2-7.5-6.1c-0.3-0.5-0.1-1.1,0.4-1.4c0.5-0.3,1.1-0.1,1.4,0.4
					c1.3,2.4,3.6,4.3,6.3,5.1c0.5,0.2,0.8,0.7,0.7,1.2C313.4,228.3,313,228.6,312.6,228.6z"/>
				<path class="st0" d="M312.6,234.4c-0.1,0-0.2,0-0.3,0c-3.2-1-5.9-3.2-7.5-6.1c-0.3-0.5-0.1-1.1,0.4-1.4c0.5-0.3,1.1-0.1,1.4,0.4
					c1.3,2.4,3.6,4.3,6.3,5.1c0.5,0.2,0.8,0.7,0.7,1.2C313.4,234.1,313,234.4,312.6,234.4z"/>
				<path class="st0" d="M305.7,235.1c-0.6,0-1-0.4-1-1v-11.3c0-0.6,0.4-1,1-1s1,0.4,1,1v11.3C306.7,234.6,306.3,235.1,305.7,235.1z
					"/>
			</g>
			<g>
				<path class="st0" d="M217.8,281.1c-0.4,0-0.8-0.3-1-0.7c-0.2-0.5,0.1-1.1,0.7-1.2c2.7-0.8,5-2.7,6.3-5.1
					c0.3-0.5,0.9-0.7,1.4-0.4c0.5,0.3,0.7,0.9,0.4,1.4c-1.6,2.9-4.3,5.1-7.5,6.1C218,281.1,217.9,281.1,217.8,281.1z"/>
				<path class="st0" d="M217.8,286.9c-0.4,0-0.8-0.3-1-0.7c-0.2-0.5,0.1-1.1,0.7-1.2c2.7-0.8,5-2.7,6.3-5.1
					c0.3-0.5,0.9-0.7,1.4-0.4c0.5,0.3,0.7,0.9,0.4,1.4c-1.6,2.9-4.3,5.1-7.5,6.1C218,286.9,217.9,286.9,217.8,286.9z"/>
				<path class="st0" d="M231.3,281.1c-0.1,0-0.2,0-0.3,0c-3.2-1-5.9-3.2-7.5-6.1c-0.3-0.5-0.1-1.1,0.4-1.4c0.5-0.3,1.1-0.1,1.4,0.4
					c1.3,2.4,3.6,4.3,6.3,5.1c0.5,0.2,0.8,0.7,0.7,1.2C232.2,280.8,231.8,281.1,231.3,281.1z"/>
				<path class="st0" d="M231.3,286.9c-0.1,0-0.2,0-0.3,0c-3.2-1-5.9-3.2-7.5-6.1c-0.3-0.5-0.1-1.1,0.4-1.4c0.5-0.3,1.1-0.1,1.4,0.4
					c1.3,2.4,3.6,4.3,6.3,5.1c0.5,0.2,0.8,0.7,0.7,1.2C232.2,286.6,231.8,286.9,231.3,286.9z"/>
				<path class="st0" d="M224.5,287.6c-0.6,0-1-0.4-1-1v-11.3c0-0.6,0.4-1,1-1s1,0.4,1,1v11.3C225.5,287.1,225,287.6,224.5,287.6z"
					/>
			</g>
			<g>
				<path class="st0" d="M173.5,198.1c-0.4,0-0.8-0.3-1-0.7c-0.2-0.5,0.1-1.1,0.7-1.2c2.7-0.8,5-2.7,6.3-5.1
					c0.3-0.5,0.9-0.7,1.4-0.4c0.5,0.3,0.7,0.9,0.4,1.4c-1.6,2.9-4.3,5.1-7.5,6.1C173.7,198,173.6,198.1,173.5,198.1z"/>
				<path class="st0" d="M173.5,203.8c-0.4,0-0.8-0.3-1-0.7c-0.2-0.5,0.1-1.1,0.7-1.2c2.7-0.8,5-2.7,6.3-5.1
					c0.3-0.5,0.9-0.7,1.4-0.4c0.5,0.3,0.7,0.9,0.4,1.4c-1.6,2.9-4.3,5.1-7.5,6.1C173.7,203.8,173.6,203.8,173.5,203.8z"/>
				<path class="st0" d="M187,198.1c-0.1,0-0.2,0-0.3,0c-3.2-1-5.9-3.2-7.5-6.1c-0.3-0.5-0.1-1.1,0.4-1.4c0.5-0.3,1.1-0.1,1.4,0.4
					c1.3,2.4,3.6,4.3,6.3,5.1c0.5,0.2,0.8,0.7,0.7,1.2C187.9,197.8,187.5,198.1,187,198.1z"/>
				<path class="st0" d="M187,203.8c-0.1,0-0.2,0-0.3,0c-3.2-1-5.9-3.2-7.5-6.1c-0.3-0.5-0.1-1.1,0.4-1.4c0.5-0.3,1.1-0.1,1.4,0.4
					c1.3,2.4,3.6,4.3,6.3,5.1c0.5,0.2,0.8,0.7,0.7,1.2C187.9,203.6,187.5,203.8,187,203.8z"/>
				<path class="st0" d="M180.2,207.6c-0.6,0-1-0.4-1-1v-14.4c0-0.6,0.4-1,1-1s1,0.4,1,1v14.4C181.2,207.2,180.8,207.6,180.2,207.6z
					"/>
			</g>
			<g>
				<path class="st0" d="M68.2,292.2c-0.4,0-0.8-0.3-1-0.7c-0.2-0.5,0.1-1.1,0.7-1.2c2.7-0.8,5-2.7,6.3-5.1c0.3-0.5,0.9-0.7,1.4-0.4
					c0.5,0.3,0.7,0.9,0.4,1.4c-1.6,2.9-4.3,5.1-7.5,6.1C68.4,292.1,68.3,292.2,68.2,292.2z"/>
				<path class="st0" d="M68.2,297.9c-0.4,0-0.8-0.3-1-0.7c-0.2-0.5,0.1-1.1,0.7-1.2c2.7-0.8,5-2.7,6.3-5.1c0.3-0.5,0.9-0.7,1.4-0.4
					c0.5,0.3,0.7,0.9,0.4,1.4c-1.6,2.9-4.3,5.1-7.5,6.1C68.4,297.9,68.3,297.9,68.2,297.9z"/>
				<path class="st0" d="M81.8,292.2c-0.1,0-0.2,0-0.3,0c-3.2-1-5.9-3.2-7.5-6.1c-0.3-0.5-0.1-1.1,0.4-1.4c0.5-0.3,1.1-0.1,1.4,0.4
					c1.3,2.4,3.6,4.3,6.3,5.1c0.5,0.2,0.8,0.7,0.7,1.2C82.6,291.9,82.2,292.2,81.8,292.2z"/>
				<path class="st0" d="M81.8,297.9c-0.1,0-0.2,0-0.3,0c-3.2-1-5.9-3.2-7.5-6.1c-0.3-0.5-0.1-1.1,0.4-1.4c0.5-0.3,1.1-0.1,1.4,0.4
					c1.3,2.4,3.6,4.3,6.3,5.1c0.5,0.2,0.8,0.7,0.7,1.2C82.6,297.6,82.2,297.9,81.8,297.9z"/>
				<path class="st0" d="M74.9,304.8c-0.6,0-1-0.4-1-1v-17.4c0-0.6,0.4-1,1-1s1,0.4,1,1v17.4C75.9,304.3,75.5,304.8,74.9,304.8z"/>
			</g>
			<g>
				<path class="st0" d="M50,194.5c-0.4,0-0.8-0.3-1-0.7c-0.2-0.5,0.1-1.1,0.7-1.2c2.7-0.8,5-2.7,6.3-5.1c0.3-0.5,0.9-0.7,1.4-0.4
					c0.5,0.3,0.7,0.9,0.4,1.4c-1.6,2.9-4.3,5.1-7.5,6.1C50.2,194.5,50.1,194.5,50,194.5z"/>
				<path class="st0" d="M50,200.3c-0.4,0-0.8-0.3-1-0.7c-0.2-0.5,0.1-1.1,0.7-1.2c2.7-0.8,5-2.7,6.3-5.1c0.3-0.5,0.9-0.7,1.4-0.4
					c0.5,0.3,0.7,0.9,0.4,1.4c-1.6,2.9-4.3,5.1-7.5,6.1C50.2,200.3,50.1,200.3,50,200.3z"/>
				<path class="st0" d="M63.6,194.5c-0.1,0-0.2,0-0.3,0c-3.2-1-5.9-3.2-7.5-6.1c-0.3-0.5-0.1-1.1,0.4-1.4c0.5-0.3,1.1-0.1,1.4,0.4
					c1.3,2.4,3.6,4.3,6.3,5.1c0.5,0.2,0.8,0.7,0.7,1.2C64.4,194.2,64,194.5,63.6,194.5z"/>
				<path class="st0" d="M63.6,200.3c-0.1,0-0.2,0-0.3,0c-3.2-1-5.9-3.2-7.5-6.1c-0.3-0.5-0.1-1.1,0.4-1.4c0.5-0.3,1.1-0.1,1.4,0.4
					c1.3,2.4,3.6,4.3,6.3,5.1c0.5,0.2,0.8,0.7,0.7,1.2C64.4,200,64,200.3,63.6,200.3z"/>
				<path class="st0" d="M56.8,207.1c-0.6,0-1-0.4-1-1v-17.4c0-0.6,0.4-1,1-1s1,0.4,1,1v17.4C57.8,206.7,57.3,207.1,56.8,207.1z"/>
			</g>
			<g>
				<path class="st0" d="M319.3,258.5c-0.4,0-0.8-0.3-1-0.7c-0.2-0.5,0.1-1.1,0.7-1.2c2.7-0.8,5-2.7,6.3-5.1
					c0.3-0.5,0.9-0.7,1.4-0.4c0.5,0.3,0.7,0.9,0.4,1.4c-1.6,2.9-4.3,5.1-7.5,6.1C319.4,258.4,319.3,258.5,319.3,258.5z"/>
				<path class="st0" d="M319.3,264.2c-0.4,0-0.8-0.3-1-0.7c-0.2-0.5,0.1-1.1,0.7-1.2c2.7-0.8,5-2.7,6.3-5.1
					c0.3-0.5,0.9-0.7,1.4-0.4c0.5,0.3,0.7,0.9,0.4,1.4c-1.6,2.9-4.3,5.1-7.5,6.1C319.4,264.2,319.3,264.2,319.3,264.2z"/>
				<path class="st0" d="M332.8,258.5c-0.1,0-0.2,0-0.3,0c-3.2-1-5.9-3.2-7.5-6.1c-0.3-0.5-0.1-1.1,0.4-1.4c0.5-0.3,1.1-0.1,1.4,0.4
					c1.3,2.4,3.6,4.3,6.3,5.1c0.5,0.2,0.8,0.7,0.7,1.2C333.7,258.2,333.3,258.5,332.8,258.5z"/>
				<path class="st0" d="M332.8,264.2c-0.1,0-0.2,0-0.3,0c-3.2-1-5.9-3.2-7.5-6.1c-0.3-0.5-0.1-1.1,0.4-1.4c0.5-0.3,1.1-0.1,1.4,0.4
					c1.3,2.4,3.6,4.3,6.3,5.1c0.5,0.2,0.8,0.7,0.7,1.2C333.7,263.9,333.3,264.2,332.8,264.2z"/>
				<path class="st0" d="M326,268c-0.6,0-1-0.4-1-1v-14.4c0-0.6,0.4-1,1-1s1,0.4,1,1V267C327,267.6,326.5,268,326,268z"/>
			</g>
			<g>
				<path class="st0" d="M359.4,292c-0.4,0-0.8-0.3-1-0.7c-0.2-0.5,0.1-1.1,0.7-1.2c2.7-0.8,5-2.7,6.3-5.1c0.3-0.5,0.9-0.7,1.4-0.4
					c0.5,0.3,0.7,0.9,0.4,1.4c-1.6,2.9-4.3,5.1-7.5,6.1C359.6,292,359.5,292,359.4,292z"/>
				<path class="st0" d="M359.4,297.8c-0.4,0-0.8-0.3-1-0.7c-0.2-0.5,0.1-1.1,0.7-1.2c2.7-0.8,5-2.7,6.3-5.1
					c0.3-0.5,0.9-0.7,1.4-0.4c0.5,0.3,0.7,0.9,0.4,1.4c-1.6,2.9-4.3,5.1-7.5,6.1C359.6,297.7,359.5,297.8,359.4,297.8z"/>
				<path class="st0" d="M373,292c-0.1,0-0.2,0-0.3,0c-3.2-1-5.9-3.2-7.5-6.1c-0.3-0.5-0.1-1.1,0.4-1.4c0.5-0.3,1.1-0.1,1.4,0.4
					c1.3,2.4,3.6,4.3,6.3,5.1c0.5,0.2,0.8,0.7,0.7,1.2C373.8,291.7,373.4,292,373,292z"/>
				<path class="st0" d="M373,297.8c-0.1,0-0.2,0-0.3,0c-3.2-1-5.9-3.2-7.5-6.1c-0.3-0.5-0.1-1.1,0.4-1.4c0.5-0.3,1.1-0.1,1.4,0.4
					c1.3,2.4,3.6,4.3,6.3,5.1c0.5,0.2,0.8,0.7,0.7,1.2C373.8,297.5,373.4,297.8,373,297.8z"/>
				<path class="st0" d="M366.1,304.6c-0.6,0-1-0.4-1-1v-17.4c0-0.6,0.4-1,1-1s1,0.4,1,1v17.4C367.1,304.2,366.7,304.6,366.1,304.6z
					"/>
			</g>
			<g>
				<path class="st0" d="M250.9,271.8c-0.6,0-1-0.4-1-1v-46.2c0-0.6,0.4-1,1-1s1,0.4,1,1v46.2C251.9,271.3,251.5,271.8,250.9,271.8z
					"/>
				<path class="st0" d="M243.3,231.5c-0.4,0-0.8-0.3-1-0.7c-0.2-0.5,0.1-1.1,0.6-1.3c3-1,5.5-3.2,7-6.1c0.2-0.5,0.8-0.7,1.3-0.5
					c0.5,0.2,0.7,0.8,0.5,1.3c-1.7,3.4-4.7,6-8.2,7.2C243.5,231.5,243.4,231.5,243.3,231.5z"/>
				<path class="st0" d="M242.5,238c-0.4,0-0.8-0.3-1-0.7c-0.2-0.5,0.1-1.1,0.6-1.3c3.3-1.1,6.2-3.6,7.8-6.8
					c0.2-0.5,0.8-0.7,1.3-0.5c0.5,0.2,0.7,0.8,0.5,1.3c-1.9,3.8-5.1,6.6-9,7.9C242.7,238,242.6,238,242.5,238z"/>
				<path class="st0" d="M240,245.2c-0.5,0-0.9-0.3-1-0.8c-0.1-0.5,0.2-1.1,0.7-1.2c5.3-1.3,8.8-5,10.2-7.9c0.2-0.5,0.8-0.7,1.3-0.5
					c0.5,0.2,0.7,0.8,0.5,1.3c-1.6,3.2-5.6,7.5-11.6,9C240.2,245.2,240.1,245.2,240,245.2z"/>
				<path class="st0" d="M242.5,256.4c-0.4,0-0.8-0.3-1-0.7c-0.2-0.5,0.1-1.1,0.6-1.3c3.3-1.1,6.2-3.6,7.8-6.8
					c0.2-0.5,0.8-0.7,1.3-0.5c0.5,0.2,0.7,0.8,0.5,1.3c-1.9,3.8-5.1,6.6-9,7.9C242.7,256.4,242.6,256.4,242.5,256.4z"/>
				<path class="st0" d="M242.5,262.5c-0.4,0-0.8-0.3-1-0.7c-0.2-0.5,0.1-1.1,0.6-1.3c3.3-1.1,6.2-3.6,7.8-6.8
					c0.2-0.5,0.8-0.7,1.3-0.5c0.5,0.2,0.7,0.8,0.5,1.3c-1.9,3.8-5.1,6.6-9,7.9C242.7,262.5,242.6,262.5,242.5,262.5z"/>
				<path class="st0" d="M258.3,231.5c-0.1,0-0.2,0-0.3,0c-3.5-1.1-6.5-3.7-8.2-7.2c-0.2-0.5,0-1.1,0.5-1.3c0.5-0.2,1.1,0,1.3,0.5
					c1.5,2.9,4,5.2,7,6.1c0.5,0.2,0.8,0.7,0.6,1.3C259.1,231.3,258.7,231.5,258.3,231.5z"/>
				<path class="st0" d="M259.1,238c-0.1,0-0.2,0-0.3,0c-3.8-1.2-7.1-4.1-9-7.9c-0.2-0.5,0-1.1,0.5-1.3c0.5-0.2,1.1,0,1.3,0.5
					c1.6,3.3,4.5,5.8,7.8,6.8c0.5,0.2,0.8,0.7,0.6,1.3C259.9,237.8,259.5,238,259.1,238z"/>
				<path class="st0" d="M261.6,245.2c-0.1,0-0.2,0-0.2,0c-6-1.4-10-5.7-11.6-9c-0.2-0.5,0-1.1,0.5-1.3c0.5-0.2,1.1,0,1.3,0.5
					c1.4,2.9,4.9,6.6,10.2,7.9c0.5,0.1,0.9,0.7,0.7,1.2C262.4,244.9,262,245.2,261.6,245.2z"/>
				<path class="st0" d="M259.1,256.4c-0.1,0-0.2,0-0.3,0c-3.8-1.2-7.1-4.1-9-7.9c-0.2-0.5,0-1.1,0.5-1.3c0.5-0.2,1.1,0,1.3,0.5
					c1.6,3.3,4.5,5.8,7.8,6.8c0.5,0.2,0.8,0.7,0.6,1.3C259.9,256.1,259.5,256.4,259.1,256.4z"/>
				<path class="st0" d="M259.1,262.5c-0.1,0-0.2,0-0.3,0c-3.8-1.2-7.1-4.1-9-7.9c-0.2-0.5,0-1.1,0.5-1.3c0.5-0.2,1.1,0,1.3,0.5
					c1.6,3.3,4.5,5.8,7.8,6.8c0.5,0.2,0.8,0.7,0.6,1.3C259.9,262.3,259.5,262.5,259.1,262.5z"/>
			</g>
			<g>
				<path class="st0" d="M275.3,301.4c-0.6,0-1-0.4-1-1v-52.5c0-0.6,0.4-1,1-1s1,0.4,1,1v52.5C276.3,301,275.9,301.4,275.3,301.4z"
					/>
				<path class="st0" d="M267.7,254.9c-0.4,0-0.8-0.3-1-0.7c-0.2-0.5,0.1-1.1,0.6-1.3c3-1,5.5-3.2,7-6.1c0.2-0.5,0.8-0.7,1.3-0.5
					c0.5,0.2,0.7,0.8,0.5,1.3c-1.7,3.4-4.7,6-8.2,7.2C267.9,254.9,267.8,254.9,267.7,254.9z"/>
				<path class="st0" d="M266.9,261.4c-0.4,0-0.8-0.3-1-0.7c-0.2-0.5,0.1-1.1,0.6-1.3c3.3-1.1,6.2-3.6,7.8-6.8
					c0.2-0.5,0.8-0.7,1.3-0.5c0.5,0.2,0.7,0.8,0.5,1.3c-1.9,3.8-5.1,6.6-9,7.9C267.1,261.4,267,261.4,266.9,261.4z"/>
				<path class="st0" d="M264.5,280.8c-0.5,0-0.9-0.3-1-0.8c-0.1-0.5,0.2-1.1,0.7-1.2c5.3-1.3,8.8-5,10.2-7.9
					c0.2-0.5,0.8-0.7,1.3-0.5c0.5,0.2,0.7,0.8,0.5,1.3c-1.6,3.2-5.6,7.5-11.6,9C264.7,280.8,264.6,280.8,264.5,280.8z"/>
				<path class="st0" d="M266.9,273.8c-0.4,0-0.8-0.3-1-0.7c-0.2-0.5,0.1-1.1,0.6-1.3c3.3-1.1,6.2-3.6,7.8-6.8
					c0.2-0.5,0.8-0.7,1.3-0.5c0.5,0.2,0.7,0.8,0.5,1.3c-1.9,3.8-5.1,6.6-9,7.9C267.1,273.8,267,273.8,266.9,273.8z"/>
				<path class="st0" d="M282.6,254.9c-0.1,0-0.2,0-0.3,0c-3.5-1.1-6.5-3.7-8.2-7.2c-0.2-0.5,0-1.1,0.5-1.3c0.5-0.2,1.1,0,1.3,0.5
					c1.5,2.9,4,5.2,7,6.1c0.5,0.2,0.8,0.7,0.6,1.3C283.5,254.7,283.1,254.9,282.6,254.9z"/>
				<path class="st0" d="M283.5,261.4c-0.1,0-0.2,0-0.3,0c-3.8-1.2-7.1-4.1-9-7.9c-0.2-0.5,0-1.1,0.5-1.3c0.5-0.2,1.1,0,1.3,0.5
					c1.6,3.3,4.5,5.8,7.8,6.8c0.5,0.2,0.8,0.7,0.6,1.3C284.3,261.1,283.9,261.4,283.5,261.4z"/>
				<path class="st0" d="M286.1,280.8c-0.1,0-0.2,0-0.2,0c-6-1.4-10-5.7-11.6-9c-0.2-0.5,0-1.1,0.5-1.3c0.5-0.2,1.1,0,1.3,0.5
					c1.4,2.9,4.9,6.6,10.2,7.9c0.5,0.1,0.9,0.7,0.7,1.2C286.9,280.5,286.5,280.8,286.1,280.8z"/>
				<path class="st0" d="M283.5,273.8c-0.1,0-0.2,0-0.3,0c-3.8-1.2-7.1-4.1-9-7.9c-0.2-0.5,0-1.1,0.5-1.3c0.5-0.2,1.1,0,1.3,0.5
					c1.6,3.3,4.5,5.8,7.8,6.8c0.5,0.2,0.8,0.7,0.6,1.3C284.3,273.5,283.9,273.8,283.5,273.8z"/>
				<path class="st0" d="M267,286c-0.4,0-0.8-0.3-1-0.7c-0.2-0.5,0.1-1.1,0.6-1.3c3.3-1.1,6.2-3.6,7.8-6.8c0.2-0.5,0.8-0.7,1.3-0.5
					c0.5,0.2,0.7,0.8,0.5,1.3c-1.9,3.8-5.1,6.6-9,7.9C267.2,286,267.1,286,267,286z"/>
				<path class="st0" d="M267,292.1c-0.4,0-0.8-0.3-1-0.7c-0.2-0.5,0.1-1.1,0.6-1.3c3.3-1.1,6.2-3.6,7.8-6.8
					c0.2-0.5,0.8-0.7,1.3-0.5c0.5,0.2,0.7,0.8,0.5,1.3c-1.9,3.8-5.1,6.6-9,7.9C267.2,292.1,267.1,292.1,267,292.1z"/>
				<path class="st0" d="M267,298.2c-0.4,0-0.8-0.3-1-0.7c-0.2-0.5,0.1-1.1,0.6-1.3c3.3-1.1,6.2-3.6,7.8-6.8
					c0.2-0.5,0.8-0.7,1.3-0.5c0.5,0.2,0.7,0.8,0.5,1.3c-1.9,3.8-5.1,6.6-9,7.9C267.2,298.2,267.1,298.2,267,298.2z"/>
				<path class="st0" d="M283.6,286c-0.1,0-0.2,0-0.3,0c-3.8-1.2-7.1-4.1-9-7.9c-0.2-0.5,0-1.1,0.5-1.3c0.5-0.2,1.1,0,1.3,0.5
					c1.6,3.3,4.5,5.8,7.8,6.8c0.5,0.2,0.8,0.7,0.6,1.3C284.4,285.7,284,286,283.6,286z"/>
				<path class="st0" d="M283.6,292.1c-0.1,0-0.2,0-0.3,0c-3.8-1.2-7.1-4.1-9-7.9c-0.2-0.5,0-1.1,0.5-1.3c0.5-0.2,1.1,0,1.3,0.5
					c1.6,3.3,4.5,5.8,7.8,6.8c0.5,0.2,0.8,0.7,0.6,1.3C284.4,291.9,284,292.1,283.6,292.1z"/>
				<path class="st0" d="M283.6,298.2c-0.1,0-0.2,0-0.3,0c-3.8-1.2-7.1-4.1-9-7.9c-0.2-0.5,0-1.1,0.5-1.3c0.5-0.2,1.1,0,1.3,0.5
					c1.6,3.3,4.5,5.8,7.8,6.8c0.5,0.2,0.8,0.7,0.6,1.3C284.4,298,284,298.2,283.6,298.2z"/>
			</g>
			<g>
				<path class="st0" d="M244.7,289.7c-0.4,0-0.8-0.3-1-0.7c-0.2-0.5,0.1-1.1,0.7-1.2c2.7-0.8,5-2.7,6.3-5.1
					c0.3-0.5,0.9-0.7,1.4-0.4c0.5,0.3,0.7,0.9,0.4,1.4c-1.6,2.9-4.3,5.1-7.5,6.1C244.9,289.7,244.8,289.7,244.7,289.7z"/>
				<path class="st0" d="M244.7,295.5c-0.4,0-0.8-0.3-1-0.7c-0.2-0.5,0.1-1.1,0.7-1.2c2.7-0.8,5-2.7,6.3-5.1
					c0.3-0.5,0.9-0.7,1.4-0.4c0.5,0.3,0.7,0.9,0.4,1.4c-1.6,2.9-4.3,5.1-7.5,6.1C244.9,295.5,244.8,295.5,244.7,295.5z"/>
				<path class="st0" d="M244.7,301.3c-0.4,0-0.8-0.3-1-0.7c-0.2-0.5,0.1-1.1,0.7-1.2c2.7-0.8,5-2.7,6.3-5.1
					c0.3-0.5,0.9-0.7,1.4-0.4c0.5,0.3,0.7,0.9,0.4,1.4c-1.6,2.9-4.3,5.1-7.5,6.1C244.9,301.3,244.8,301.3,244.7,301.3z"/>
				<path class="st0" d="M258.3,289.7c-0.1,0-0.2,0-0.3,0c-3.2-1-5.9-3.2-7.5-6.1c-0.3-0.5-0.1-1.1,0.4-1.4c0.5-0.3,1.1-0.1,1.4,0.4
					c1.3,2.4,3.6,4.3,6.3,5.1c0.5,0.2,0.8,0.7,0.7,1.2C259.1,289.4,258.7,289.7,258.3,289.7z"/>
				<path class="st0" d="M258.3,295.5c-0.1,0-0.2,0-0.3,0c-3.2-1-5.9-3.2-7.5-6.1c-0.3-0.5-0.1-1.1,0.4-1.4c0.5-0.3,1.1-0.1,1.4,0.4
					c1.3,2.4,3.6,4.3,6.3,5.1c0.5,0.2,0.8,0.7,0.7,1.2C259.1,295.2,258.7,295.5,258.3,295.5z"/>
				<path class="st0" d="M258.3,301.3c-0.1,0-0.2,0-0.3,0c-3.2-1-5.9-3.2-7.5-6.1c-0.3-0.5-0.1-1.1,0.4-1.4c0.5-0.3,1.1-0.1,1.4,0.4
					c1.3,2.4,3.6,4.3,6.3,5.1c0.5,0.2,0.8,0.7,0.7,1.2C259.1,301,258.7,301.3,258.3,301.3z"/>
				<path class="st0" d="M251.5,303.4c-0.6,0-1-0.4-1-1v-18.5c0-0.6,0.4-1,1-1s1,0.4,1,1v18.5C252.5,302.9,252,303.4,251.5,303.4z"
					/>
			</g>
			<g>
				<path class="st0" d="M397.4,182.8c-0.4,0-0.8-0.3-1-0.7c-0.2-0.5,0.1-1.1,0.7-1.2c2.7-0.8,5-2.7,6.3-5.1
					c0.3-0.5,0.9-0.7,1.4-0.4c0.5,0.3,0.7,0.9,0.4,1.4c-1.6,2.9-4.3,5.1-7.5,6.1C397.6,182.8,397.5,182.8,397.4,182.8z"/>
				<path class="st0" d="M397.4,188.6c-0.4,0-0.8-0.3-1-0.7c-0.2-0.5,0.1-1.1,0.7-1.2c2.7-0.8,5-2.7,6.3-5.1
					c0.3-0.5,0.9-0.7,1.4-0.4c0.5,0.3,0.7,0.9,0.4,1.4c-1.6,2.9-4.3,5.1-7.5,6.1C397.6,188.5,397.5,188.6,397.4,188.6z"/>
				<path class="st0" d="M397.4,194.3c-0.4,0-0.8-0.3-1-0.7c-0.2-0.5,0.1-1.1,0.7-1.2c2.7-0.8,5-2.7,6.3-5.1
					c0.3-0.5,0.9-0.7,1.4-0.4c0.5,0.3,0.7,0.9,0.4,1.4c-1.6,2.9-4.3,5.1-7.5,6.1C397.6,194.3,397.5,194.3,397.4,194.3z"/>
				<path class="st0" d="M411,182.8c-0.1,0-0.2,0-0.3,0c-3.2-1-5.9-3.2-7.5-6.1c-0.3-0.5-0.1-1.1,0.4-1.4c0.5-0.3,1.1-0.1,1.4,0.4
					c1.3,2.4,3.6,4.3,6.3,5.1c0.5,0.2,0.8,0.7,0.7,1.2C411.8,182.5,411.4,182.8,411,182.8z"/>
				<path class="st0" d="M411,188.6c-0.1,0-0.2,0-0.3,0c-3.2-1-5.9-3.2-7.5-6.1c-0.3-0.5-0.1-1.1,0.4-1.4c0.5-0.3,1.1-0.1,1.4,0.4
					c1.3,2.4,3.6,4.3,6.3,5.1c0.5,0.2,0.8,0.7,0.7,1.2C411.8,188.3,411.4,188.6,411,188.6z"/>
				<path class="st0" d="M411,194.3c-0.1,0-0.2,0-0.3,0c-3.2-1-5.9-3.2-7.5-6.1c-0.3-0.5-0.1-1.1,0.4-1.4c0.5-0.3,1.1-0.1,1.4,0.4
					c1.3,2.4,3.6,4.3,6.3,5.1c0.5,0.2,0.8,0.7,0.7,1.2C411.8,194.1,411.4,194.3,411,194.3z"/>
				<path class="st0" d="M404.1,196.5c-0.6,0-1-0.4-1-1V177c0-0.6,0.4-1,1-1s1,0.4,1,1v18.5C405.1,196,404.7,196.5,404.1,196.5z"/>
			</g>
			<g>
				<path class="st0" d="M246.7,195.1c-0.4,0-0.8-0.3-1-0.7c-0.2-0.5,0.1-1.1,0.7-1.2c2.7-0.8,5-2.7,6.3-5.1
					c0.3-0.5,0.9-0.7,1.4-0.4c0.5,0.3,0.7,0.9,0.4,1.4c-1.6,2.9-4.3,5.1-7.5,6.1C246.9,195.1,246.8,195.1,246.7,195.1z"/>
				<path class="st0" d="M246.7,200.9c-0.4,0-0.8-0.3-1-0.7c-0.2-0.5,0.1-1.1,0.7-1.2c2.7-0.8,5-2.7,6.3-5.1
					c0.3-0.5,0.9-0.7,1.4-0.4c0.5,0.3,0.7,0.9,0.4,1.4c-1.6,2.9-4.3,5.1-7.5,6.1C246.9,200.9,246.8,200.9,246.7,200.9z"/>
				<path class="st0" d="M260.3,195.1c-0.1,0-0.2,0-0.3,0c-3.2-1-5.9-3.2-7.5-6.1c-0.3-0.5-0.1-1.1,0.4-1.4c0.5-0.3,1.1-0.1,1.4,0.4
					c1.3,2.4,3.6,4.3,6.3,5.1c0.5,0.2,0.8,0.7,0.7,1.2C261.1,194.8,260.7,195.1,260.3,195.1z"/>
				<path class="st0" d="M260.3,200.9c-0.1,0-0.2,0-0.3,0c-3.2-1-5.9-3.2-7.5-6.1c-0.3-0.5-0.1-1.1,0.4-1.4c0.5-0.3,1.1-0.1,1.4,0.4
					c1.3,2.4,3.6,4.3,6.3,5.1c0.5,0.2,0.8,0.7,0.7,1.2C261.1,200.6,260.7,200.9,260.3,200.9z"/>
				<path class="st0" d="M253.4,204.7c-0.6,0-1-0.4-1-1v-14.4c0-0.6,0.4-1,1-1s1,0.4,1,1v14.4C254.4,204.2,254,204.7,253.4,204.7z"
					/>
			</g>
			<g>
				<path class="st0" d="M301.7,302.6c-0.6,0-1-0.4-1-1v-43c0-0.6,0.4-1,1-1s1,0.4,1,1v43C302.7,302.2,302.3,302.6,301.7,302.6z"/>
				<path class="st0" d="M294.2,265.6c-0.4,0-0.8-0.3-1-0.7c-0.2-0.5,0.1-1.1,0.6-1.3c3-1,5.5-3.2,7-6.1c0.2-0.5,0.8-0.7,1.3-0.5
					c0.5,0.2,0.7,0.8,0.5,1.3c-1.7,3.4-4.7,6-8.2,7.2C294.4,265.6,294.3,265.6,294.2,265.6z"/>
				<path class="st0" d="M293.3,272.1c-0.4,0-0.8-0.3-1-0.7c-0.2-0.5,0.1-1.1,0.6-1.3c3.3-1.1,6.2-3.6,7.8-6.8
					c0.2-0.5,0.8-0.7,1.3-0.5c0.5,0.2,0.7,0.8,0.5,1.3c-1.9,3.8-5.1,6.6-9,7.9C293.6,272.1,293.4,272.1,293.3,272.1z"/>
				<path class="st0" d="M290.8,279.3c-0.5,0-0.9-0.3-1-0.8c-0.1-0.5,0.2-1.1,0.7-1.2c5.3-1.3,8.8-5,10.2-7.9
					c0.2-0.5,0.8-0.7,1.3-0.5c0.5,0.2,0.7,0.8,0.5,1.3c-1.6,3.2-5.6,7.5-11.6,9C291,279.3,290.9,279.3,290.8,279.3z"/>
				<path class="st0" d="M293.3,284.3c-0.4,0-0.8-0.3-1-0.7c-0.2-0.5,0.1-1.1,0.6-1.3c3.3-1.1,6.2-3.6,7.8-6.8
					c0.2-0.5,0.8-0.7,1.3-0.5c0.5,0.2,0.7,0.8,0.5,1.3c-1.9,3.8-5.1,6.6-9,7.9C293.6,284.3,293.4,284.3,293.3,284.3z"/>
				<path class="st0" d="M293.3,290.5c-0.4,0-0.8-0.3-1-0.7c-0.2-0.5,0.1-1.1,0.6-1.3c3.3-1.1,6.2-3.6,7.8-6.8
					c0.2-0.5,0.8-0.7,1.3-0.5c0.5,0.2,0.7,0.8,0.5,1.3c-1.9,3.8-5.1,6.6-9,7.9C293.6,290.4,293.4,290.5,293.3,290.5z"/>
				<path class="st0" d="M293.3,296.6c-0.4,0-0.8-0.3-1-0.7c-0.2-0.5,0.1-1.1,0.6-1.3c3.3-1.1,6.2-3.6,7.8-6.8
					c0.2-0.5,0.8-0.7,1.3-0.5c0.5,0.2,0.7,0.8,0.5,1.3c-1.9,3.8-5.1,6.6-9,7.9C293.6,296.6,293.4,296.6,293.3,296.6z"/>
				<path class="st0" d="M309.1,265.6c-0.1,0-0.2,0-0.3,0c-3.5-1.1-6.5-3.7-8.2-7.2c-0.2-0.5,0-1.1,0.5-1.3s1.1,0,1.3,0.5
					c1.5,2.9,4,5.2,7,6.1c0.5,0.2,0.8,0.7,0.6,1.3C309.9,265.3,309.5,265.6,309.1,265.6z"/>
				<path class="st0" d="M309.9,272.1c-0.1,0-0.2,0-0.3,0c-3.8-1.2-7.1-4.1-9-7.9c-0.2-0.5,0-1.1,0.5-1.3c0.5-0.2,1.1,0,1.3,0.5
					c1.6,3.3,4.5,5.8,7.8,6.8c0.5,0.2,0.8,0.7,0.6,1.3C310.7,271.8,310.3,272.1,309.9,272.1z"/>
				<path class="st0" d="M312.4,279.3c-0.1,0-0.2,0-0.2,0c-6-1.4-10-5.7-11.6-9c-0.2-0.5,0-1.1,0.5-1.3c0.5-0.2,1.1,0,1.3,0.5
					c1.4,2.9,4.9,6.6,10.2,7.9c0.5,0.1,0.9,0.7,0.7,1.2C313.3,279,312.9,279.3,312.4,279.3z"/>
				<path class="st0" d="M309.9,284.3c-0.1,0-0.2,0-0.3,0c-3.8-1.2-7.1-4.1-9-7.9c-0.2-0.5,0-1.1,0.5-1.3c0.5-0.2,1.1,0,1.3,0.5
					c1.6,3.3,4.5,5.8,7.8,6.8c0.5,0.2,0.8,0.7,0.6,1.3C310.7,284.1,310.3,284.3,309.9,284.3z"/>
				<path class="st0" d="M309.9,290.5c-0.1,0-0.2,0-0.3,0c-3.8-1.2-7.1-4.1-9-7.9c-0.2-0.5,0-1.1,0.5-1.3c0.5-0.2,1.1,0,1.3,0.5
					c1.6,3.3,4.5,5.8,7.8,6.8c0.5,0.2,0.8,0.7,0.6,1.3C310.7,290.2,310.3,290.5,309.9,290.5z"/>
				<path class="st0" d="M309.9,296.6c-0.1,0-0.2,0-0.3,0c-3.8-1.2-7.1-4.1-9-7.9c-0.2-0.5,0-1.1,0.5-1.3c0.5-0.2,1.1,0,1.3,0.5
					c1.6,3.3,4.5,5.8,7.8,6.8c0.5,0.2,0.8,0.7,0.6,1.3C310.7,296.3,310.3,296.6,309.9,296.6z"/>
			</g>
			<g>
				<path class="st0" d="M229.8,200c-0.6,0-1-0.4-1-1v-36.9c0-0.6,0.4-1,1-1s1,0.4,1,1V199C230.8,199.6,230.3,200,229.8,200z"/>
				<path class="st0" d="M222.7,169.1c-0.4,0-0.8-0.3-0.9-0.7c-0.2-0.5,0.1-1.1,0.6-1.3c2.9-1,5.4-3.2,6.8-6.1
					c0.2-0.5,0.8-0.7,1.3-0.5c0.5,0.2,0.7,0.8,0.5,1.3c-1.6,3.4-4.5,6-7.9,7.2C222.9,169,222.8,169.1,222.7,169.1z"/>
				<path class="st0" d="M221.9,175.5c-0.4,0-0.8-0.3-0.9-0.7c-0.2-0.5,0.1-1.1,0.6-1.3c3.2-1.1,6-3.6,7.6-6.8
					c0.2-0.5,0.8-0.7,1.3-0.5c0.5,0.2,0.7,0.8,0.5,1.3c-1.8,3.8-5,6.6-8.7,7.9C222.1,175.5,222,175.5,221.9,175.5z"/>
				<path class="st0" d="M221.9,193.9c-0.4,0-0.8-0.3-0.9-0.7c-0.2-0.5,0.1-1.1,0.6-1.3c3.2-1.1,6-3.6,7.6-6.8
					c0.2-0.5,0.8-0.7,1.3-0.5c0.5,0.2,0.7,0.8,0.5,1.3c-1.8,3.8-5,6.6-8.7,7.9C222.1,193.9,222,193.9,221.9,193.9z"/>
				<path class="st0" d="M237.2,169.1c-0.1,0-0.2,0-0.3-0.1c-3.4-1.1-6.3-3.7-7.9-7.2c-0.2-0.5,0-1.1,0.5-1.3c0.5-0.2,1.1,0,1.3,0.5
					c1.4,2.9,3.9,5.2,6.8,6.1c0.5,0.2,0.8,0.7,0.6,1.3C238,168.8,237.6,169.1,237.2,169.1z"/>
				<path class="st0" d="M237.9,175.5c-0.1,0-0.2,0-0.3-0.1c-3.7-1.2-6.9-4.1-8.7-7.9c-0.2-0.5,0-1.1,0.5-1.3c0.5-0.2,1.1,0,1.3,0.5
					c1.6,3.3,4.3,5.8,7.6,6.8c0.5,0.2,0.8,0.7,0.6,1.3C238.8,175.3,238.4,175.5,237.9,175.5z"/>
				<path class="st0" d="M221.8,181.7c-0.4,0-0.8-0.3-0.9-0.7c-0.2-0.5,0.1-1.1,0.6-1.3c3.2-1.1,6-3.6,7.6-6.8
					c0.2-0.5,0.8-0.7,1.3-0.5c0.5,0.2,0.7,0.8,0.5,1.3c-1.8,3.8-5,6.6-8.7,7.9C222,181.7,221.9,181.7,221.8,181.7z"/>
				<path class="st0" d="M237.8,181.7c-0.1,0-0.2,0-0.3-0.1c-3.7-1.2-6.9-4.1-8.7-7.9c-0.2-0.5,0-1.1,0.5-1.3c0.5-0.2,1.1,0,1.3,0.5
					c1.6,3.3,4.3,5.8,7.6,6.8c0.5,0.2,0.8,0.7,0.6,1.3C238.6,181.4,238.2,181.7,237.8,181.7z"/>
				<path class="st0" d="M237.9,193.9c-0.1,0-0.2,0-0.3-0.1c-3.7-1.2-6.9-4.1-8.7-7.9c-0.2-0.5,0-1.1,0.5-1.3c0.5-0.2,1.1,0,1.3,0.5
					c1.6,3.3,4.3,5.8,7.6,6.8c0.5,0.2,0.8,0.7,0.6,1.3C238.8,193.7,238.4,193.9,237.9,193.9z"/>
			</g>
			<g>
				<path class="st0" d="M335,201.8c-0.6,0-1-0.4-1-1V165c0-0.6,0.4-1,1-1s1,0.4,1,1v35.8C336,201.4,335.5,201.8,335,201.8z"/>
				<path class="st0" d="M328.5,172c-0.4,0-0.8-0.3-1-0.7c-0.2-0.5,0.1-1.1,0.6-1.3c2.5-0.8,4.6-2.7,5.9-5.1
					c0.2-0.5,0.8-0.7,1.3-0.5c0.5,0.2,0.7,0.8,0.5,1.3c-1.5,2.9-4,5.2-7,6.2C328.7,171.9,328.6,172,328.5,172z"/>
				<path class="st0" d="M325.7,183.6c-0.5,0-0.9-0.3-1-0.8c-0.1-0.5,0.2-1.1,0.7-1.2c4.4-1.1,7.4-4.2,8.6-6.6
					c0.2-0.5,0.8-0.7,1.3-0.5c0.5,0.2,0.7,0.8,0.5,1.3c-1.4,2.8-4.8,6.5-9.9,7.7C325.8,183.6,325.8,183.6,325.7,183.6z"/>
				<path class="st0" d="M327.8,187.9c-0.4,0-0.8-0.3-1-0.7c-0.2-0.5,0.1-1.1,0.6-1.3c2.8-0.9,5.2-3,6.6-5.7
					c0.2-0.5,0.8-0.7,1.3-0.5c0.5,0.2,0.7,0.8,0.5,1.3c-1.6,3.2-4.4,5.7-7.7,6.8C328,187.9,327.9,187.9,327.8,187.9z"/>
				<path class="st0" d="M327.8,198.3c-0.4,0-0.8-0.3-1-0.7c-0.2-0.5,0.1-1.1,0.6-1.3c2.8-0.9,5.2-3,6.6-5.7
					c0.2-0.5,0.8-0.7,1.3-0.5c0.5,0.2,0.7,0.8,0.5,1.3c-1.6,3.2-4.4,5.7-7.7,6.8C328,198.3,327.9,198.3,327.8,198.3z"/>
				<path class="st0" d="M341.2,172c-0.1,0-0.2,0-0.3,0c-3-1-5.6-3.2-7-6.2c-0.2-0.5,0-1.1,0.5-1.3c0.5-0.2,1.1,0,1.3,0.5
					c1.2,2.5,3.4,4.3,5.9,5.1c0.5,0.2,0.8,0.7,0.6,1.3C342,171.7,341.6,172,341.2,172z"/>
				<path class="st0" d="M344,183.6c-0.1,0-0.2,0-0.2,0c-5.1-1.2-8.5-4.9-9.9-7.7c-0.2-0.5,0-1.1,0.5-1.3c0.5-0.2,1.1,0,1.3,0.5
					c1.2,2.4,4.2,5.6,8.6,6.6c0.5,0.1,0.9,0.7,0.7,1.2C344.9,183.3,344.5,183.6,344,183.6z"/>
				<path class="st0" d="M325.6,194c-0.5,0-0.9-0.3-1-0.8c-0.1-0.5,0.2-1.1,0.7-1.2c4.4-1.1,7.4-4.2,8.6-6.6
					c0.2-0.5,0.8-0.7,1.3-0.5c0.5,0.2,0.7,0.8,0.5,1.3c-1.4,2.8-4.8,6.5-9.9,7.7C325.7,194,325.7,194,325.6,194z"/>
				<path class="st0" d="M343.9,194c-0.1,0-0.2,0-0.2,0c-5.1-1.2-8.5-4.9-9.9-7.7c-0.2-0.5,0-1.1,0.5-1.3c0.5-0.2,1.1,0,1.3,0.5
					c1.2,2.4,4.2,5.6,8.6,6.6c0.5,0.1,0.9,0.7,0.7,1.2C344.8,193.7,344.4,194,343.9,194z"/>
				<path class="st0" d="M341.9,187.9c-0.1,0-0.2,0-0.3,0c-3.3-1.1-6.1-3.5-7.7-6.8c-0.2-0.5,0-1.1,0.5-1.3c0.5-0.2,1.1,0,1.3,0.5
					c1.4,2.8,3.8,4.8,6.6,5.7c0.5,0.2,0.8,0.7,0.6,1.3C342.7,187.6,342.3,187.9,341.9,187.9z"/>
				<path class="st0" d="M341.9,198.3c-0.1,0-0.2,0-0.3,0c-3.3-1.1-6.1-3.5-7.7-6.8c-0.2-0.5,0-1.1,0.5-1.3c0.5-0.2,1.1,0,1.3,0.5
					c1.4,2.8,3.8,4.8,6.6,5.7c0.5,0.2,0.8,0.7,0.6,1.3C342.7,198,342.3,198.3,341.9,198.3z"/>
			</g>
			<g>
				<path class="st0" d="M338.2,307c-0.6,0-1-0.4-1-1v-35.8c0-0.6,0.4-1,1-1s1,0.4,1,1V306C339.2,306.5,338.7,307,338.2,307z"/>
				<path class="st0" d="M331.7,277.1c-0.4,0-0.8-0.3-1-0.7c-0.2-0.5,0.1-1.1,0.6-1.3c2.5-0.8,4.6-2.7,5.9-5.1
					c0.2-0.5,0.8-0.7,1.3-0.5s0.7,0.8,0.5,1.3c-1.5,2.9-4,5.2-7,6.2C331.9,277.1,331.8,277.1,331.7,277.1z"/>
				<path class="st0" d="M328.9,288.7c-0.5,0-0.9-0.3-1-0.8c-0.1-0.5,0.2-1.1,0.7-1.2c4.4-1.1,7.4-4.2,8.6-6.6
					c0.2-0.5,0.8-0.7,1.3-0.5c0.5,0.2,0.7,0.8,0.5,1.3c-1.4,2.8-4.8,6.5-9.9,7.7C329.1,288.7,329,288.7,328.9,288.7z"/>
				<path class="st0" d="M331,293c-0.4,0-0.8-0.3-1-0.7c-0.2-0.5,0.1-1.1,0.6-1.3c2.8-0.9,5.2-3,6.6-5.7c0.2-0.5,0.8-0.7,1.3-0.5
					c0.5,0.2,0.7,0.8,0.5,1.3c-1.6,3.2-4.4,5.7-7.7,6.8C331.2,293,331.1,293,331,293z"/>
				<path class="st0" d="M331,303.4c-0.4,0-0.8-0.3-1-0.7c-0.2-0.5,0.1-1.1,0.6-1.3c2.8-0.9,5.2-3,6.6-5.7c0.2-0.5,0.8-0.7,1.3-0.5
					c0.5,0.2,0.7,0.8,0.5,1.3c-1.6,3.2-4.4,5.7-7.7,6.8C331.2,303.4,331.1,303.4,331,303.4z"/>
				<path class="st0" d="M344.4,277.1c-0.1,0-0.2,0-0.3,0c-3-1-5.6-3.2-7-6.2c-0.2-0.5,0-1.1,0.5-1.3c0.5-0.2,1.1,0,1.3,0.5
					c1.2,2.5,3.4,4.3,5.9,5.1c0.5,0.2,0.8,0.7,0.6,1.3C345.2,276.8,344.8,277.1,344.4,277.1z"/>
				<path class="st0" d="M347.2,288.7c-0.1,0-0.2,0-0.2,0c-5.1-1.2-8.5-4.9-9.9-7.7c-0.2-0.5,0-1.1,0.5-1.3c0.5-0.2,1.1,0,1.3,0.5
					c1.2,2.4,4.2,5.6,8.6,6.6c0.5,0.1,0.9,0.7,0.7,1.2C348.1,288.4,347.7,288.7,347.2,288.7z"/>
				<path class="st0" d="M328.8,299.1c-0.5,0-0.9-0.3-1-0.8c-0.1-0.5,0.2-1.1,0.7-1.2c4.4-1.1,7.4-4.2,8.6-6.6
					c0.2-0.5,0.8-0.7,1.3-0.5c0.5,0.2,0.7,0.8,0.5,1.3c-1.4,2.8-4.8,6.5-9.9,7.7C329,299.1,328.9,299.1,328.8,299.1z"/>
				<path class="st0" d="M347.1,299.1c-0.1,0-0.2,0-0.2,0c-5.1-1.2-8.5-4.9-9.9-7.7c-0.2-0.5,0-1.1,0.5-1.3c0.5-0.2,1.1,0,1.3,0.5
					c1.2,2.4,4.2,5.6,8.6,6.6c0.5,0.1,0.9,0.7,0.7,1.2C348,298.8,347.6,299.1,347.1,299.1z"/>
				<path class="st0" d="M345.1,293c-0.1,0-0.2,0-0.3,0c-3.3-1.1-6.1-3.5-7.7-6.8c-0.2-0.5,0-1.1,0.5-1.3c0.5-0.2,1.1,0,1.3,0.5
					c1.4,2.8,3.8,4.8,6.6,5.7c0.5,0.2,0.8,0.7,0.6,1.3C345.9,292.7,345.5,293,345.1,293z"/>
				<path class="st0" d="M345.1,303.4c-0.1,0-0.2,0-0.3,0c-3.3-1.1-6.1-3.5-7.7-6.8c-0.2-0.5,0-1.1,0.5-1.3c0.5-0.2,1.1,0,1.3,0.5
					c1.4,2.8,3.8,4.8,6.6,5.7c0.5,0.2,0.8,0.7,0.6,1.3C345.9,303.2,345.5,303.4,345.1,303.4z"/>
			</g>
			<g>
				<path class="st0" d="M405.1,251.4c-0.6,0-1-0.4-1-1v-34.8c0-0.6,0.4-1,1-1s1,0.4,1,1v34.8C406.1,251,405.7,251.4,405.1,251.4z"
					/>
				<path class="st0" d="M398.7,228.5c-0.4,0-0.8-0.3-1-0.7c-0.2-0.5,0.1-1.1,0.6-1.3c2.5-0.8,4.6-2.7,5.9-5.1
					c0.2-0.5,0.8-0.7,1.3-0.5c0.5,0.2,0.7,0.8,0.5,1.3c-1.5,2.9-4,5.2-7,6.2C398.9,228.5,398.8,228.5,398.7,228.5z"/>
				<path class="st0" d="M398,234.5c-0.4,0-0.8-0.3-1-0.7c-0.2-0.5,0.1-1.1,0.6-1.3c2.8-0.9,5.2-3,6.6-5.7c0.2-0.5,0.8-0.7,1.3-0.5
					c0.5,0.2,0.7,0.8,0.5,1.3c-1.6,3.2-4.4,5.7-7.7,6.8C398.2,234.4,398.1,234.5,398,234.5z"/>
				<path class="st0" d="M398,244.9c-0.4,0-0.8-0.3-1-0.7c-0.2-0.5,0.1-1.1,0.6-1.3c2.8-0.9,5.2-3,6.6-5.7c0.2-0.5,0.8-0.7,1.3-0.5
					c0.5,0.2,0.7,0.8,0.5,1.3c-1.6,3.2-4.4,5.7-7.7,6.8C398.2,244.9,398.1,244.9,398,244.9z"/>
				<path class="st0" d="M411.4,228.5c-0.1,0-0.2,0-0.3,0c-3-1-5.6-3.2-7-6.2c-0.2-0.5,0-1.1,0.5-1.3c0.5-0.2,1.1,0,1.3,0.5
					c1.2,2.5,3.4,4.3,5.9,5.1c0.5,0.2,0.8,0.7,0.6,1.3C412.2,228.3,411.8,228.5,411.4,228.5z"/>
				<path class="st0" d="M398.7,222.5c-0.4,0-0.8-0.3-1-0.7c-0.2-0.5,0.1-1.1,0.6-1.3c2.5-0.8,4.6-2.7,5.9-5.1
					c0.2-0.5,0.8-0.7,1.3-0.5c0.5,0.2,0.7,0.8,0.5,1.3c-1.5,2.9-4,5.2-7,6.2C398.9,222.5,398.8,222.5,398.7,222.5z"/>
				<path class="st0" d="M411.4,222.5c-0.1,0-0.2,0-0.3,0c-3-1-5.6-3.2-7-6.2c-0.2-0.5,0-1.1,0.5-1.3s1.1,0,1.3,0.5
					c1.2,2.5,3.4,4.3,5.9,5.1c0.5,0.2,0.8,0.7,0.6,1.3C412.2,222.3,411.8,222.5,411.4,222.5z"/>
				<path class="st0" d="M395.8,240.6c-0.5,0-0.9-0.3-1-0.8c-0.1-0.5,0.2-1.1,0.7-1.2c4.4-1.1,7.4-4.2,8.6-6.6
					c0.2-0.5,0.8-0.7,1.3-0.5c0.5,0.2,0.7,0.8,0.5,1.3c-1.4,2.8-4.8,6.5-9.9,7.7C395.9,240.5,395.8,240.6,395.8,240.6z"/>
				<path class="st0" d="M414.1,240.6c-0.1,0-0.2,0-0.2,0c-5.1-1.2-8.5-4.9-9.9-7.7c-0.2-0.5,0-1.1,0.5-1.3c0.5-0.2,1.1,0,1.3,0.5
					c1.2,2.4,4.2,5.6,8.6,6.6c0.5,0.1,0.9,0.7,0.7,1.2C415,240.2,414.5,240.6,414.1,240.6z"/>
				<path class="st0" d="M412.1,234.5c-0.1,0-0.2,0-0.3,0c-3.3-1.1-6.1-3.5-7.7-6.8c-0.2-0.5,0-1.1,0.5-1.3c0.5-0.2,1.1,0,1.3,0.5
					c1.4,2.8,3.8,4.8,6.6,5.7c0.5,0.2,0.8,0.7,0.6,1.3C412.9,234.2,412.5,234.5,412.1,234.5z"/>
				<path class="st0" d="M412.1,244.9c-0.1,0-0.2,0-0.3,0c-3.3-1.1-6.1-3.5-7.7-6.8c-0.2-0.5,0-1.1,0.5-1.3c0.5-0.2,1.1,0,1.3,0.5
					c1.4,2.8,3.8,4.8,6.6,5.7c0.5,0.2,0.8,0.7,0.6,1.3C412.9,244.6,412.5,244.9,412.1,244.9z"/>
			</g>
			<g>
				<path class="st0" d="M243.1,155.7c-0.4,0-0.8-0.3-1-0.7c-0.2-0.5,0.1-1.1,0.7-1.2c2.7-0.8,5-2.7,6.3-5.1
					c0.3-0.5,0.9-0.7,1.4-0.4c0.5,0.3,0.7,0.9,0.4,1.4c-1.6,2.9-4.3,5.1-7.5,6.1C243.3,155.7,243.2,155.7,243.1,155.7z"/>
				<path class="st0" d="M243.1,161.5c-0.4,0-0.8-0.3-1-0.7c-0.2-0.5,0.1-1.1,0.7-1.2c2.7-0.8,5-2.7,6.3-5.1
					c0.3-0.5,0.9-0.7,1.4-0.4c0.5,0.3,0.7,0.9,0.4,1.4c-1.6,2.9-4.3,5.1-7.5,6.1C243.3,161.5,243.2,161.5,243.1,161.5z"/>
				<path class="st0" d="M243.1,167.3c-0.4,0-0.8-0.3-1-0.7c-0.2-0.5,0.1-1.1,0.7-1.2c2.7-0.8,5-2.7,6.3-5.1
					c0.3-0.5,0.9-0.7,1.4-0.4c0.5,0.3,0.7,0.9,0.4,1.4c-1.6,2.9-4.3,5.1-7.5,6.1C243.3,167.2,243.2,167.3,243.1,167.3z"/>
				<path class="st0" d="M256.7,155.7c-0.1,0-0.2,0-0.3,0c-3.2-1-5.9-3.2-7.5-6.1c-0.3-0.5-0.1-1.1,0.4-1.4c0.5-0.3,1.1-0.1,1.4,0.4
					c1.3,2.4,3.6,4.3,6.3,5.1c0.5,0.2,0.8,0.7,0.7,1.2C257.5,155.4,257.1,155.7,256.7,155.7z"/>
				<path class="st0" d="M256.7,161.5c-0.1,0-0.2,0-0.3,0c-3.2-1-5.9-3.2-7.5-6.1c-0.3-0.5-0.1-1.1,0.4-1.4c0.5-0.3,1.1-0.1,1.4,0.4
					c1.3,2.4,3.6,4.3,6.3,5.1c0.5,0.2,0.8,0.7,0.7,1.2C257.5,161.2,257.1,161.5,256.7,161.5z"/>
				<path class="st0" d="M256.7,167.3c-0.1,0-0.2,0-0.3,0c-3.2-1-5.9-3.2-7.5-6.1c-0.3-0.5-0.1-1.1,0.4-1.4c0.5-0.3,1.1-0.1,1.4,0.4
					c1.3,2.4,3.6,4.3,6.3,5.1c0.5,0.2,0.8,0.7,0.7,1.2C257.5,167,257.1,167.3,256.7,167.3z"/>
				<path class="st0" d="M249.9,169.4c-0.6,0-1-0.4-1-1v-18.5c0-0.6,0.4-1,1-1s1,0.4,1,1v18.5C250.9,168.9,250.4,169.4,249.9,169.4z
					"/>
			</g>
			<g>
				<path class="st0" d="M306.1,188.3c-0.4,0-0.8-0.3-1-0.7c-0.2-0.5,0.1-1.1,0.7-1.2c2.7-0.8,5-2.7,6.3-5.1
					c0.3-0.5,0.9-0.7,1.4-0.4c0.5,0.3,0.7,0.9,0.4,1.4c-1.6,2.9-4.3,5.1-7.5,6.1C306.3,188.3,306.2,188.3,306.1,188.3z"/>
				<path class="st0" d="M306.1,194c-0.4,0-0.8-0.3-1-0.7c-0.2-0.5,0.1-1.1,0.7-1.2c2.7-0.8,5-2.7,6.3-5.1c0.3-0.5,0.9-0.7,1.4-0.4
					c0.5,0.3,0.7,0.9,0.4,1.4c-1.6,2.9-4.3,5.1-7.5,6.1C306.3,194,306.2,194,306.1,194z"/>
				<path class="st0" d="M306.1,199.8c-0.4,0-0.8-0.3-1-0.7c-0.2-0.5,0.1-1.1,0.7-1.2c2.7-0.8,5-2.7,6.3-5.1
					c0.3-0.5,0.9-0.7,1.4-0.4c0.5,0.3,0.7,0.9,0.4,1.4c-1.6,2.9-4.3,5.1-7.5,6.1C306.3,199.8,306.2,199.8,306.1,199.8z"/>
				<path class="st0" d="M319.7,188.3c-0.1,0-0.2,0-0.3,0c-3.2-1-5.9-3.2-7.5-6.1c-0.3-0.5-0.1-1.1,0.4-1.4c0.5-0.3,1.1-0.1,1.4,0.4
					c1.3,2.4,3.6,4.3,6.3,5.1c0.5,0.2,0.8,0.7,0.7,1.2C320.5,188,320.1,188.3,319.7,188.3z"/>
				<path class="st0" d="M319.7,194c-0.1,0-0.2,0-0.3,0c-3.2-1-5.9-3.2-7.5-6.1c-0.3-0.5-0.1-1.1,0.4-1.4c0.5-0.3,1.1-0.1,1.4,0.4
					c1.3,2.4,3.6,4.3,6.3,5.1c0.5,0.2,0.8,0.7,0.7,1.2C320.5,193.8,320.1,194,319.7,194z"/>
				<path class="st0" d="M319.7,199.8c-0.1,0-0.2,0-0.3,0c-3.2-1-5.9-3.2-7.5-6.1c-0.3-0.5-0.1-1.1,0.4-1.4c0.5-0.3,1.1-0.1,1.4,0.4
					c1.3,2.4,3.6,4.3,6.3,5.1c0.5,0.2,0.8,0.7,0.7,1.2C320.5,199.5,320.1,199.8,319.7,199.8z"/>
				<path class="st0" d="M312.8,201.9c-0.6,0-1-0.4-1-1v-18.5c0-0.6,0.4-1,1-1s1,0.4,1,1v18.5C313.8,201.5,313.4,201.9,312.8,201.9z
					"/>
			</g>
			<g>
				<path class="st0" d="M359.6,192.6c-0.4,0-0.8-0.3-1-0.7c-0.2-0.5,0.1-1.1,0.7-1.2c2.7-0.8,5-2.7,6.3-5.1
					c0.3-0.5,0.9-0.7,1.4-0.4c0.5,0.3,0.7,0.9,0.4,1.4c-1.6,2.9-4.3,5.1-7.5,6.1C359.8,192.6,359.7,192.6,359.6,192.6z"/>
				<path class="st0" d="M359.6,198.4c-0.4,0-0.8-0.3-1-0.7c-0.2-0.5,0.1-1.1,0.7-1.2c2.7-0.8,5-2.7,6.3-5.1
					c0.3-0.5,0.9-0.7,1.4-0.4c0.5,0.3,0.7,0.9,0.4,1.4c-1.6,2.9-4.3,5.1-7.5,6.1C359.8,198.4,359.7,198.4,359.6,198.4z"/>
				<path class="st0" d="M373.2,192.6c-0.1,0-0.2,0-0.3,0c-3.2-1-5.9-3.2-7.5-6.1c-0.3-0.5-0.1-1.1,0.4-1.4c0.5-0.3,1.1-0.1,1.4,0.4
					c1.3,2.4,3.6,4.3,6.3,5.1c0.5,0.2,0.8,0.7,0.7,1.2C374,192.3,373.6,192.6,373.2,192.6z"/>
				<path class="st0" d="M373.2,198.4c-0.1,0-0.2,0-0.3,0c-3.2-1-5.9-3.2-7.5-6.1c-0.3-0.5-0.1-1.1,0.4-1.4c0.5-0.3,1.1-0.1,1.4,0.4
					c1.3,2.4,3.6,4.3,6.3,5.1c0.5,0.2,0.8,0.7,0.7,1.2C374,198.1,373.6,198.4,373.2,198.4z"/>
				<path class="st0" d="M366.3,205.2c-0.6,0-1-0.4-1-1v-17.4c0-0.6,0.4-1,1-1s1,0.4,1,1v17.4C367.3,204.8,366.9,205.2,366.3,205.2z
					"/>
			</g>
			<g>
				<path class="st0" d="M284.8,194.1c-0.4,0-0.8-0.3-1-0.7c-0.2-0.5,0.1-1.1,0.7-1.2c2.7-0.8,5-2.7,6.3-5.1
					c0.3-0.5,0.9-0.7,1.4-0.4c0.5,0.3,0.7,0.9,0.4,1.4c-1.6,2.9-4.3,5.1-7.5,6.1C285,194.1,284.9,194.1,284.8,194.1z"/>
				<path class="st0" d="M284.8,199.9c-0.4,0-0.8-0.3-1-0.7c-0.2-0.5,0.1-1.1,0.7-1.2c2.7-0.8,5-2.7,6.3-5.1
					c0.3-0.5,0.9-0.7,1.4-0.4c0.5,0.3,0.7,0.9,0.4,1.4c-1.6,2.9-4.3,5.1-7.5,6.1C285,199.9,284.9,199.9,284.8,199.9z"/>
				<path class="st0" d="M298.3,194.1c-0.1,0-0.2,0-0.3,0c-3.2-1-5.9-3.2-7.5-6.1c-0.3-0.5-0.1-1.1,0.4-1.4c0.5-0.3,1.1-0.1,1.4,0.4
					c1.3,2.4,3.6,4.3,6.3,5.1c0.5,0.2,0.8,0.7,0.7,1.2C299.2,193.8,298.8,194.1,298.3,194.1z"/>
				<path class="st0" d="M298.3,199.9c-0.1,0-0.2,0-0.3,0c-3.2-1-5.9-3.2-7.5-6.1c-0.3-0.5-0.1-1.1,0.4-1.4c0.5-0.3,1.1-0.1,1.4,0.4
					c1.3,2.4,3.6,4.3,6.3,5.1c0.5,0.2,0.8,0.7,0.7,1.2C299.2,199.6,298.8,199.9,298.3,199.9z"/>
				<path class="st0" d="M291.5,203.7c-0.6,0-1-0.4-1-1v-14.4c0-0.6,0.4-1,1-1s1,0.4,1,1v14.4C292.5,203.2,292.1,203.7,291.5,203.7z
					"/>
			</g>
		</g>
		<g>
			<g>
				<path class="st0" d="M12.1,192.6h-0.7c-0.6,0-1-0.4-1-1s0.4-1,1-1h0.7c0.6,0,1,0.4,1,1S12.6,192.6,12.1,192.6z"/>
				<path class="st0" d="M6.1,192.6H4.4c-0.6,0-1-0.4-1-1s0.4-1,1-1h1.7c0.6,0,1,0.4,1,1S6.7,192.6,6.1,192.6z"/>
			</g>
			<g>
				<path class="st0" d="M43.5,186H24.2c-0.6,0-1-0.4-1-1s0.4-1,1-1h19.2c0.6,0,1,0.4,1,1S44,186,43.5,186z"/>
				<path class="st0" d="M19,186h-1.7c-0.6,0-1-0.4-1-1s0.4-1,1-1H19c0.6,0,1,0.4,1,1S19.6,186,19,186z"/>
				<path class="st0" d="M11.1,186H3.3c-0.6,0-1-0.4-1-1s0.4-1,1-1h7.9c0.6,0,1,0.4,1,1S11.7,186,11.1,186z"/>
			</g>
			<path class="st0" d="M38.6,138.5H23.1c-0.6,0-1-0.4-1-1s0.4-1,1-1h15.5c0.6,0,1,0.4,1,1S39.2,138.5,38.6,138.5z"/>
			<path class="st0" d="M32.6,143.5H1c-0.6,0-1-0.4-1-1s0.4-1,1-1h31.6c0.6,0,1,0.4,1,1S33.1,143.5,32.6,143.5z"/>
			<path class="st0" d="M17,138.5h-1.5c-0.6,0-1-0.4-1-1s0.4-1,1-1H17c0.6,0,1,0.4,1,1S17.5,138.5,17,138.5z"/>
			<path class="st0" d="M126.9,185.3c-0.4,0-0.8-0.3-0.9-0.7c-0.1-0.4,0-0.9,0.3-1.1l10.6-8.3l6.2-13.1c0-0.1,0.1-0.1,0.1-0.2v0l0,0
				c0,0,0,0,0,0c0,0,0,0,0,0c0,0,0,0,0,0c0.2-0.2,0.4-0.3,0.6-0.3c0,0,0,0,0,0l0,0c0,0,0.1,0,0.1,0c0,0,0,0,0,0
				c0.2,0,0.4,0.1,0.6,0.2l11.8,8.2c0.1,0.1,0.1,0.1,0.2,0.2l6.9,8.7c0.3,0.4,0.3,1.1-0.2,1.4c-0.4,0.3-1.1,0.3-1.4-0.2l-6.8-8.6
				l-10-7l0.9,11.8c0,0.3-0.1,0.5-0.2,0.7l-6,7.5c-0.2,0.2-0.5,0.4-0.8,0.4L126.9,185.3C126.9,185.3,126.9,185.3,126.9,185.3z
				 M143.3,166.5l-4.7,9.9c-0.1,0.1-0.2,0.3-0.3,0.4l-8.4,6.5l8.6-0.2l5.5-6.8L143.3,166.5z"/>
			<g>
				<path class="st0" d="M450.8,89.4h-3c-0.6,0-1-0.4-1-1s0.4-1,1-1h3c0.6,0,1,0.4,1,1S451.3,89.4,450.8,89.4z"/>
			</g>
			<g>
				<path class="st0" d="M442.3,89.4h-4.7c-0.6,0-1-0.4-1-1s0.4-1,1-1h4.7c0.6,0,1,0.4,1,1S442.9,89.4,442.3,89.4z"/>
			</g>
			<path class="st0" d="M471.6,113.2h-23.3c-0.6,0-1-0.4-1-1s0.4-1,1-1h23.3c0.6,0,1,0.4,1,1S472.1,113.2,471.6,113.2z"/>
			<path class="st0" d="M475.4,118.1h-9.9c-0.6,0-1-0.4-1-1s0.4-1,1-1h9.9c0.6,0,1,0.4,1,1S476,118.1,475.4,118.1z"/>
			<path class="st0" d="M356.4,139.6h-5.7c-0.6,0-1-0.4-1-1s0.4-1,1-1h5.7c0.6,0,1,0.4,1,1S356.9,139.6,356.4,139.6z"/>
			<path class="st0" d="M358.5,232h-1c-0.6,0-1-0.4-1-1s0.4-1,1-1h1c0.6,0,1,0.4,1,1S359.1,232,358.5,232z"/>
			<g>
				<path class="st0" d="M127.9,65.4h-16.5c-0.6,0-1-0.4-1-1s0.4-1,1-1h16.5c0.6,0,1,0.4,1,1S128.5,65.4,127.9,65.4z"/>
			</g>
			<g>
				<path class="st0" d="M317.6,310h-3.1c-0.6,0-1-0.4-1-1s0.4-1,1-1h3.1c0.6,0,1,0.4,1,1S318.1,310,317.6,310z"/>
			</g>
			<g>
				<path class="st0" d="M136.9,65.4h-3c-0.6,0-1-0.4-1-1s0.4-1,1-1h3c0.6,0,1,0.4,1,1S137.4,65.4,136.9,65.4z"/>
			</g>
			<g>
				<path class="st0" d="M167.4,145.3h-6.3c-0.6,0-1-0.4-1-1s0.4-1,1-1h6.3c0.6,0,1,0.4,1,1S168,145.3,167.4,145.3z"/>
			</g>
			<g>
				<path class="st0" d="M153.8,145.3h-6.1c-0.6,0-1-0.4-1-1s0.4-1,1-1h6.1c0.6,0,1,0.4,1,1S154.3,145.3,153.8,145.3z"/>
			</g>
			<g>
				<path class="st0" d="M170.9,139.6h-1.1c-0.6,0-1-0.4-1-1s0.4-1,1-1h1.1c0.6,0,1,0.4,1,1S171.5,139.6,170.9,139.6z"/>
			</g>
			<g>
				<path class="st0" d="M164.3,139.4h-1.1c-0.6,0-1-0.4-1-1s0.4-1,1-1h1.1c0.6,0,1,0.4,1,1S164.8,139.4,164.3,139.4z"/>
			</g>
			<g>
				<path class="st0" d="M154.6,139.6h-15.5c-0.6,0-1-0.4-1-1s0.4-1,1-1h15.5c0.6,0,1,0.4,1,1S155.2,139.6,154.6,139.6z"/>
			</g>
			<g>
				<path class="st0" d="M383.7,193h-3c-0.6,0-1-0.4-1-1s0.4-1,1-1h3c0.6,0,1,0.4,1,1S384.3,193,383.7,193z"/>
			</g>
			<path class="st0" d="M127.2,59.2h-4.3c-0.6,0-1-0.4-1-1s0.4-1,1-1h4.3c0.6,0,1,0.4,1,1S127.8,59.2,127.2,59.2z"/>
			<path class="st0" d="M137.2,59.2h-3.2c-0.6,0-1-0.4-1-1s0.4-1,1-1h3.2c0.6,0,1,0.4,1,1S137.8,59.2,137.2,59.2z"/>
			<path class="st0" d="M364.7,220.4h-5.1c-0.6,0-1-0.4-1-1s0.4-1,1-1h5.1c0.6,0,1,0.4,1,1S365.2,220.4,364.7,220.4z"/>
			<path class="st0" d="M205.9,109.5h-5.1c-0.6,0-1-0.4-1-1s0.4-1,1-1h5.1c0.6,0,1,0.4,1,1S206.5,109.5,205.9,109.5z"/>
			<path class="st0" d="M180.8,174.3c-0.2,0-0.4-0.1-0.6-0.2L73.6,86.7L61.3,97.9c-0.4,0.4-1,0.3-1.4-0.1c-0.4-0.4-0.3-1,0.1-1.4
				l12.9-11.8c0.4-0.3,0.9-0.4,1.3,0l107.3,87.9c0.4,0.4,0.5,1,0.1,1.4C181.4,174.1,181.1,174.3,180.8,174.3z"/>
			<path class="st0" d="M63.4,104.1h-5.2c-0.6,0-1-0.4-1-1s0.4-1,1-1h5.2c0.6,0,1,0.4,1,1S64,104.1,63.4,104.1z"/>
			<path class="st0" d="M44,118.5h-3.1c-0.6,0-1-0.4-1-1s0.4-1,1-1H44c0.6,0,1,0.4,1,1S44.6,118.5,44,118.5z"/>
			<path class="st0" d="M58.1,121.8h-8.3c-0.6,0-1-0.4-1-1s0.4-1,1-1h8.3c0.6,0,1,0.4,1,1S58.6,121.8,58.1,121.8z"/>
			<path class="st0" d="M52.7,127.7h-4.5c-0.6,0-1-0.4-1-1s0.4-1,1-1h4.5c0.6,0,1,0.4,1,1S53.3,127.7,52.7,127.7z"/>
			<path class="st0" d="M34.1,142.4c-0.3,0-0.6-0.2-0.8-0.4c-0.3-0.4-0.2-0.9,0.1-1.3l13.8-14.5l5.2-17.4c0-0.1,0.1-0.2,0.1-0.2
				l7.3-11.8c0.3-0.5,0.9-0.6,1.4-0.3c0.5,0.3,0.6,0.9,0.3,1.4l-7.2,11.7L49,126.9c0,0.2-0.1,0.3-0.2,0.4l-10.7,11.2l27.6-11.7
				l-1-15.2c0-0.3,0.1-0.5,0.2-0.7L77.1,97l-4.8-11.4c-0.2-0.5,0-1.1,0.5-1.3c0.5-0.2,1.1,0,1.3,0.5l5.1,12c0.1,0.4,0.1,0.8-0.2,1
				l-12.3,14l1,15.5c0,0.4-0.2,0.8-0.6,1l-32.7,13.9C34.3,142.3,34.2,142.4,34.1,142.4z"/>
			<path class="st0" d="M164.8,160.4c-0.4,0-0.7-0.2-0.9-0.5c-0.3-0.5-0.1-1.1,0.4-1.4l38.4-21.4l20.4-20.3c0.4-0.4,0.9-0.4,1.3-0.1
				l14.9,11.3l18.4,4.5c0.2,0,0.3,0.1,0.5,0.3l21.2,21.4c0.4,0.4,0.4,1,0,1.4c-0.4,0.4-1,0.4-1.4,0l-21-21.2l-18.3-4.4
				c-0.1,0-0.3-0.1-0.4-0.2L224,118.8l-19.9,19.8c-0.1,0.1-0.1,0.1-0.2,0.2l-38.6,21.4C165.2,160.3,165,160.4,164.8,160.4z"/>
			<path class="st0" d="M180.4,151.4c-0.5,0-0.9-0.4-1-0.9c0-0.6,0.4-1,0.9-1.1l26.5-2.4l10.5-9c0.1-0.1,0.2-0.1,0.3-0.2l11.4-4.9
				l-7-14.3c-0.2-0.5,0-1.1,0.5-1.3c0.5-0.2,1.1,0,1.3,0.5l7.5,15.2c0.1,0.2,0.1,0.5,0,0.8c-0.1,0.3-0.3,0.5-0.5,0.6l-12.3,5.3
				l-10.6,9.1c-0.2,0.1-0.4,0.2-0.6,0.2L180.4,151.4C180.5,151.4,180.4,151.4,180.4,151.4z"/>
			<path class="st0" d="M12.7,172.6c-0.1,0-0.2,0-0.3,0c-0.5-0.1-0.8-0.7-0.7-1.2l3.1-11.3c0-0.2,0.1-0.3,0.2-0.4l18.3-18.9
				c0.4-0.4,1-0.4,1.4,0c0.4,0.4,0.4,1,0,1.4l-18.1,18.7l-3,11C13.5,172.3,13.1,172.6,12.7,172.6z"/>
			<path class="st0" d="M312.9,211.5h-4.1c-0.6,0-1-0.4-1-1s0.4-1,1-1h4.1c0.6,0,1,0.4,1,1S313.4,211.5,312.9,211.5z"/>
			<path class="st0" d="M314.9,207.4h-1c-0.6,0-1-0.4-1-1s0.4-1,1-1h1c0.6,0,1,0.4,1,1S315.5,207.4,314.9,207.4z"/>
			<path class="st0" d="M105.8,162.2h-1c-0.6,0-1-0.4-1-1s0.4-1,1-1h1c0.6,0,1,0.4,1,1S106.4,162.2,105.8,162.2z"/>
			<path class="st0" d="M174,222.5h-1c-0.6,0-1-0.4-1-1s0.4-1,1-1h1c0.6,0,1,0.4,1,1S174.5,222.5,174,222.5z"/>
			<path class="st0" d="M78.9,262.5h-1c-0.6,0-1-0.4-1-1s0.4-1,1-1h1c0.6,0,1,0.4,1,1S79.5,262.5,78.9,262.5z"/>
			<path class="st0" d="M278.2,222.6h-1c-0.6,0-1-0.4-1-1s0.4-1,1-1h1c0.6,0,1,0.4,1,1S278.8,222.6,278.2,222.6z"/>
			<path class="st0" d="M113.5,138.7h-4.1c-0.6,0-1-0.4-1-1s0.4-1,1-1h4.1c0.6,0,1,0.4,1,1S114,138.7,113.5,138.7z"/>
			<path class="st0" d="M115.5,124.4h-1c-0.6,0-1-0.4-1-1s0.4-1,1-1h1c0.6,0,1,0.4,1,1S116.1,124.4,115.5,124.4z"/>
			<path class="st0" d="M156.4,174.3h-1.5c-0.6,0-1-0.4-1-1c0-0.6,0.4-1,1-1h1.5c0.6,0,1,0.4,1,1C157.4,173.8,157,174.3,156.4,174.3
				z"/>
			<path class="st0" d="M218.6,208.2h-3.5c-0.6,0-1-0.4-1-1s0.4-1,1-1h3.5c0.6,0,1,0.4,1,1S219.2,208.2,218.6,208.2z"/>
			<path class="st0" d="M62.1,243.8c-0.1,0-0.1,0-0.2,0l-1.5-0.3c-0.5-0.1-0.9-0.6-0.8-1.2c0.1-0.5,0.6-0.9,1.2-0.8l1.5,0.3
				c0.5,0.1,0.9,0.6,0.8,1.2C63,243.4,62.6,243.8,62.1,243.8z"/>
			<path class="st0" d="M345.6,215.2h-4.2c-0.6,0-1-0.4-1-1s0.4-1,1-1h4.2c0.6,0,1,0.4,1,1S346.2,215.2,345.6,215.2z"/>
			<path class="st0" d="M341,227h-3.3c-0.6,0-1-0.4-1-1s0.4-1,1-1h3.3c0.6,0,1,0.4,1,1S341.6,227,341,227z"/>
			<path class="st0" d="M339.4,232.9h-9.8c-0.6,0-1-0.4-1-1s0.4-1,1-1h9.8c0.6,0,1,0.4,1,1S339.9,232.9,339.4,232.9z"/>
			<path class="st0" d="M37.6,171.5h-1.9c-0.6,0-1-0.4-1-1s0.4-1,1-1h1.9c0.6,0,1,0.4,1,1S38.1,171.5,37.6,171.5z"/>
			<path class="st0" d="M427,128.6h-18.1c-0.6,0-1-0.4-1-1s0.4-1,1-1H427c0.6,0,1,0.4,1,1S427.5,128.6,427,128.6z"/>
			<path class="st0" d="M34.4,218.5h-3.9c-0.6,0-1-0.4-1-1s0.4-1,1-1h3.9c0.6,0,1,0.4,1,1S34.9,218.5,34.4,218.5z"/>
			<path class="st0" d="M29.8,224.3H26c-0.6,0-1-0.4-1-1s0.4-1,1-1h3.7c0.6,0,1,0.4,1,1S30.3,224.3,29.8,224.3z"/>
			<path class="st0" d="M173.2,251.9h-3.9c-0.6,0-1-0.4-1-1s0.4-1,1-1h3.9c0.6,0,1,0.4,1,1S173.8,251.9,173.2,251.9z"/>
			<path class="st0" d="M422.7,123.6h-3.8c-0.6,0-1-0.4-1-1s0.4-1,1-1h3.8c0.6,0,1,0.4,1,1S423.3,123.6,422.7,123.6z"/>
			<path class="st0" d="M434.4,128.6h-3.7c-0.6,0-1-0.4-1-1s0.4-1,1-1h3.7c0.6,0,1,0.4,1,1S435,128.6,434.4,128.6z"/>
			<path class="st0" d="M152.5,65.4h-7.4c-0.6,0-1-0.4-1-1s0.4-1,1-1h7.4c0.6,0,1,0.4,1,1S153.1,65.4,152.5,65.4z"/>
			<path class="st0" d="M126.6,236.2h-1.7c-0.6,0-1-0.4-1-1s0.4-1,1-1h1.7c0.6,0,1,0.4,1,1S127.1,236.2,126.6,236.2z"/>
			<path class="st0" d="M77.7,270.1h-2.2c-0.6,0-1-0.4-1-1s0.4-1,1-1h2.2c0.6,0,1,0.4,1,1S78.2,270.1,77.7,270.1z"/>
			<path class="st0" d="M189,169.6h-2.5c-0.6,0-1-0.4-1-1s0.4-1,1-1h2.5c0.6,0,1,0.4,1,1S189.6,169.6,189,169.6z"/>
			<path class="st0" d="M190.4,174.5h-9.3c-0.6,0-1-0.4-1-1c0-0.6,0.4-1,1-1h9.3c0.6,0,1,0.4,1,1C191.4,174,190.9,174.5,190.4,174.5
				z"/>
			<path class="st0" d="M187.6,181.4h-1.8c-0.6,0-1-0.4-1-1s0.4-1,1-1h1.8c0.6,0,1,0.4,1,1S188.1,181.4,187.6,181.4z"/>
			<path class="st0" d="M182.5,181.4H178c-0.6,0-1-0.4-1-1s0.4-1,1-1h4.5c0.6,0,1,0.4,1,1S183.1,181.4,182.5,181.4z"/>
			<path class="st0" d="M210.5,145.2h-7.4c-0.6,0-1-0.4-1-1s0.4-1,1-1h7.4c0.6,0,1,0.4,1,1S211.1,145.2,210.5,145.2z"/>
			<path class="st0" d="M59.9,217.6c-0.4,0-0.7-0.2-0.9-0.6c-0.2-0.5,0-1.1,0.5-1.3l19.7-9.3c0.1-0.1,0.2-0.1,0.4-0.1l8.3-0.6
				c0.6,0,1,0.4,1.1,0.9s-0.4,1-0.9,1.1l-8.1,0.6l-19.6,9.3C60.2,217.6,60,217.6,59.9,217.6z"/>
			<path class="st0" d="M180.3,209.1c-0.6,0-1-0.4-1-1s0.4-1,1-1h5.5l6-0.1c0.6,0,1,0.4,1,1s-0.4,1-1,1l-6,0.1H180.3z"/>
			<path class="st0" d="M122.9,336.2c-0.3,0-0.5-0.1-0.7-0.3c-16.5-18.2-25-29.9-29.6-40.5c-5.2-12.3-4.8-23.4,1.3-34.9
				c11.7-22.2,54.7-29.4,86-34.6c18-3,35.1-5.9,36-10.4c0.2-1.1-0.6-3.1-5.7-6.4l-12.8,0.2c0,0,0,0,0,0c-0.5,0-1-0.4-1-1
				c0-0.6,0.4-1,1-1l13.1-0.2c0.2,0,0.4,0,0.5,0.2c5.2,3.3,7.3,6,6.8,8.6c-1.1,5.6-14.3,8.1-37.6,12c-31,5.2-73.4,12.3-84.6,33.6
				c-12,22.8-0.5,41.7,28,73.2c0.4,0.4,0.3,1-0.1,1.4C123.4,336.1,123.2,336.2,122.9,336.2z"/>
			<path class="st0" d="M134.2,348.4c-0.3,0-0.5-0.1-0.7-0.3c-3.1-3.3-5.8-6.2-8.3-8.9c-0.4-0.4-0.3-1,0.1-1.4
				c0.4-0.4,1-0.3,1.4,0.1c2.4,2.7,5.1,5.6,8.3,8.9c0.4,0.4,0.4,1,0,1.4C134.7,348.3,134.4,348.4,134.2,348.4z"/>
			<path class="st0" d="M155.8,239c-0.4,0-0.8-0.3-0.9-0.7c-0.2-0.5,0.1-1.1,0.6-1.3c2.3-0.8,4.6-1.5,7-2.2c0.5-0.2,1.1,0.1,1.2,0.7
				c0.2,0.5-0.1,1.1-0.7,1.2c-2.4,0.7-4.7,1.4-7,2.2C156,239,155.9,239,155.8,239z"/>
			<path class="st0" d="M128,252.8c-0.3,0-0.5-0.1-0.7-0.3c-0.4-0.4-0.4-1,0-1.4c4.4-4.2,12.6-8.5,24.2-12.6
				c0.5-0.2,1.1,0.1,1.3,0.6c0.2,0.5-0.1,1.1-0.6,1.3c-11.2,4-19.3,8.2-23.5,12.2C128.5,252.7,128.3,252.8,128,252.8z"/>
			<path class="st0" d="M126.8,273.1c-0.4,0-0.7-0.2-0.9-0.5c-1.3-2.5-2.2-5-2.7-7.3c-0.1-0.5,0.2-1.1,0.8-1.2
				c0.5-0.1,1.1,0.2,1.2,0.8c0.4,2.1,1.3,4.4,2.5,6.8c0.3,0.5,0.1,1.1-0.4,1.3C127.1,273,126.9,273.1,126.8,273.1z"/>
			<path class="st0" d="M129.7,277.9c-0.3,0-0.6-0.1-0.8-0.4c-0.3-0.5-0.6-0.9-0.9-1.4c-0.3-0.5-0.2-1.1,0.3-1.4
				c0.5-0.3,1.1-0.2,1.4,0.3c0.3,0.4,0.6,0.9,0.9,1.3c0.3,0.5,0.2,1.1-0.2,1.4C130.1,277.8,129.9,277.9,129.7,277.9z"/>
			<path class="st0" d="M210.5,343.5c-0.2,0-0.4-0.1-0.5-0.2c-0.6-0.4-58.6-37.5-78.8-62.8c-0.3-0.4-0.3-1.1,0.2-1.4
				c0.4-0.3,1.1-0.3,1.4,0.2c20,25.1,77.7,62,78.3,62.4c0.5,0.3,0.6,0.9,0.3,1.4C211.2,343.3,210.9,343.5,210.5,343.5z"/>
			<path class="st0" d="M323.5,333.8c-0.1,0-0.2,0-0.3-0.1c-30.3-10-73.8-25.3-109-41c-41.6-18.6-61.8-33.1-61.6-44.3
				c0.1-7.5,17.2-12,35.3-16.7c16-4.2,34.2-9,35.1-15.2c0.4-2.5-2-5.3-7.2-8.5c-0.5-0.3-0.6-0.9-0.3-1.4s0.9-0.6,1.4-0.3
				c6,3.7,8.6,7.1,8.1,10.5c-1.1,7.6-18.4,12.1-36.6,16.8c-15.8,4.1-33.7,8.8-33.8,14.8c-0.3,24.6,118.3,66.5,169.3,83.4
				c0.5,0.2,0.8,0.7,0.6,1.3C324.3,333.5,323.9,333.8,323.5,333.8z"/>
			<path class="st0" d="M348,341.7c-0.1,0-0.2,0-0.3,0c-6.3-2-12.7-4.1-19-6.1c-0.5-0.2-0.8-0.7-0.6-1.3c0.2-0.5,0.7-0.8,1.3-0.6
				c6.3,2.1,12.7,4.1,19,6.1c0.5,0.2,0.8,0.7,0.7,1.3C348.8,341.4,348.4,341.7,348,341.7z"/>
			<path class="st0" d="M369.6,348.4c-0.1,0-0.2,0-0.3,0c-0.1,0-6-1.8-15.7-4.8c-0.5-0.2-0.8-0.7-0.7-1.3s0.7-0.8,1.3-0.7
				c9.7,3,15.6,4.8,15.7,4.8c0.5,0.2,0.8,0.7,0.7,1.2C370.4,348.1,370,348.4,369.6,348.4z"/>
			<path class="st0" d="M222,215.6"/>
			<path class="st0" d="M320.2,160.1h-1c-0.6,0-1-0.4-1-1s0.4-1,1-1h1c0.6,0,1,0.4,1,1S320.7,160.1,320.2,160.1z"/>
			<g>
				<path class="st0" d="M273.5,188.8h-3.1c-0.6,0-1-0.4-1-1s0.4-1,1-1h3.1c0.6,0,1,0.4,1,1S274.1,188.8,273.5,188.8z"/>
			</g>
			<g>
				<path class="st0" d="M344.4,126.1h-2.9c-0.6,0-1-0.4-1-1s0.4-1,1-1h2.9c0.6,0,1,0.4,1,1S345,126.1,344.4,126.1z"/>
			</g>
			<g>
				<path class="st0" d="M280.5,227.1h-9c-0.6,0-1-0.4-1-1s0.4-1,1-1h9c0.6,0,1,0.4,1,1S281.1,227.1,280.5,227.1z"/>
			</g>
			<path class="st0" d="M364.6,45.8h-8.2c-0.6,0-1-0.4-1-1s0.4-1,1-1h8.2c0.6,0,1,0.4,1,1S365.1,45.8,364.6,45.8z"/>
			<path class="st0" d="M351.8,45.8h-2.4c-0.6,0-1-0.4-1-1s0.4-1,1-1h2.4c0.6,0,1,0.4,1,1S352.4,45.8,351.8,45.8z"/>
			<path class="st0" d="M260.4,108.8h-13.9c-0.6,0-1-0.4-1-1s0.4-1,1-1h13.9c0.6,0,1,0.4,1,1S261,108.8,260.4,108.8z"/>
			<path class="st0" d="M241,108.8h-1.4c-0.6,0-1-0.4-1-1s0.4-1,1-1h1.4c0.6,0,1,0.4,1,1S241.6,108.8,241,108.8z"/>
			<path class="st0" d="M326.3,148.5h-5.1c-0.6,0-1-0.4-1-1s0.4-1,1-1h5.1c0.6,0,1,0.4,1,1S326.9,148.5,326.3,148.5z"/>
			<path class="st0" d="M194.3,213.9h-5.1c-0.6,0-1-0.4-1-1s0.4-1,1-1h5.1c0.6,0,1,0.4,1,1S194.9,213.9,194.3,213.9z"/>
			<path class="st0" d="M252.6,38.7h-5.1c-0.6,0-1-0.4-1-1s0.4-1,1-1h5.1c0.6,0,1,0.4,1,1S253.2,38.7,252.6,38.7z"/>
			<path class="st0" d="M258.2,38.7c-0.3,0-0.5-0.1-0.7-0.3c-0.2-0.2-0.3-0.4-0.3-0.7c0-0.1,0-0.3,0.1-0.4c0.1-0.1,0.1-0.2,0.2-0.3
				c0.2-0.2,0.6-0.3,0.9-0.3c0.1,0,0.1,0,0.2,0.1c0.1,0,0.1,0,0.2,0.1c0,0,0.1,0.1,0.2,0.1c0.1,0.1,0.2,0.2,0.2,0.3s0.1,0.2,0.1,0.4
				c0,0.3-0.1,0.5-0.3,0.7c0,0-0.1,0.1-0.2,0.1s-0.1,0.1-0.2,0.1c-0.1,0-0.1,0.1-0.2,0.1C258.3,38.7,258.2,38.7,258.2,38.7z"/>
			<path class="st0" d="M259.1,207.4"/>
			<g>
				<path class="st0" d="M257.5,134.5c-0.3,0-0.6-0.1-0.8-0.3c-0.4-0.4-0.3-1,0.1-1.4l41.8-36.4c0.1-0.1,0.2-0.1,0.3-0.2l24.4-9.1
					l14.3-17.1c0.2-0.2,0.5-0.4,0.7-0.4c0.3,0,0.6,0.1,0.8,0.3l5.9,6.5l9,5.6l9.4-5.8l24.2-27.4c0.2-0.2,0.5-0.4,0.9-0.3
					c0.3,0,0.6,0.2,0.8,0.5l5.3,9.9l9.9,12.9l9.2-10.9c0.2-0.2,0.5-0.4,0.8-0.4c0,0,0,0,0,0c0.3,0,0.6,0.1,0.8,0.3l43.9,50.7
					c0.4,0.4,0.3,1-0.1,1.4s-1,0.3-1.4-0.1L414.3,63l-9.2,11c-0.2,0.2-0.5,0.4-0.8,0.4c-0.3,0-0.6-0.2-0.8-0.4l-10.7-14
					c0,0-0.1-0.1-0.1-0.1l-4.7-8.7l-23.4,26.4c-0.1,0.1-0.1,0.1-0.2,0.2l-10,6.2c-0.3,0.2-0.7,0.2-1.1,0l-9.6-6
					c-0.1,0-0.2-0.1-0.2-0.2l-5.2-5.7l-13.7,16.4c-0.1,0.1-0.3,0.2-0.4,0.3l-24.5,9.1l-41.7,36.3C258,134.4,257.8,134.5,257.5,134.5
					z"/>
				<path class="st0" d="M267.7,127.5c-0.5,0-0.9-0.3-1-0.8c-0.1-0.5,0.3-1.1,0.8-1.2l31.2-5.5l17.9-20c0.1-0.1,0.1-0.1,0.2-0.2
					l11.5-7.6c0.1,0,0.1-0.1,0.2-0.1l10.1-3.9l-1.1-17.7c0-0.6,0.4-1,0.9-1.1c0.5,0,1,0.4,1.1,0.9l1.1,18.4c0,0.4-0.2,0.8-0.6,1
					L329.3,94l-11.3,7.5l-18,20.1c-0.1,0.2-0.4,0.3-0.6,0.3l-31.5,5.6C267.8,127.5,267.8,127.5,267.7,127.5z"/>
				<path class="st0" d="M406.5,80.1h-4c-0.6,0-1-0.4-1-1s0.4-1,1-1h4c0.6,0,1,0.4,1,1S407,80.1,406.5,80.1z"/>
				<path class="st0" d="M371.9,78.1h-1.8c-0.6,0-1-0.4-1-1s0.4-1,1-1h1.8c0.6,0,1,0.4,1,1S372.5,78.1,371.9,78.1z"/>
				<path class="st0" d="M331.3,84h-2.8c-0.6,0-1-0.4-1-1s0.4-1,1-1h2.8c0.6,0,1,0.4,1,1S331.8,84,331.3,84z"/>
				<path class="st0" d="M402.4,95.8h-6.5c-0.6,0-1-0.4-1-1s0.4-1,1-1h6.5c0.6,0,1,0.4,1,1S402.9,95.8,402.4,95.8z"/>
				<path class="st0" d="M362.8,95.8h-8.3c-0.6,0-1-0.4-1-1s0.4-1,1-1h8.3c0.6,0,1,0.4,1,1S363.3,95.8,362.8,95.8z"/>
				<path class="st0" d="M398.2,101.7h-3.5c-0.6,0-1-0.4-1-1s0.4-1,1-1h3.5c0.6,0,1,0.4,1,1S398.8,101.7,398.2,101.7z"/>
				<path class="st0" d="M302.8,101.7h-7.1c-0.6,0-1-0.4-1-1s0.4-1,1-1h7.1c0.6,0,1,0.4,1,1S303.3,101.7,302.8,101.7z"/>
				<path class="st0" d="M301.3,113.5h-5.1c-0.6,0-1-0.4-1-1s0.4-1,1-1h5.1c0.6,0,1,0.4,1,1S301.9,113.5,301.3,113.5z"/>
				<path class="st0" d="M362.1,106.6c-0.3,0-0.6-0.1-0.8-0.4l-8.6-10.7c-0.1-0.2-0.2-0.4-0.2-0.6V83c0-0.6,0.4-1,1-1s1,0.4,1,1
					v11.4l7.5,9.4l10.4-15.3l1.7-9c0-0.1,0-0.1,0.1-0.2l13-30.4c0.2-0.5,0.8-0.7,1.3-0.5c0.5,0.2,0.7,0.8,0.5,1.3L376,80l-1.7,9.1
					c0,0.1-0.1,0.3-0.2,0.4l-11.3,16.6C362.7,106.4,362.4,106.5,362.1,106.6C362.1,106.6,362.1,106.6,362.1,106.6z"/>
				<path class="st0" d="M383.8,116.4c-0.3,0-0.6-0.1-0.8-0.3c-0.3-0.4-0.3-0.9-0.1-1.3l10.7-14.6l4-17.5c0-0.1,0.1-0.2,0.1-0.3
					l5.7-9.8c0.3-0.5,0.9-0.6,1.4-0.4c0.5,0.3,0.6,0.9,0.4,1.4l-5.6,9.6l-4,17.5c0,0.1-0.1,0.3-0.2,0.4l-8.1,11.1l20.8-11.4
					l-0.8-15.3c0-0.2,0.1-0.5,0.2-0.7l7.6-9.3l-2-14.2c-0.1-0.5,0.3-1.1,0.8-1.1c0.6-0.1,1.1,0.3,1.1,0.8l2.1,14.6
					c0,0.3,0,0.6-0.2,0.8l-7.7,9.4l0.8,15.5c0,0.4-0.2,0.7-0.5,0.9l-25.3,13.9C384.1,116.4,383.9,116.4,383.8,116.4z"/>
			</g>
			<path class="st0" d="M274.5,139.6h-4.1c-0.6,0-1-0.4-1-1s0.4-1,1-1h4.1c0.6,0,1,0.4,1,1S275,139.6,274.5,139.6z"/>
			<path class="st0" d="M276.5,135.5h-1c-0.6,0-1-0.4-1-1s0.4-1,1-1h1c0.6,0,1,0.4,1,1S277.1,135.5,276.5,135.5z"/>
			<path class="st0" d="M347.9,107H347c-0.6,0-1-0.4-1-1s0.4-1,1-1h0.9c0.6,0,1,0.4,1,1S348.5,107,347.9,107z"/>
			<path class="st0" d="M250,177c-0.4,0-0.8-0.2-0.9-0.6c-0.2-0.5,0-1.1,0.5-1.3l30.1-13.1l19.7-24c0-0.1,0.1-0.1,0.2-0.2l15.9-12.1
				c0.3-0.3,0.8-0.3,1.2,0l17.8,12.1c0.1,0,0.1,0.1,0.2,0.1l16.7,17.6l13.1-4.8l20.4-17.9c0.2-0.2,0.5-0.3,0.8-0.2
				c0.3,0,0.6,0.2,0.7,0.5l10.1,17.1l15.8,8.4c0.5,0.3,0.7,0.9,0.4,1.4c-0.3,0.5-0.9,0.7-1.4,0.4l-16.1-8.6
				c-0.2-0.1-0.3-0.2-0.4-0.4l-9.6-16.3l-19.6,17.2c-0.1,0.1-0.2,0.1-0.3,0.2l-13.9,5.1c-0.4,0.1-0.8,0-1.1-0.2l-17-18l-17.1-11.7
				l-15.2,11.6l-19.8,24.1c-0.1,0.1-0.2,0.2-0.4,0.3L250.4,177C250.3,177,250.2,177,250,177z"/>
			<path class="st0" d="M245,177c-0.6,0-1-0.4-1-1c0-0.6,0.4-1,1-1l33.5,0l16.3-11.9c0.4-0.4,2.2-1.4,12.9-6.7l-1-14.5
				c0-0.2,0-0.4,0.1-0.6l8.2-13.6c0.3-0.5,0.9-0.6,1.4-0.3c0.5,0.3,0.6,0.9,0.3,1.4l-8,13.3l1,14.8c0,0.4-0.2,0.8-0.6,1
				c-10.8,5.3-12.7,6.4-13.1,6.7c0,0-0.1,0.1-0.1,0.1l-16.6,12.1c-0.2,0.1-0.4,0.2-0.6,0.2L245,177z"/>
			<path class="st0" d="M347.9,171.6c-0.2,0-0.4-0.1-0.6-0.2c-0.3-0.2-0.5-0.6-0.4-1l3.1-13.9c0.1-0.5,0.6-0.9,1.2-0.8
				c0.5,0.1,0.9,0.7,0.8,1.2l-2.6,11.6l10.8-6.8c0,0,0.1,0,0.1-0.1l14.7-6.9l9-19.7c0.2-0.5,0.8-0.7,1.3-0.5
				c0.5,0.2,0.7,0.8,0.5,1.3l-9.1,20c-0.1,0.2-0.3,0.4-0.5,0.5l-14.9,7l-12.8,8C348.2,171.6,348.1,171.6,347.9,171.6z"/>
			<path class="st0" d="M398.2,210.6c-0.1,0-0.1,0-0.2,0c-44.8-7.9-90.6-9-135.9-3.3c-0.6,0.1-1-0.3-1.1-0.9c-0.1-0.5,0.3-1,0.9-1.1
				c45.6-5.7,91.5-4.5,136.5,3.4c0.5,0.1,0.9,0.6,0.8,1.2C399.1,210.3,398.7,210.6,398.2,210.6z"/>
			<path class="st0" d="M253.6,208.4c-0.5,0-0.9-0.4-1-0.9c-0.1-0.5,0.3-1.1,0.8-1.1c1-0.1,2.1-0.3,3.1-0.4c0.5-0.1,1.1,0.3,1.1,0.9
				s-0.3,1.1-0.9,1.1c-1,0.1-2.1,0.3-3.1,0.4C253.6,208.4,253.6,208.4,253.6,208.4z"/>
			<path class="st0" d="M238.5,210.8c-0.5,0-0.9-0.3-1-0.8c-0.1-0.5,0.3-1.1,0.8-1.2c3.4-0.6,6.8-1.2,10.3-1.7
				c0.5-0.1,1.1,0.3,1.1,0.8s-0.3,1.1-0.8,1.1c-3.4,0.5-6.8,1.1-10.2,1.7C238.7,210.8,238.6,210.8,238.5,210.8z"/>
			<path class="st0" d="M307.3,143.4h-4.2c-0.6,0-1-0.4-1-1s0.4-1,1-1h4.2c0.6,0,1,0.4,1,1S307.8,143.4,307.3,143.4z"/>
			<path class="st0" d="M302.7,155.1h-3.3c-0.6,0-1-0.4-1-1s0.4-1,1-1h3.3c0.6,0,1,0.4,1,1S303.2,155.1,302.7,155.1z"/>
			<path class="st0" d="M301,161h-9.8c-0.6,0-1-0.4-1-1s0.4-1,1-1h9.8c0.6,0,1,0.4,1,1S301.6,161,301,161z"/>
			<path class="st0" d="M354.6,163.1h-4.2c-0.6,0-1-0.4-1-1s0.4-1,1-1h4.2c0.6,0,1,0.4,1,1S355.2,163.1,354.6,163.1z"/>
			<path class="st0" d="M358.4,174.9h-3.9c-0.6,0-1-0.4-1-1s0.4-1,1-1h3.9c0.6,0,1,0.4,1,1S358.9,174.9,358.4,174.9z"/>
			<path class="st0" d="M353.8,180.7H350c-0.6,0-1-0.4-1-1s0.4-1,1-1h3.7c0.6,0,1,0.4,1,1S354.3,180.7,353.8,180.7z"/>
			<path class="st0" d="M361.4,107h-7c-0.6,0-1-0.4-1-1s0.4-1,1-1h7c0.6,0,1,0.4,1,1S362,107,361.4,107z"/>
			<path class="st0" d="M52.4,222c-0.6,0-1-0.4-1-1v-12c0-0.6,0.4-1,1-1s1,0.4,1,1v12C53.4,221.6,53,222,52.4,222z"/>
		</g>
	</g>
</g>
</svg>
