<?xml version="1.0" encoding="utf-8"?>
<!-- Generator: Adobe Illustrator 21.0.0, SVG Export Plug-In . SVG Version: 6.00 Build 0)  -->
<svg version="1.1" id="ëÎÓÈ_1" xmlns="http://www.w3.org/2000/svg" xmlns:xlink="http://www.w3.org/1999/xlink" x="0px" y="0px"
	 viewBox="0 0 382 200" style="enable-background:new 0 0 382 200;" xml:space="preserve">
<style type="text/css">
	.st0{opacity:0.3;fill:#FFFFFF;}
	.st1{opacity:0.2;fill:#FFFFFF;}
	.st2{fill:#AFA1DF;}
	.st3{fill:#FFFFFF;}
	.st4{fill:#FF4D29;}
	.st5{fill:#F997CC;}
	.st6{fill:#008C6F;}
	.st7{opacity:0.5;fill:#FFFFFF;}
	.st8{fill:#4B5265;}
	.st9{fill:#9D4342;}
	.st10{fill:#834342;}
	.st11{fill:#9980BE;}
	.st12{fill:#CCCC00;}
	.st13{fill:#929637;}
	.st14{fill:#DC9900;}
	.st15{fill:#C58A00;}
	.st16{fill:#B3B035;}
	.st17{fill:#6CDBFF;}
	.st18{fill:#00A6AD;}
	.st19{fill:#5A9A00;}
	.st20{fill:#A9662B;}
	.st21{fill:#D96300;}
	.st22{fill:#40846A;}
	.st23{fill:#87C03F;}
	.st24{fill:#E28028;}
	.st25{fill:#928B33;}
	.st26{fill:#008500;}
	.st27{fill:#3C9983;}
	.st28{fill:#78A83B;}
	.st29{fill:#CBE085;}
	.st30{fill:#FFCC00;}
	.st31{fill:#553231;}
	.st32{fill:#FFBC19;}
	.st33{fill:#FF9999;}
	.st34{fill:#EE7A7A;}
	.st35{fill:#EE9951;}
	.st36{fill:#D58441;}
	.st37{fill:#A85541;}
	.st38{fill:#BBD743;}
	.st39{fill:#86B800;}
	.st40{fill:#D37011;}
	.st41{fill:#9E3B00;}
	.st42{fill:#B84D05;}
	.st43{fill:#A7B300;}
	.st44{fill:#EEE86B;}
	.st45{fill:#669983;}
	.st46{fill:#FFD900;}
	.st47{fill:#9F8EBE;}
</style>
<g id="XMLID_1_">
	<path id="XMLID_1287_" class="st0" d="M28.6,167c0-49.9-6.7-148.7,51.5-148.7c58.2,0,40.6,70.5,106.7,70.5s51.9-51.4,105.8-50
		c53.9,1.4,64.9,85.9,64.9,128.7L28.6,167z"/>
	<path id="XMLID_2_" class="st1" d="M250.3,75.4h-22c-1.4,0-2.5-1.1-2.5-2.5s1.1-2.5,2.5-2.5h6.7c2.2,0,4-1.8,4-4c0-2.2-1.8-4-4-4
		h-11.6c-1.5,0-2.6,1.2-2.6,2.6c0,1.5-1.2,2.6-2.6,2.6h-12.5c-1.5,0-2.6-1.2-2.6-2.6c0-1.5-1.2-2.6-2.6-2.6h-33.1
		c-2.1,0-3.9,1.7-3.9,3.9l0,0c0,2.1,1.7,3.9,3.9,3.9h20.1c1.5,0,2.6,1.2,2.6,2.6l0,0c0,1.5-1.2,2.6-2.6,2.6h-2.2
		c-3.1,0-5.7,2.5-5.7,5.7s2.5,5.7,5.7,5.7h65.1c3.1,0,5.7-2.5,5.7-5.7S253.5,75.4,250.3,75.4z"/>
	<polygon id="XMLID_1285_" class="st2" points="354.9,160.5 354.9,148.3 342.5,133.3 324.1,139.2 303.4,117.9 272.9,129.5 
		301.8,160.5 	"/>
	<circle id="XMLID_1284_" class="st3" cx="205" cy="49.1" r="4.2"/>
	<polygon id="XMLID_1283_" class="st4" points="232.4,100.6 310.3,144 314.1,144 232.4,98.1 	"/>
	<g id="XMLID_1278_">
		<path id="XMLID_1282_" class="st5" d="M354.1,143.8c-2.3,0-4.1,1.8-4.1,4.1h8.2C358.2,145.6,356.3,143.8,354.1,143.8z"/>
		<circle id="XMLID_1281_" class="st3" cx="354.1" cy="143.8" r="2"/>
		<rect id="XMLID_1280_" x="348" y="147.9" class="st6" width="12" height="2.5"/>
		
			<rect id="XMLID_1279_" x="347" y="154.6" transform="matrix(-1.836970e-16 1 -1 -1.836970e-16 509.899 -198.2321)" class="st6" width="14.2" height="2.5"/>
	</g>
	<path id="XMLID_1277_" class="st1" d="M267.3,28.5v-1.2c0-1.5-1.2-2.6-2.6-2.6h-42c-1.5,0-2.6,1.2-2.6,2.6v1.2
		c0,1.5,1.2,2.6,2.6,2.6h14.9c1.5,0,2.6,1.2,2.6,2.6l0,0c0,1.5-1.2,2.6-2.6,2.6H232c-1.5,0-2.6,1.2-2.6,2.6v0.6
		c0,1.5,1.2,2.6,2.6,2.6h25.5c1.5,0,2.6-1.2,2.6-2.6v-0.6c0-1.5-1.2-2.6-2.6-2.6h-7.4c-1.5,0-2.6-1.2-2.6-2.6l0,0
		c0-1.5,1.2-2.6,2.6-2.6h14.5C266.1,31.2,267.3,30,267.3,28.5z"/>
	<path id="XMLID_17_" class="st1" d="M354,21.5h-42c-1.5,0-2.6,1.2-2.6,2.6v1.2c0,1.5,1.2,2.6,2.6,2.6h14.9c1.5,0,2.6,1.2,2.6,2.6
		c0,1.5-1.2,2.6-2.6,2.6h-5.6c-1.5,0-2.6,1.2-2.6,2.6v0.6c0,1.5,1.2,2.6,2.6,2.6h25.5c1.5,0,2.6-1.2,2.6-2.6v-0.6
		c0-1.5-1.2-2.6-2.6-2.6h-7.4c-1.5,0-2.6-1.2-2.6-2.6c0-1.5,1.2-2.6,2.6-2.6H354c1.5,0,2.6-1.2,2.6-2.6v-1.2
		C356.6,22.7,355.4,21.5,354,21.5z"/>
	<circle id="XMLID_1275_" class="st3" cx="140" cy="25.2" r="4.8"/>
	<path id="XMLID_15_" class="st3" d="M206.8,24.2h-16.5c-1.7,0-3.1,1.4-3.1,3.1c0,1.7,1.4,3.1,3.1,3.1h16.5c1.7,0,3.1-1.4,3.1-3.1
		C209.9,25.6,208.5,24.2,206.8,24.2z"/>
	<path id="XMLID_1273_" class="st3" d="M188.9,52.2h-17.7c-1.4,0-2.4-1.1-2.4-2.4v-1.3c0-1.4,1.1-2.4,2.4-2.4h17.7
		c1.4,0,2.4,1.1,2.4,2.4v1.3C191.4,51.1,190.3,52.2,188.9,52.2z"/>
	<path id="XMLID_16_" class="st7" d="M310,54.3h-16.5c-1.7,0-3.1,1.4-3.1,3.1l0,0c0,1.7,1.4,3.1,3.1,3.1H310c1.7,0,3.1-1.4,3.1-3.1
		l0,0C313.1,55.7,311.7,54.3,310,54.3z"/>
	<path id="XMLID_3_" class="st3" d="M37.1,21.9H20.7c-1.7,0-3.1,1.4-3.1,3.1c0,1.7,1.4,3.1,3.1,3.1h16.5c1.7,0,3.1-1.4,3.1-3.1
		C40.2,23.3,38.8,21.9,37.1,21.9z"/>
	<path id="XMLID_4_" class="st1" d="M36.4,67.1H12.2c-2.5,0-4.5,2-4.5,4.5s2,4.5,4.5,4.5h24.2c2.5,0,4.5-2,4.5-4.5
		S38.8,67.1,36.4,67.1z"/>
	<path id="XMLID_14_" class="st1" d="M137.8,38.7h-24.2c-2.5,0-4.5,2-4.5,4.5l0,0c0,2.5,2,4.5,4.5,4.5h24.2c2.5,0,4.5-2,4.5-4.5l0,0
		C142.4,40.7,140.3,38.7,137.8,38.7z"/>
	<path id="XMLID_10_" class="st3" d="M108.1,18.2H83.9c-2.5,0-4.5,2-4.5,4.5l0,0c0,2.5,2,4.5,4.5,4.5h24.2c2.5,0,4.5-2,4.5-4.5l0,0
		C112.6,20.2,110.6,18.2,108.1,18.2z"/>
	<path id="XMLID_20_" class="st1" d="M366.9,98.4h-24.2c-2.5,0-4.5,2-4.5,4.5s2,4.5,4.5,4.5h24.2c2.5,0,4.5-2,4.5-4.5
		S369.4,98.4,366.9,98.4z"/>
	<path id="XMLID_21_" class="st3" d="M366.9,122.3h-24.2c-2.5,0-4.5,2-4.5,4.5c0,2.5,2,4.5,4.5,4.5h24.2c2.5,0,4.5-2,4.5-4.5
		C371.4,124.3,369.4,122.3,366.9,122.3z"/>
	<path id="XMLID_19_" class="st3" d="M347.8,64.4h-24.2c-2.5,0-4.5,2-4.5,4.5c0,2.5,2,4.5,4.5,4.5h24.2c2.5,0,4.5-2,4.5-4.5
		C352.3,66.4,350.3,64.4,347.8,64.4z"/>
	<path id="XMLID_6_" class="st7" d="M100.1,35.2H83.7c-1.7,0-3.1,1.4-3.1,3.1s1.4,3.1,3.1,3.1h16.5c1.7,0,3.1-1.4,3.1-3.1
		S101.8,35.2,100.1,35.2z"/>
	<path id="XMLID_18_" class="st3" d="M262.8,96.9h-16.5c-1.7,0-3.1,1.4-3.1,3.1l0,0c0,1.7,1.4,3.1,3.1,3.1h16.5
		c1.7,0,3.1-1.4,3.1-3.1l0,0C265.9,98.2,264.5,96.9,262.8,96.9z"/>
	<path id="XMLID_1261_" class="st8" d="M32.9,167.9h-8.6v-24c0-1.9,1.5-3.4,3.4-3.4h1.8c1.9,0,3.4,1.5,3.4,3.4V167.9z"/>
	<path id="XMLID_1260_" class="st9" d="M176.1,119.2c0.1,0.1,30.5-18.6,30.5-18.6h25.8l89.5,49.9v15.7l-143.4-2L176.1,119.2z"/>
	<path id="XMLID_1259_" class="st10" d="M188.8,127.1c0,0.1,22.4-13.7,22.4-13.7h18.9l65.7,36.6v11.6l-105.2-1.5L188.8,127.1z"/>
	<polygon id="XMLID_1258_" class="st2" points="202.3,124 178.7,95.6 160.6,113.7 187.4,142.8 	"/>
	<polygon id="XMLID_1257_" class="st11" points="116,80.8 131.3,62.4 178.9,122.8 191.5,110.7 202.3,124 212,124 246.7,145.8 
		258.9,145.8 280,158.3 115.9,156.8 	"/>
	<polygon id="XMLID_1256_" class="st2" points="74.7,115.7 106.1,66.9 140.9,99.4 140.9,117.5 160.6,138.1 160.6,156 94.6,158.3 	
		"/>
	<path id="XMLID_1255_" class="st12" d="M173.7,109.9l-14.8-15c-6.6-6.8-11.9-14.7-15.5-23.5l-3.1-7.6c-1.8-3.3-6.2-4-9-1.4v15.4
		c0,1.6,1.3,2.9,2.9,2.9l0,0c1.6,0,2.9-1.3,2.9-2.9v-4.1c0-1.3,1.7-1.9,2.5-0.9l0.4,0.5c1.7,2.2,2.7,4.9,2.7,7.7v11.9
		c0,1.4,1.1,2.4,2.5,2.2c1-0.2,1.7-1.1,1.7-2.1v-8.4c0-0.8,0.6-1.2,1.3-0.7c0.2,0.2,0.4,0.4,0.4,0.7v5.1c0,0.9,0.7,1.7,1.6,1.8
		c1,0.1,1.9-0.7,1.9-1.7c0-0.4,0.4-0.5,0.7-0.2l0,0c5.2,6.6,8,14.7,8,23v1.9c0,1.3,1.1,2.4,2.4,2.4l0,0c1.3,0,2.4-1.1,2.4-2.4v-5
		c0-1.2,1.6-1.8,2.4-0.8l0,0c1.3,1.6,2,3.6,2,5.7v5.4c0,0.9,0.7,1.6,1.6,1.6l0,0c0.9,0,1.6-0.7,1.6-1.6v-1c0-1.2,1.5-1.7,2.2-0.8
		l3.8,4.8l0,0C178.9,117.9,177.1,113.3,173.7,109.9z"/>
	<polygon id="XMLID_1254_" class="st11" points="110.1,164.4 140.9,134.9 171.8,164.4 	"/>
	<rect id="XMLID_1253_" x="121.5" y="143.1" class="st8" width="104.8" height="6.6"/>
	<path id="XMLID_1252_" class="st12" d="M106.1,66.9c0,0-1.8-1-5.3-1s-8.9,2.4-8.9,8.3c0,5.9-4.8,17.8-9.5,22.5
		c-4.7,4.7-7,4.9-10.6,11.3c-3.6,6.5,3.5,7,3.5,7l3.4-5.2c0.8-1.4,3-0.8,3,0.8v3.4c0,0.8,0.6,1.4,1.4,1.4l0,0c0.8,0,1.4-0.6,1.4-1.4
		v-9.4c0-2.6,0.7-5.1,2.2-7.2l4.4-6.8c0.2-0.4,0.7-0.2,0.7,0.2l0,0c0,0.8,0.6,1.4,1.4,1.4l0,0c0.8,0,1.4-0.6,1.4-1.4v-3
		c0-1.8,0.5-3.5,1.5-5.1l0,0c0.7-1.1,2.4-0.6,2.4,0.7v5.3c0,0.9,0.7,1.7,1.7,1.7l0,0c0.9,0,1.7-0.7,1.7-1.7v-7.6
		c0-4.8,1.4-9.5,4-13.5L106.1,66.9z"/>
	<path id="XMLID_1251_" class="st8" d="M132.4,164.2h-8.6v-24c0-1.9,1.5-3.4,3.4-3.4h1.8c1.9,0,3.4,1.5,3.4,3.4V164.2z"/>
	<path id="XMLID_1250_" class="st8" d="M162.9,163.5h-8.6v-24c0-1.9,1.5-3.4,3.4-3.4h1.8c1.9,0,3.4,1.5,3.4,3.4V163.5z"/>
	<path id="XMLID_1249_" class="st8" d="M171.5,154.3h-8.6v-24c0-1.9,1.5-3.4,3.4-3.4h1.8c1.9,0,3.4,1.5,3.4,3.4V154.3z"/>
	<path id="XMLID_1248_" class="st8" d="M202.8,162.9h-8.6v-24c0-1.9,1.5-3.4,3.4-3.4h1.8c1.9,0,3.4,1.5,3.4,3.4V162.9z"/>
	<path id="XMLID_1247_" class="st8" d="M226.4,162.9h-8.6v-24c0-1.9,1.5-3.4,3.4-3.4h1.8c1.9,0,3.4,1.5,3.4,3.4V162.9z"/>
	<polygon id="XMLID_1246_" class="st11" points="40.9,137.5 71.7,108 102.6,137.5 	"/>
	<g id="XMLID_1236_">
		<circle id="XMLID_1245_" class="st8" cx="47.6" cy="128.6" r="4.3"/>
		<circle id="XMLID_1244_" class="st8" cx="39.2" cy="128.6" r="4.3"/>
		<circle id="XMLID_1243_" class="st8" cx="64.3" cy="128.6" r="4.3"/>
		<circle id="XMLID_1242_" class="st8" cx="72.9" cy="128.6" r="4.3"/>
		<circle id="XMLID_1241_" class="st8" cx="81.5" cy="128.6" r="4.3"/>
		<circle id="XMLID_1240_" class="st8" cx="90.1" cy="128.6" r="4.3"/>
		<circle id="XMLID_1239_" class="st8" cx="98.7" cy="128.6" r="4.3"/>
		<circle id="XMLID_1238_" class="st8" cx="107.3" cy="128.6" r="4.3"/>
		<circle id="XMLID_1237_" class="st8" cx="115.9" cy="128.6" r="4.3"/>
	</g>
	<rect id="XMLID_1235_" x="37.3" y="128.6" class="st8" width="83.2" height="28.3"/>
	<g id="XMLID_1215_">
		
			<rect id="XMLID_1234_" x="61.7" y="33.5" transform="matrix(-0.7071 -0.7071 0.7071 -0.7071 81.544 120.1974)" class="st13" width="8" height="19.5"/>
		
			<rect id="XMLID_1233_" x="42.2" y="33.5" transform="matrix(0.7071 -0.7071 0.7071 0.7071 -17.0127 45.348)" class="st13" width="8" height="19.5"/>
		<rect id="XMLID_1232_" x="51.9" y="49.7" class="st14" width="8" height="106.4"/>
		<rect id="XMLID_1231_" x="51.9" y="49.7" class="st15" width="8" height="15.3"/>
		<rect id="XMLID_1230_" x="51.9" y="71.4" class="st15" width="8" height="2.8"/>
		<rect id="XMLID_1229_" x="51.9" y="78" class="st15" width="8" height="2.8"/>
		<rect id="XMLID_1228_" x="51.9" y="84.7" class="st15" width="8" height="2.8"/>
		<rect id="XMLID_1227_" x="51.9" y="91.3" class="st15" width="8" height="2.8"/>
		<rect id="XMLID_1226_" x="51.9" y="98" class="st15" width="8" height="2.8"/>
		<rect id="XMLID_1225_" x="51.9" y="104.6" class="st15" width="8" height="2.8"/>
		<rect id="XMLID_1224_" x="51.9" y="111.3" class="st15" width="8" height="2.8"/>
		<rect id="XMLID_1223_" x="51.9" y="118" class="st15" width="8" height="2.8"/>
		<rect id="XMLID_1222_" x="51.9" y="124.6" class="st15" width="8" height="2.8"/>
		<rect id="XMLID_1221_" x="51.9" y="130.7" class="st15" width="8" height="2.8"/>
		<rect id="XMLID_1220_" x="51.9" y="136.9" class="st15" width="8" height="2.8"/>
		<rect id="XMLID_1219_" x="51.9" y="143" class="st15" width="8" height="2.8"/>
		<rect id="XMLID_1218_" x="51.9" y="149.1" class="st15" width="8" height="2.8"/>
		
			<rect id="XMLID_1217_" x="51.9" y="29" transform="matrix(6.123234e-17 -1 1 6.123234e-17 2.2393 109.6606)" class="st16" width="8" height="49.4"/>
		
			<rect id="XMLID_1216_" x="51.9" y="29" transform="matrix(-1 -1.224647e-16 1.224647e-16 -1 111.8999 82.7298)" class="st16" width="8" height="24.7"/>
	</g>
	<path id="XMLID_1214_" class="st3" d="M223.5,149.1c-1,0-2-0.6-2.5-1.4c-0.5,0.8-1.4,1.4-2.5,1.4c-1,0-2-0.6-2.5-1.4
		c-0.5,0.8-1.4,1.4-2.5,1.4c-1,0-2-0.6-2.5-1.4c-0.5,0.8-1.4,1.4-2.5,1.4c-1,0-2-0.6-2.5-1.4c-0.5,0.8-1.4,1.4-2.5,1.4
		c-1,0-2-0.6-2.5-1.4c-0.5,0.8-1.4,1.4-2.5,1.4c-1,0-2-0.6-2.5-1.4c-0.5,0.8-1.4,1.4-2.5,1.4c-1,0-2-0.6-2.5-1.4
		c-0.5,0.8-1.4,1.4-2.5,1.4c-1,0-2-0.6-2.5-1.4c-0.5,0.8-1.4,1.4-2.5,1.4c-1,0-2-0.6-2.5-1.4c-0.5,0.8-1.4,1.4-2.5,1.4
		c-1,0-2-0.6-2.5-1.4c-0.5,0.8-1.4,1.4-2.5,1.4c-1,0-2-0.6-2.5-1.4c-0.5,0.8-1.4,1.4-2.5,1.4c-1,0-2-0.6-2.5-1.4
		c-0.5,0.8-1.4,1.4-2.5,1.4c-1,0-2-0.6-2.5-1.4c-0.5,0.8-1.4,1.4-2.5,1.4c-1,0-2-0.6-2.5-1.4c-0.5,0.8-1.4,1.4-2.5,1.4
		c-1,0-2-0.6-2.5-1.4c-0.5,0.8-1.4,1.4-2.5,1.4s-2-0.6-2.5-1.4c-0.5,0.8-1.4,1.4-2.5,1.4c-1,0-2-0.6-2.5-1.4
		c-0.5,0.8-1.4,1.4-2.5,1.4c-1,0-2-0.6-2.5-1.4c-0.5,0.8-1.4,1.4-2.5,1.4c-1,0-2-0.6-2.5-1.4c-0.5,0.8-1.4,1.4-2.5,1.4
		s-2-0.6-2.5-1.4c-0.5,0.8-1.4,1.4-2.5,1.4c-1.3,0-2.4-0.9-2.7-2.1v10.7h103.8v-11.5C226.4,147.8,225.1,149.1,223.5,149.1z"/>
	<g id="XMLID_1201_">
		
			<rect id="XMLID_1213_" x="38.4" y="93.1" transform="matrix(-0.7071 -0.7071 0.7071 -0.7071 -0.2778 197.9917)" class="st13" width="4.9" height="12"/>
		
			<rect id="XMLID_1212_" x="26.4" y="93.1" transform="matrix(0.7071 -0.7071 0.7071 0.7071 -61.5789 49.4421)" class="st13" width="4.9" height="12"/>
		<rect id="XMLID_1211_" x="32.4" y="103.1" class="st14" width="4.9" height="55.2"/>
		<rect id="XMLID_1210_" x="32.4" y="103.1" class="st15" width="4.9" height="9.4"/>
		<rect id="XMLID_1209_" x="32.4" y="117.5" class="st15" width="4.9" height="2.6"/>
		<rect id="XMLID_1208_" x="32.4" y="123.6" class="st15" width="4.9" height="2.6"/>
		<rect id="XMLID_1207_" x="32.4" y="129.8" class="st15" width="4.9" height="2.6"/>
		<rect id="XMLID_1206_" x="32.4" y="136" class="st15" width="4.9" height="2.6"/>
		<rect id="XMLID_1205_" x="32.4" y="142.2" class="st15" width="4.9" height="2.6"/>
		<rect id="XMLID_1204_" x="32.4" y="148.3" class="st15" width="4.9" height="2.6"/>
		
			<rect id="XMLID_1203_" x="32.4" y="90.3" transform="matrix(6.123234e-17 -1 1 6.123234e-17 -70.6444 140.4034)" class="st16" width="4.9" height="30.4"/>
		
			<rect id="XMLID_1202_" x="32.4" y="90.3" transform="matrix(-1 -1.224647e-16 1.224647e-16 -1 69.759 195.8324)" class="st16" width="4.9" height="15.2"/>
	</g>
	<path id="XMLID_1200_" class="st17" d="M223.5,151.8c-1,0-2-0.6-2.5-1.4c-0.5,0.8-1.4,1.4-2.5,1.4c-1,0-2-0.6-2.5-1.4
		c-0.5,0.8-1.4,1.4-2.5,1.4c-1,0-2-0.6-2.5-1.4c-0.5,0.8-1.4,1.4-2.5,1.4c-1,0-2-0.6-2.5-1.4c-0.5,0.8-1.4,1.4-2.5,1.4
		c-1,0-2-0.6-2.5-1.4c-0.5,0.8-1.4,1.4-2.5,1.4c-1,0-2-0.6-2.5-1.4c-0.5,0.8-1.4,1.4-2.5,1.4c-1,0-2-0.6-2.5-1.4
		c-0.5,0.8-1.4,1.4-2.5,1.4c-1,0-2-0.6-2.5-1.4c-0.5,0.8-1.4,1.4-2.5,1.4c-1,0-2-0.6-2.5-1.4c-0.5,0.8-1.4,1.4-2.5,1.4
		c-1,0-2-0.6-2.5-1.4c-0.5,0.8-1.4,1.4-2.5,1.4c-1,0-2-0.6-2.5-1.4c-0.5,0.8-1.4,1.4-2.5,1.4c-1,0-2-0.6-2.5-1.4
		c-0.5,0.8-1.4,1.4-2.5,1.4c-1,0-2-0.6-2.5-1.4c-0.5,0.8-1.4,1.4-2.5,1.4c-1,0-2-0.6-2.5-1.4c-0.5,0.8-1.4,1.4-2.5,1.4
		c-1,0-2-0.6-2.5-1.4c-0.5,0.8-1.4,1.4-2.5,1.4s-2-0.6-2.5-1.4c-0.5,0.8-1.4,1.4-2.5,1.4c-1,0-2-0.6-2.5-1.4
		c-0.5,0.8-1.4,1.4-2.5,1.4c-1,0-2-0.6-2.5-1.4c-0.5,0.8-1.4,1.4-2.5,1.4c-1,0-2-0.6-2.5-1.4c-0.5,0.8-1.4,1.4-2.5,1.4
		s-2-0.6-2.5-1.4c-0.5,0.8-1.4,1.4-2.5,1.4c-1.3,0-2.4-0.9-2.7-2.1v10.7h103.8V149C226.4,150.5,225.1,151.8,223.5,151.8z"/>
	<rect id="XMLID_1199_" x="122.6" y="154.5" class="st18" width="102.1" height="1.6"/>
	<g id="XMLID_1189_">
		<circle id="XMLID_1198_" class="st8" cx="239.5" cy="156.1" r="11.7"/>
		<g id="XMLID_1194_">
			<path id="XMLID_1197_" class="st12" d="M239.5,153.6l10.5-10.5c-2.9-2.3-6.6-3.7-10.5-3.7c-4,0-7.6,1.4-10.5,3.7L239.5,153.6z"/>
			<path id="XMLID_1196_" class="st12" d="M252.7,166.9c2.3-2.9,3.7-6.6,3.7-10.5c0-4-1.4-7.8-3.8-10.7l-10.5,10.5L252.7,166.9z"/>
			<path id="XMLID_1195_" class="st12" d="M226.3,145.7c-2.4,2.9-3.8,6.6-3.8,10.7c0,4,1.4,7.6,3.7,10.5l10.7-10.7L226.3,145.7z"/>
		</g>
		<g id="XMLID_1190_">
			<path id="XMLID_1193_" class="st5" d="M239.5,149.1c-2.4,0-4.3,1.9-4.3,4.3h8.6C243.8,151,241.9,149.1,239.5,149.1z"/>
			<circle id="XMLID_1192_" class="st3" cx="239.5" cy="149.1" r="2.2"/>
			<rect id="XMLID_1191_" x="233.1" y="153.4" class="st19" width="12.7" height="2.6"/>
		</g>
	</g>
	<g id="XMLID_1179_">
		<polygon id="XMLID_1188_" class="st20" points="325.5,161.7 321.3,161.7 321.3,136.7 323.4,134 325.5,136.7 		"/>
		<rect id="XMLID_1187_" x="321.3" y="152" class="st21" width="4.2" height="9.6"/>
		<g id="XMLID_1183_">
			<path id="XMLID_1186_" class="st22" d="M323.4,131.8l5.9-5.9c-1.6-1.3-3.7-2.1-5.9-2.1s-4.3,0.8-5.9,2.1L323.4,131.8z"/>
			<path id="XMLID_1185_" class="st22" d="M330.9,139.2c1.3-1.6,2.1-3.7,2.1-5.9c0-2.3-0.8-4.4-2.1-6l-5.9,5.9L330.9,139.2z"/>
			<path id="XMLID_1184_" class="st22" d="M316,127.3c-1.3,1.6-2.1,3.7-2.1,6c0,2.2,0.8,4.3,2.1,5.9l6-6L316,127.3z"/>
		</g>
		<path id="XMLID_1182_" class="st23" d="M318.6,129.9c-0.7,1-1.1,2.1-1.1,3.4c0,1.3,0.4,2.4,1.1,3.4l3.4-3.4L318.6,129.9z"/>
		<path id="XMLID_1181_" class="st23" d="M320,128.4l3.4,3.4l3.4-3.4c-1-0.7-2.1-1.1-3.4-1.1S321,127.7,320,128.4z"/>
		<path id="XMLID_1180_" class="st23" d="M328.3,136.7c0.7-1,1.1-2.1,1.1-3.4c0-1.3-0.4-2.5-1.1-3.4l-3.4,3.4L328.3,136.7z"/>
	</g>
	<g id="XMLID_1168_">
		<polygon id="XMLID_1178_" class="st24" points="123.8,156.3 117.4,156.3 117.4,118.2 120.6,114.1 123.8,118.2 		"/>
		<polygon id="XMLID_1177_" class="st21" points="123.8,124.9 117.4,124.9 117.4,118.2 120.6,114.1 123.8,118.2 		"/>
		<rect id="XMLID_1176_" x="117.4" y="141.6" class="st21" width="6.4" height="14.7"/>
		<g id="XMLID_1172_">
			<path id="XMLID_1175_" class="st12" d="M120.6,110.7l9-9c-2.5-2-5.6-3.1-9-3.1c-3.4,0-6.5,1.2-9,3.1L120.6,110.7z"/>
			<path id="XMLID_1174_" class="st12" d="M131.9,122.1c2-2.5,3.1-5.6,3.1-9c0-3.5-1.2-6.6-3.2-9.1l-9,9L131.9,122.1z"/>
			<path id="XMLID_1173_" class="st12" d="M109.3,103.9c-2,2.5-3.2,5.7-3.2,9.1c0,3.4,1.2,6.5,3.1,9l9.1-9.1L109.3,103.9z"/>
		</g>
		<path id="XMLID_1171_" class="st25" d="M113.2,107.8c-1,1.5-1.7,3.3-1.7,5.2c0,1.9,0.6,3.7,1.6,5.2l5.2-5.2L113.2,107.8z"/>
		<path id="XMLID_1170_" class="st25" d="M115.4,105.6l5.2,5.2l5.2-5.2c-1.5-1-3.2-1.6-5.2-1.6C118.7,103.9,116.9,104.5,115.4,105.6
			z"/>
		<path id="XMLID_1169_" class="st25" d="M128,118.2c1-1.5,1.6-3.2,1.6-5.2c0-1.9-0.6-3.7-1.7-5.2l-5.2,5.2L128,118.2z"/>
	</g>
	<path id="XMLID_1167_" class="st22" d="M337.1,153.1h3.9c-0.1-1-0.5-1.9-1.3-2.6c-0.7-0.7-1.7-1.2-2.6-1.3V153.1z"/>
	<path id="XMLID_1166_" class="st26" d="M338.3,144.9h4.3c-0.1-1-0.6-2.1-1.4-2.9c-0.8-0.8-1.8-1.3-2.9-1.4V144.9z"/>
	<path id="XMLID_1165_" class="st27" d="M330.8,146.1h4.3c-0.1-1-0.6-2.1-1.4-2.9c-0.8-0.8-1.8-1.3-2.9-1.4V146.1z"/>
	<g id="XMLID_1150_">
		<g id="XMLID_1161_">
			<path id="XMLID_1164_" class="st23" d="M91.6,166.3h-4.9v-29.6c0-1.1,0.9-2,2-2h1c1.1,0,2,0.9,2,2V166.3z"/>
			<path id="XMLID_1163_" class="st23" d="M72.1,142l0.7-0.7c0.8-0.8,2-0.8,2.8,0l31.9,31.9l-3.5,3.5l-31.9-31.9
				C71.4,144,71.4,142.8,72.1,142z"/>
			<path id="XMLID_1162_" class="st23" d="M81.2,169.7l-3.5-3.5l24.9-24.9c0.8-0.8,2-0.8,2.8,0l0.7,0.7c0.8,0.8,0.8,2,0,2.8
				L81.2,169.7z"/>
		</g>
		<g id="XMLID_1152_">
			<path id="XMLID_1160_" class="st28" d="M67,150.2l0.4-0.9c0.4-1,1.5-1.5,2.5-1.1l21.8,8.5l-1.8,4.6l-21.8-8.5
				C67.1,152.3,66.6,151.2,67,150.2z"/>
			<path id="XMLID_1159_" class="st29" d="M67,150.2l0.4-0.9c0.4-1,1.5-1.5,2.5-1.1l2.8,1.1l-1.8,4.6l-2.8-1.1
				C67.1,152.3,66.6,151.2,67,150.2z"/>
			<path id="XMLID_1158_" class="st28" d="M85.8,173.5l-4.6-1.8l13.5-34.4c0.4-1,1.5-1.5,2.5-1.1l0.9,0.4c1,0.4,1.5,1.5,1.1,2.5
				L85.8,173.5z"/>
			<path id="XMLID_1157_" class="st29" d="M98.5,141l-4.6-1.8l0.8-1.9c0.4-1,1.5-1.5,2.5-1.1l0.9,0.4c1,0.4,1.5,1.5,1.1,2.5
				L98.5,141z"/>
			<path id="XMLID_1156_" class="st28" d="M79.2,136.9l0.9-0.4c1-0.4,2.2,0,2.6,1l16,36.6l-4.5,2l-16-36.6
				C77.8,138.5,78.2,137.3,79.2,136.9z"/>
			<path id="XMLID_1155_" class="st29" d="M79.2,136.9l0.9-0.4c1-0.4,2.2,0,2.6,1l1.1,2.6l-4.5,2l-1.1-2.6
				C77.8,138.5,78.2,137.3,79.2,136.9z"/>
			<path id="XMLID_1154_" class="st28" d="M88.8,161.1l-2-4.5l21-9.2c1-0.4,2.2,0,2.6,1l0.4,0.9c0.4,1,0,2.2-1,2.6L88.8,161.1z"/>
			<path id="XMLID_1153_" class="st29" d="M107.2,153.1l-2-4.5l2.7-1.2c1-0.4,2.2,0,2.6,1l0.4,0.9c0.4,1,0,2.2-1,2.6L107.2,153.1z"
				/>
		</g>
		<circle id="XMLID_1151_" class="st29" cx="89.1" cy="158.3" r="8"/>
	</g>
	<g id="XMLID_1143_">
		<g id="XMLID_1145_">
			<polygon id="XMLID_1149_" class="st30" points="273.5,145.2 277.4,141.8 281.4,145.2 			"/>
			<polygon id="XMLID_1148_" class="st30" points="286.1,145.2 290,141.8 294,145.2 			"/>
			<polygon id="XMLID_1147_" class="st30" points="311.3,145.2 315.3,141.8 319.2,145.2 			"/>
			<polygon id="XMLID_1146_" class="st30" points="317.6,145.2 321.6,141.8 325.5,145.2 			"/>
		</g>
		<rect id="XMLID_1144_" x="277.8" y="144" class="st30" width="35.1" height="1.1"/>
	</g>
	<g id="XMLID_1085_">
		<g id="XMLID_1124_">
			<path id="XMLID_1142_" class="st10" d="M177,166.2c-1,2.3-1.6,4.9-1.6,7.6c0,10.6,8.6,19.2,19.2,19.2c10.6,0,19.2-8.6,19.2-19.2
				c0-2.7-0.6-5.3-1.6-7.6H177z"/>
			<g id="XMLID_1125_">
				<path id="XMLID_1141_" class="st10" d="M81,166.2c-0.8,1.8-1.2,3.8-1.2,5.9c0,8.2,6.6,14.8,14.8,14.8c8.2,0,14.8-6.6,14.8-14.8
					c0-2.1-0.4-4.1-1.2-5.9H81z"/>
				<path id="XMLID_1140_" class="st10" d="M227.9,166.2c-1,2.3-1.6,4.9-1.6,7.6c0,10.6,8.6,19.2,19.2,19.2
					c10.6,0,19.2-8.6,19.2-19.2c0-2.7-0.6-5.3-1.6-7.6H227.9z"/>
				<path id="XMLID_1139_" class="st10" d="M205.9,166.2c-0.8,1.8-1.2,3.8-1.2,5.9c0,8.2,6.6,14.8,14.8,14.8
					c8.2,0,14.8-6.6,14.8-14.8c0-2.1-0.4-4.1-1.2-5.9H205.9z"/>
				<path id="XMLID_1138_" class="st10" d="M124.7,165.8c-0.9,2.1-1.4,4.5-1.4,7c0,9.8,7.9,17.7,17.7,17.7c9.8,0,17.7-7.9,17.7-17.7
					c0-2.5-0.5-4.8-1.4-7H124.7z"/>
				<circle id="XMLID_1137_" class="st10" cx="65.4" cy="174.5" r="9.3"/>
				<circle id="XMLID_1136_" class="st10" cx="78.3" cy="169.8" r="9.3"/>
				<circle id="XMLID_1135_" class="st10" cx="116" cy="175.7" r="9.3"/>
				<circle id="XMLID_1134_" class="st10" cx="287" cy="171" r="9.3"/>
				<circle id="XMLID_1133_" class="st10" cx="301.8" cy="171" r="9.3"/>
				<circle id="XMLID_1132_" class="st10" cx="328.8" cy="171" r="9.3"/>
				<circle id="XMLID_1131_" class="st10" cx="166.1" cy="175.7" r="12.4"/>
				<circle id="XMLID_1130_" class="st10" cx="271.6" cy="173.6" r="10.3"/>
				<circle id="XMLID_1129_" class="st10" cx="52.7" cy="171" r="4.7"/>
				<circle id="XMLID_1128_" class="st10" cx="315.3" cy="171" r="4.7"/>
				<circle id="XMLID_1127_" class="st10" cx="125.3" cy="183.9" r="4.7"/>
				<circle id="XMLID_1126_" class="st10" cx="340.4" cy="169.5" r="4.7"/>
			</g>
		</g>
		<path id="XMLID_1123_" class="st31" d="M123.4,170.1c-0.2-0.3-0.5-0.6-0.7-0.9h-13.5c0,0,0,0-0.1,0.1c0,0,0,0,0-0.1H57.7
			c-0.2,0.2-0.3,0.4-0.4,0.7c-0.1-0.2-0.1-0.5-0.2-0.7h-8.7c-0.2,0.5-0.3,1.1-0.3,1.8c0,1.7,1,3.3,2.4,4.1h4.7
			c0.4-0.2,0.7-0.5,1-0.7c0,0.1,0,0.2,0,0.3c0,0.2,0,0.3,0,0.5h5.5c0.8,0,1.5,0.7,1.5,1.5v0.6c0,1.3,1.1,2.4,2.4,2.4h0
			c1.3,0,2.4-1.1,2.4-2.4v-0.6c0-0.8,0.7-1.5,1.5-1.5h28.9c0.8,0,1.5,0.7,1.5,1.5v0.3c0,1.3,1,2.5,2.4,2.5c1.4,0,2.5-1.1,2.5-2.4
			v-0.4c0-0.8,0.7-1.5,1.5-1.5h1.1c0.8,0,1.5,0.7,1.5,1.5v4.9c1.1,1.5,2.7,2.6,4.4,3.1c0.3-0.4,0.4-0.8,0.4-1.3v-6.7
			c0-0.8,0.7-1.5,1.5-1.5h24.8c0.9,0,1.6,0.7,1.6,1.6v2.9c0,1.3,1,2.5,2.4,2.5c1.4,0,2.5-1.1,2.5-2.4v-3c0-0.9,0.7-1.6,1.6-1.6h21.8
			c0.9,0,1.6,0.7,1.6,1.6v0.2c0,1.3,1,2.5,2.4,2.5c1.4,0,2.5-1.1,2.5-2.4v-0.3c0-0.9,0.7-1.6,1.6-1.6h0.8c1.1,0,1.9,0.9,1.9,1.9v6.1
			c0,1.3,1,2.5,2.4,2.5c1.4,0,2.5-1.1,2.5-2.4V177c0-1.1,0.9-1.9,1.9-1.9h28c0.9,0,1.5,0.7,1.5,1.5v0.4c0,1.3,1.1,2.4,2.4,2.4l0,0
			c1.3,0,2.4-1.1,2.4-2.4v-0.4c0-0.9,0.7-1.5,1.5-1.5h29.3c1,0,1.8,0.8,1.8,1.8v0.1c0,1.3,1.1,2.4,2.4,2.4h0c1.3,0,2.4-1.1,2.4-2.4
			v-0.1c0-1,0.8-1.8,1.8-1.8h49.1c0.3-0.7,0.6-1.5,0.8-2.3c0.4,1,1.1,1.8,2,2.3h4.7c0.9-0.5,1.6-1.3,2-2.3c0.2,0.8,0.4,1.6,0.8,2.3
			h16.8c0.3-0.5,0.5-1.1,0.6-1.6c0.7,0.5,1.6,0.8,2.6,0.8c2.6,0,4.7-2.1,4.7-4.7c0-0.1,0-0.2,0-0.3H123.6
			C123.5,169.5,123.5,169.8,123.4,170.1z"/>
		<path id="XMLID_1122_" class="st32" d="M29.4,160.5h325.8c0.8,0,1.5,0.7,1.5,1.5v0.8c0,0.8-0.7,1.5-1.5,1.5H29.4
			c-0.8,0-1.5-0.7-1.5-1.5V162C27.9,161.1,28.6,160.5,29.4,160.5z"/>
		<path id="XMLID_24_" class="st4" d="M359.6,164.2h-333c-1.6,0-2.9,1.2-3,2.7c-0.1,1.7,1.2,3.1,2.9,3.1h35c0.8,0,1.5,0.7,1.5,1.5
			v0.6c0,1.3,1.1,2.4,2.4,2.4h0c1.3,0,2.4-1.1,2.4-2.4v-0.6c0-0.8,0.7-1.5,1.5-1.5h28.9c0.8,0,1.5,0.7,1.5,1.5v0.3
			c0,1.3,1,2.5,2.4,2.5c1.4,0,2.5-1.1,2.5-2.4v-0.4c0-0.8,0.7-1.5,1.5-1.5h1.1c0.8,0,1.5,0.7,1.5,1.5v6.6c0,1.3,1,2.5,2.4,2.5
			c1.4,0,2.5-1.1,2.5-2.4v-6.7c0-0.8,0.7-1.5,1.5-1.5h24.8c0.9,0,1.6,0.7,1.6,1.6v2.9c0,1.3,1,2.5,2.4,2.5c1.4,0,2.5-1.1,2.5-2.4v-3
			c0-0.9,0.7-1.6,1.6-1.6h21.8c0.9,0,1.6,0.7,1.6,1.6v0.2c0,1.3,1,2.5,2.4,2.5c1.4,0,2.5-1.1,2.5-2.4v-0.3c0-0.9,0.7-1.6,1.6-1.6
			h0.8c1.1,0,1.9,0.9,1.9,1.9v6.1c0,1.3,1,2.5,2.4,2.5c1.4,0,2.5-1.1,2.5-2.4V172c0-1.1,0.9-1.9,1.9-1.9h28c0.9,0,1.5,0.7,1.5,1.5
			v0.4c0,1.3,1.1,2.4,2.4,2.4l0,0c1.3,0,2.4-1.1,2.4-2.4v-0.4c0-0.9,0.7-1.5,1.5-1.5h29.3c1,0,1.8,0.8,1.8,1.8v0.1
			c0,1.3,1.1,2.4,2.4,2.4c1.3,0,2.4-1.1,2.4-2.4v-0.1c0-1,0.8-1.8,1.8-1.8h98.5c1.6,0,2.9-1.2,3-2.7
			C362.6,165.6,361.3,164.2,359.6,164.2z"/>
		<g id="XMLID_1117_">
			<path id="XMLID_1120_" class="st33" d="M137.4,178.9c-0.7-0.7-1.9-0.7-2.6,0l-3,3c-0.7,0.7-0.7,1.9,0,2.6c0.7,0.7,1.9,0.7,2.6,0
				l3-3C138.2,180.8,138.2,179.6,137.4,178.9z"/>
			
				<rect id="XMLID_1119_" x="133.8" y="180" transform="matrix(0.7071 0.7071 -0.7071 0.7071 167.4707 -42.9996)" class="st34" width="3.7" height="1.2"/>
			
				<rect id="XMLID_1118_" x="131.8" y="182" transform="matrix(0.7071 0.7071 -0.7071 0.7071 168.2776 -41.0393)" class="st34" width="3.7" height="1.2"/>
		</g>
		<g id="XMLID_1113_">
			<path id="XMLID_1116_" class="st33" d="M239.4,176.4c-0.7,0.7-0.7,1.9,0,2.6l3,3c0.7,0.7,1.9,0.7,2.6,0c0.7-0.7,0.7-1.9,0-2.6
				l-3-3C241.3,175.6,240.2,175.6,239.4,176.4z"/>
			
				<rect id="XMLID_1115_" x="239.4" y="177.6" transform="matrix(0.7071 -0.7071 0.7071 0.7071 -55.3358 222.7637)" class="st34" width="3.7" height="1.2"/>
			
				<rect id="XMLID_1114_" x="241.4" y="179.6" transform="matrix(0.7071 -0.7071 0.7071 0.7071 -56.1657 224.7838)" class="st34" width="3.7" height="1.2"/>
		</g>
		<g id="XMLID_1108_">
			<path id="XMLID_1112_" class="st35" d="M198.5,182.3L198.5,182.3c0-0.7-0.6-1.3-1.3-1.3l0,0c-3.2,0-5.7,2.6-5.7,5.7v1.3h1.3
				C196,188,198.5,185.4,198.5,182.3z"/>
			<path id="XMLID_1111_" class="st36" d="M198.3,185.1l-4.1-4.1c-0.2-0.2-0.2-0.5,0-0.6l0.2-0.2c0.2-0.2,0.5-0.2,0.6,0l4.1,4.1
				c0.2,0.2,0.2,0.5,0,0.6l-0.2,0.2C198.8,185.2,198.5,185.2,198.3,185.1z"/>
			<path id="XMLID_1110_" class="st36" d="M197.2,187.4l-5.2-5.2c-0.2-0.2-0.2-0.5,0-0.6l0.2-0.2c0.2-0.2,0.5-0.2,0.6,0l5.2,5.2
				c0.2,0.2,0.2,0.5,0,0.6l-0.2,0.2C197.6,187.6,197.3,187.6,197.2,187.4z"/>
			<path id="XMLID_1109_" class="st36" d="M194.8,188.7l-4-4c-0.2-0.2-0.2-0.5,0-0.7l0.2-0.2c0.2-0.2,0.5-0.2,0.7,0l4,4
				c0.2,0.2,0.2,0.5,0,0.7l-0.2,0.2C195.2,188.8,194.9,188.8,194.8,188.7z"/>
		</g>
		<g id="XMLID_1105_">
			<circle id="XMLID_1107_" class="st37" cx="206.7" cy="179.6" r="3"/>
			<circle id="XMLID_1106_" class="st31" cx="206.7" cy="179.6" r="1.6"/>
		</g>
		<circle id="XMLID_1104_" class="st31" cx="232.4" cy="178.6" r="1.9"/>
		<circle id="XMLID_1103_" class="st31" cx="76.6" cy="174.5" r="1.9"/>
		<circle id="XMLID_1102_" class="st31" cx="301.8" cy="174.8" r="1.9"/>
		<circle id="XMLID_1101_" class="st37" cx="153.7" cy="177.8" r="1.7"/>
		<circle id="XMLID_1100_" class="st37" cx="252.7" cy="184.3" r="1.7"/>
		<circle id="XMLID_1099_" class="st37" cx="328.8" cy="174.8" r="1.7"/>
		<circle id="XMLID_1098_" class="st37" cx="123.2" cy="179.2" r="1.7"/>
		<g id="XMLID_1095_">
			<circle id="XMLID_1097_" class="st37" cx="166.1" cy="180.5" r="3.6"/>
			<circle id="XMLID_1096_" class="st31" cx="166.1" cy="180.5" r="1.9"/>
		</g>
		<g id="XMLID_1092_">
			<circle id="XMLID_1094_" class="st37" cx="271.6" cy="179.2" r="3.6"/>
			<circle id="XMLID_1093_" class="st31" cx="271.6" cy="179.2" r="1.9"/>
		</g>
		<g id="XMLID_1089_">
			<circle id="XMLID_1091_" class="st37" cx="145.3" cy="184.3" r="1.9"/>
			<circle id="XMLID_1090_" class="st31" cx="145.3" cy="184.3" r="1"/>
		</g>
		<g id="XMLID_1086_">
			<circle id="XMLID_1088_" class="st37" cx="93.3" cy="180.6" r="3.8"/>
			<circle id="XMLID_1087_" class="st31" cx="93.3" cy="180.6" r="1.9"/>
		</g>
	</g>
	<polygon id="XMLID_1084_" class="st22" points="338.8,160.5 259.8,160.5 273.5,145.2 325.4,145.2 	"/>
	<rect id="XMLID_1083_" x="299.3" y="156.1" class="st38" width="0" height="0"/>
	<rect id="XMLID_1082_" x="299.3" y="156.1" class="st38" width="0" height="0"/>
	<rect id="XMLID_1081_" x="299.3" y="156.1" class="st38" width="0" height="0"/>
	<polygon id="XMLID_1080_" class="st38" points="299.3,156.1 299.3,156.1 299.3,156.1 	"/>
	<circle id="XMLID_1079_" class="st38" cx="299.3" cy="156.1" r="0"/>
	<circle id="XMLID_1078_" class="st38" cx="299.3" cy="156.1" r="0"/>
	<polygon id="XMLID_1077_" class="st38" points="299.3,156.1 299.3,156.1 299.3,156.1 	"/>
	<polygon id="XMLID_1076_" class="st38" points="299.3,156.1 299.3,156.1 299.3,156.1 	"/>
	<circle id="XMLID_1075_" class="st38" cx="299.3" cy="156.1" r="0"/>
	<polygon id="XMLID_1074_" class="st38" points="299.3,156.1 299.3,156.1 299.3,156.1 	"/>
	<polygon id="XMLID_1073_" class="st38" points="299.3,156.1 299.3,156.1 299.3,156.1 	"/>
	<polygon id="XMLID_1072_" class="st38" points="299.3,156.1 299.3,156.1 299.3,156.1 	"/>
	<polygon id="XMLID_1071_" class="st38" points="299.3,156.1 299.3,156.1 299.3,156.1 	"/>
	<polygon id="XMLID_1070_" class="st38" points="299.3,156.1 299.3,156.1 299.3,156.1 	"/>
	<circle id="XMLID_1069_" class="st38" cx="299.3" cy="156.1" r="0"/>
	<polygon id="XMLID_1068_" class="st38" points="299.3,156.1 299.3,156.1 299.3,156.1 	"/>
	<polygon id="XMLID_1067_" class="st38" points="299.3,156.1 299.3,156.1 299.3,156.1 	"/>
	<path id="XMLID_1066_" class="st39" d="M33.3,156.1h310.1c1,0,1.8,0.8,1.8,1.8v0.9c0,1-0.8,1.8-1.8,1.8H33.3c-1,0-1.8-0.8-1.8-1.8
		v-0.9C31.5,156.8,32.3,156.1,33.3,156.1z"/>
	<g id="XMLID_1055_">
		<g id="XMLID_1060_">
			<path id="XMLID_1065_" class="st3" d="M282.6,156.1l-1.7-9.7c-1.3,0.2-2.6,0.7-3.7,1.4L282.6,156.1L282.6,156.1z"/>
			<g id="XMLID_1063_">
				<path id="XMLID_1064_" class="st3" d="M284.7,146.4l-2.1,9.7l5.7-8.1C287.2,147.2,286,146.7,284.7,146.4z"/>
			</g>
			<path id="XMLID_1062_" class="st3" d="M282.6,156.1l9.8-1.6c0,0,0-0.1,0-0.1c-0.2-1.3-0.7-2.6-1.4-3.7L282.6,156.1L282.6,156.1
				L282.6,156.1z"/>
			<path id="XMLID_1061_" class="st3" d="M274.6,150.4c-0.8,1.1-1.3,2.4-1.6,3.6c0,0.2-0.1,0.3-0.1,0.5l9.8,1.6l0,0l0,0v0
				L274.6,150.4z"/>
		</g>
		<path id="XMLID_1059_" class="st12" d="M275.9,155l6.8,1.1l0,0v0l-5.6-4C276.4,152.9,276,153.9,275.9,155z"/>
		<path id="XMLID_1058_" class="st12" d="M278.9,150.3l3.7,5.8l0,0l-1.2-6.8C280.6,149.4,279.7,149.8,278.9,150.3z"/>
		<path id="XMLID_1057_" class="st12" d="M284.1,149.3l-1.5,6.7l4-5.6C285.9,149.9,285,149.5,284.1,149.3z"/>
		<path id="XMLID_1056_" class="st12" d="M289.4,155c-0.2-1-0.5-1.8-1-2.6l-5.8,3.7L289.4,155z"/>
	</g>
	<g id="XMLID_1044_">
		<g id="XMLID_1049_">
			<path id="XMLID_1054_" class="st3" d="M316.6,156.1l-1.7-9.7c-1.3,0.2-2.6,0.7-3.7,1.4L316.6,156.1L316.6,156.1z"/>
			<g id="XMLID_1052_">
				<path id="XMLID_1053_" class="st3" d="M318.7,146.4l-2.1,9.7l5.7-8.1C321.2,147.2,320,146.7,318.7,146.4z"/>
			</g>
			<path id="XMLID_1051_" class="st3" d="M316.6,156.1l9.8-1.6c0,0,0-0.1,0-0.1c-0.2-1.3-0.7-2.6-1.4-3.7L316.6,156.1L316.6,156.1
				L316.6,156.1z"/>
			<path id="XMLID_1050_" class="st3" d="M308.6,150.4c-0.8,1.1-1.3,2.4-1.6,3.6c0,0.2-0.1,0.3-0.1,0.5l9.8,1.6l0,0l0,0v0
				L308.6,150.4z"/>
		</g>
		<path id="XMLID_1048_" class="st12" d="M309.8,155l6.8,1.1l0,0v0l-5.6-4C310.4,152.9,310,153.9,309.8,155z"/>
		<path id="XMLID_1047_" class="st12" d="M312.9,150.3l3.7,5.8l0,0l-1.2-6.8C314.5,149.4,313.7,149.8,312.9,150.3z"/>
		<path id="XMLID_1046_" class="st12" d="M318.1,149.3l-1.5,6.7l4-5.6C319.9,149.9,319,149.5,318.1,149.3z"/>
		<path id="XMLID_1045_" class="st12" d="M323.4,155c-0.2-1-0.5-1.8-1-2.6l-5.8,3.7L323.4,155z"/>
	</g>
	<g id="XMLID_1010_">
		<g id="XMLID_1024_">
			<g id="XMLID_1038_">
				<polygon id="XMLID_1043_" class="st40" points="306.8,113 303.4,116.3 300.1,113 				"/>
				<polygon id="XMLID_1042_" class="st40" points="306.8,122.3 303.5,125.6 300.2,122.3 				"/>
				<polygon id="XMLID_1041_" class="st40" points="306.8,130.5 303.4,133.8 300.1,130.5 				"/>
				<polygon id="XMLID_1040_" class="st40" points="306.8,138.8 303.4,142.1 300.1,138.8 				"/>
				<polygon id="XMLID_1039_" class="st40" points="306.8,147.9 303.4,151.2 300.1,147.9 				"/>
			</g>
			<g id="XMLID_1032_">
				<polygon id="XMLID_1037_" class="st40" points="299.3,113 296,116.3 292.7,113 				"/>
				<polygon id="XMLID_1036_" class="st40" points="299.3,122.3 296,125.6 292.7,122.3 				"/>
				<polygon id="XMLID_1035_" class="st40" points="299.3,130.5 296,133.8 292.7,130.5 				"/>
				<polygon id="XMLID_1034_" class="st40" points="299.3,138.8 296,142.1 292.7,138.8 				"/>
				<polygon id="XMLID_1033_" class="st40" points="299.3,147.9 296,151.2 292.7,147.9 				"/>
			</g>
			<rect id="XMLID_1031_" x="296" y="96.6" class="st40" width="7.5" height="59.5"/>
			<g id="XMLID_1025_">
				<polygon id="XMLID_1030_" class="st41" points="303.4,151.2 303.4,147.9 300.6,147.9 298.9,147.9 296,147.9 296,151.2 
					299.7,148.5 				"/>
				<polygon id="XMLID_1029_" class="st42" points="299.7,139.4 303.4,142.1 303.4,138.8 300.6,138.8 298.9,138.8 296,138.8 
					296,142.1 				"/>
				<polygon id="XMLID_1028_" class="st41" points="298.9,130.5 296,130.5 296,133.8 299.7,131.1 303.4,133.8 303.4,130.5 
					300.6,130.5 				"/>
				<polygon id="XMLID_1027_" class="st41" points="296,116.3 299.7,113.6 303.4,116.3 303.4,113 300.6,113 298.9,113 296,113 				
					"/>
				<polygon id="XMLID_1026_" class="st42" points="298.9,122.3 296,122.3 296,125.6 299.8,122.9 303.5,125.6 303.5,122.3 
					300.6,122.3 				"/>
			</g>
		</g>
		<g id="XMLID_1011_">
			
				<rect id="XMLID_1023_" x="315" y="90.3" transform="matrix(0.7071 0.7071 -0.7071 0.7071 158.2558 -197.1738)" class="st12" width="4.3" height="4.3"/>
			
				<rect id="XMLID_1022_" x="297.6" y="69.4" transform="matrix(0.7071 0.7071 -0.7071 0.7071 138.3613 -190.9812)" class="st12" width="4.3" height="4.3"/>
			
				<rect id="XMLID_1021_" x="281.1" y="90.3" transform="matrix(0.7071 0.7071 -0.7071 0.7071 148.3248 -173.1989)" class="st12" width="4.3" height="4.3"/>
			<g id="XMLID_1019_">
				<polygon id="XMLID_1020_" class="st12" points="299.8,102.7 310.1,113 320.4,102.7 299.8,82 279.1,102.7 289.4,113 				"/>
			</g>
			<g id="XMLID_1017_">
				<polygon id="XMLID_1018_" class="st43" points="299.7,82 289.3,71.7 279,82 299.7,102.7 320.3,82 310,71.7 				"/>
			</g>
			
				<rect id="XMLID_1016_" x="292.3" y="85" transform="matrix(0.7071 0.7071 -0.7071 0.7071 153.1689 -184.8929)" class="st44" width="14.9" height="14.9"/>
			
				<rect id="XMLID_1015_" x="308.6" y="101.3" transform="matrix(0.7071 0.7071 -0.7071 0.7071 163.7939 -189.3095)" class="st43" width="3.5" height="3.5"/>
			
				<rect id="XMLID_1014_" x="287.2" y="101.3" transform="matrix(0.7071 0.7071 -0.7071 0.7071 157.5105 -174.1406)" class="st43" width="3.5" height="3.5"/>
			
				<rect id="XMLID_1013_" x="306.1" y="80.1" transform="matrix(0.7071 0.7071 -0.7071 0.7071 149.222 -194.2206)" class="st12" width="5.9" height="5.9"/>
			
				<rect id="XMLID_1012_" x="287.7" y="79.5" transform="matrix(0.7071 0.7071 -0.7071 0.7071 143.4371 -181.3855)" class="st12" width="5.9" height="5.9"/>
		</g>
	</g>
	<g id="XMLID_985_">
		<rect id="XMLID_1009_" x="257.7" y="129.5" class="st40" width="4.3" height="26.6"/>
		<g id="XMLID_1005_">
			<polygon id="XMLID_1008_" class="st40" points="263.9,151.4 262,153.3 260.1,151.4 			"/>
			<polygon id="XMLID_1007_" class="st40" points="259.6,151.4 257.7,153.3 255.8,151.4 			"/>
			<polygon id="XMLID_1006_" class="st41" points="262,153.3 262,151.4 260.3,151.4 259.3,151.4 257.7,151.4 257.7,153.3 
				259.8,151.7 			"/>
		</g>
		<g id="XMLID_1001_">
			<polygon id="XMLID_1004_" class="st40" points="263.9,147 262,149 260.1,147 			"/>
			<polygon id="XMLID_1003_" class="st40" points="259.6,147 257.7,149 255.8,147 			"/>
			<polygon id="XMLID_1002_" class="st42" points="259.8,147.4 262,149 262,147 260.3,147 259.3,147 257.7,147 257.7,149 			"/>
		</g>
		<g id="XMLID_997_">
			<polygon id="XMLID_1000_" class="st40" points="263.9,142.1 262,144 260.1,142.1 			"/>
			<polygon id="XMLID_999_" class="st40" points="259.6,142.1 257.7,144 255.8,142.1 			"/>
			<polygon id="XMLID_998_" class="st41" points="259.3,142.1 257.7,142.1 257.7,144 259.8,142.5 262,144 262,142.1 260.3,142.1 			
				"/>
		</g>
		<g id="XMLID_986_">
			<g id="XMLID_995_">
				<polygon id="XMLID_996_" class="st12" points="259.9,136.1 265.8,142.1 271.8,136.1 259.9,124.2 247.9,136.1 253.9,142.1 				
					"/>
			</g>
			<g id="XMLID_993_">
				<polygon id="XMLID_994_" class="st43" points="259.8,124.2 253.8,118.2 247.9,124.2 259.8,136.1 271.7,124.2 265.8,118.2 				
					"/>
			</g>
			
				<rect id="XMLID_992_" x="263.5" y="123.1" transform="matrix(0.7071 0.7071 -0.7071 0.7071 165.9238 -150.9798)" class="st12" width="3.4" height="3.4"/>
			
				<rect id="XMLID_991_" x="271.6" y="128.8" transform="matrix(0.7071 0.7071 -0.7071 0.7071 172.2968 -155.0312)" class="st12" width="3.4" height="3.4"/>
			
				<rect id="XMLID_990_" x="257.9" y="113.3" transform="matrix(0.7071 0.7071 -0.7071 0.7071 157.3231 -149.8833)" class="st12" width="3.4" height="3.4"/>
			
				<rect id="XMLID_989_" x="255.6" y="126" transform="matrix(0.7071 0.7071 -0.7071 0.7071 168.1595 -145.6198)" class="st3" width="8.4" height="8.4"/>
			
				<rect id="XMLID_988_" x="246.2" y="128.8" transform="matrix(0.7071 0.7071 -0.7071 0.7071 164.8529 -137.0601)" class="st12" width="3.4" height="3.4"/>
			
				<rect id="XMLID_987_" x="252.9" y="122.8" transform="matrix(0.7071 0.7071 -0.7071 0.7071 162.5862 -143.5794)" class="st12" width="3.4" height="3.4"/>
		</g>
	</g>
	<g id="XMLID_978_">
		<circle id="XMLID_984_" class="st45" cx="328.8" cy="153.4" r="0.7"/>
		<circle id="XMLID_983_" class="st45" cx="309" cy="147" r="0.7"/>
		<circle id="XMLID_982_" class="st45" cx="269.6" cy="154.1" r="0.7"/>
		<circle id="XMLID_981_" class="st45" cx="324.8" cy="147.9" r="0.7"/>
		<circle id="XMLID_980_" class="st45" cx="290.8" cy="148" r="0.7"/>
		<circle id="XMLID_979_" class="st45" cx="275.1" cy="147.3" r="0.7"/>
	</g>
	<g id="XMLID_967_">
		<circle id="XMLID_977_" class="st3" cx="130.2" cy="145.9" r="0.9"/>
		<circle id="XMLID_976_" class="st3" cx="140" cy="145.9" r="0.9"/>
		<circle id="XMLID_975_" class="st3" cx="149.8" cy="145.9" r="0.9"/>
		<circle id="XMLID_974_" class="st3" cx="159.6" cy="145.9" r="0.9"/>
		<circle id="XMLID_973_" class="st3" cx="169.4" cy="145.9" r="0.9"/>
		<circle id="XMLID_972_" class="st3" cx="179.2" cy="145.9" r="0.9"/>
		<circle id="XMLID_971_" class="st3" cx="188.9" cy="145.9" r="0.9"/>
		<circle id="XMLID_970_" class="st3" cx="198.7" cy="145.9" r="0.9"/>
		<circle id="XMLID_969_" class="st3" cx="208.5" cy="145.9" r="0.9"/>
		<circle id="XMLID_968_" class="st3" cx="218.3" cy="145.9" r="0.9"/>
	</g>
	<path id="XMLID_966_" class="st4" d="M207.6,98.1h24.8v2.5h-24.8c-0.5,0-1-0.4-1-1v-0.5C206.6,98.5,207.1,98.1,207.6,98.1z"/>
	<path id="XMLID_22_" class="st32" d="M232.4,100.6h-25.8c0,0-2.6,1.6-6.4,3.9h3.6c1.4,0,2.5,1.1,2.5,2.5V118c0,1,0.8,1.8,1.8,1.8
		s1.8-0.8,1.8-1.8v-12.2c0-0.8,0.6-1.4,1.4-1.4c0.8,0,1.4,0.6,1.4,1.4v6.1c0,0.8,0.6,1.4,1.4,1.4s1.4-0.6,1.4-1.4v-3.2
		c0-0.8,0.6-1.4,1.4-1.4c0.8,0,1.4,0.6,1.4,1.4v14.7c0,1.6,1.3,2.8,2.8,2.8c1.6,0,2.8-1.3,2.8-2.8v-18.3c0-0.8,0.7-1.5,1.5-1.5
		c0.8,0,1.5,0.7,1.5,1.5v10.7c0,1.3,1,2.3,2.3,2.3c1.3,0,2.3-1,2.3-2.3v-5.7c0-0.6,0.5-1.1,1.1-1.1s1.1,0.5,1.1,1.1v1.9
		c0,1,0.8,1.8,1.8,1.8c1,0,1.8-0.8,1.8-1.8v-8.6L232.4,100.6z"/>
	
		<rect id="XMLID_964_" x="91.5" y="102.2" transform="matrix(0.7071 0.7071 -0.7071 0.7071 99.9234 -35.1238)" class="st12" width="1.7" height="1.7"/>
	
		<rect id="XMLID_963_" x="80.6" y="93.1" transform="matrix(0.7071 0.7071 -0.7071 0.7071 90.3093 -30.0952)" class="st12" width="1.7" height="1.7"/>
	
		<rect id="XMLID_962_" x="77.5" y="88.6" transform="matrix(0.7071 0.7071 -0.7071 0.7071 86.2398 -29.2364)" class="st12" width="1.7" height="1.7"/>
	
		<rect id="XMLID_961_" x="98.5" y="62" transform="matrix(0.7071 0.7071 -0.7071 0.7071 73.5858 -51.8129)" class="st12" width="1.7" height="1.7"/>
	
		<rect id="XMLID_960_" x="146.9" y="68" transform="matrix(0.7071 0.7071 -0.7071 0.7071 91.9986 -84.3313)" class="st12" width="1.7" height="1.7"/>
	
		<rect id="XMLID_959_" x="165.1" y="97" transform="matrix(0.7071 0.7071 -0.7071 0.7071 117.8606 -88.7076)" class="st30" width="1.7" height="1.7"/>
	
		<rect id="XMLID_958_" x="167.6" y="87.8" transform="matrix(0.7071 0.7071 -0.7071 0.7071 112.069 -93.1458)" class="st12" width="1.7" height="1.7"/>
	
		<rect id="XMLID_957_" x="148.9" y="105.2" transform="matrix(0.7071 0.7071 -0.7071 0.7071 118.8545 -74.85)" class="st12" width="1.7" height="1.7"/>
	
		<rect id="XMLID_956_" x="164.6" y="121.2" transform="matrix(0.7071 0.7071 -0.7071 0.7071 134.7906 -81.2216)" class="st12" width="1.7" height="1.7"/>
	
		<rect id="XMLID_955_" x="153.5" y="99.7" transform="matrix(0.7071 0.7071 -0.7071 0.7071 116.314 -79.6695)" class="st30" width="1.7" height="1.7"/>
	
		<rect id="XMLID_954_" x="145.7" y="97.2" transform="matrix(0.7071 0.7071 -0.7071 0.7071 112.287 -74.9052)" class="st3" width="1.7" height="1.7"/>
	
		<rect id="XMLID_953_" x="168.8" y="115.8" transform="matrix(0.7071 0.7071 -0.7071 0.7071 132.2237 -85.8301)" class="st3" width="1.7" height="1.7"/>
	
		<rect id="XMLID_952_" x="133.5" y="83.8" transform="matrix(0.7071 0.7071 -0.7071 0.7071 99.2405 -70.2504)" class="st12" width="1.7" height="1.7"/>
	
		<rect id="XMLID_951_" x="159.7" y="88.2" transform="matrix(0.7071 0.7071 -0.7071 0.7071 110.0233 -87.4711)" class="st12" width="1.7" height="1.7"/>
	
		<rect id="XMLID_950_" x="143.2" y="52.1" transform="matrix(0.7071 0.7071 -0.7071 0.7071 79.6203 -86.3685)" class="st30" width="1.7" height="1.7"/>
	
		<rect id="XMLID_949_" x="137" y="56.5" transform="matrix(0.7071 0.7071 -0.7071 0.7071 80.9563 -80.7165)" class="st12" width="1.7" height="1.7"/>
	
		<rect id="XMLID_948_" x="96" y="74.1" transform="matrix(0.7071 0.7071 -0.7071 0.7071 81.3637 -46.5463)" class="st3" width="1.7" height="1.7"/>
	
		<rect id="XMLID_947_" x="100.8" y="78.5" transform="matrix(0.7071 0.7071 -0.7071 0.7071 85.9364 -48.6341)" class="st3" width="1.7" height="1.7"/>
	
		<rect id="XMLID_946_" x="77.3" y="104.7" transform="matrix(0.7071 0.7071 -0.7071 0.7071 97.5183 -24.3822)" class="st3" width="1.7" height="1.7"/>
	
		<rect id="XMLID_945_" x="102" y="71.7" transform="matrix(0.7071 0.7071 -0.7071 0.7071 81.4645 -51.5059)" class="st3" width="1.7" height="1.7"/>
	
		<rect id="XMLID_944_" x="83.6" y="101.7" transform="matrix(0.7071 0.7071 -0.7071 0.7071 97.2706 -29.6877)" class="st3" width="1.7" height="1.7"/>
	
		<rect id="XMLID_943_" x="89.8" y="66.8" transform="matrix(0.7071 0.7071 -0.7071 0.7071 74.3997 -44.3121)" class="st12" width="1.7" height="1.7"/>
	
		<rect id="XMLID_942_" x="93.1" y="58.8" transform="matrix(0.7071 0.7071 -0.7071 0.7071 69.7037 -49.0137)" class="st12" width="1.7" height="1.7"/>
	
		<rect id="XMLID_941_" x="133.5" y="71.9" transform="matrix(0.7071 0.7071 -0.7071 0.7071 90.8142 -73.7364)" class="st3" width="1.7" height="1.7"/>
	
		<rect id="XMLID_940_" x="137" y="66" transform="matrix(0.7071 0.7071 -0.7071 0.7071 87.6953 -77.9249)" class="st3" width="1.7" height="1.7"/>
	<polygon id="XMLID_939_" class="st2" points="144.2,107.3 140.9,110.7 137.6,107.3 	"/>
	<polygon id="XMLID_938_" class="st2" points="129.6,83 126.2,86.3 122.9,83 	"/>
	<polygon id="XMLID_937_" class="st2" points="152.9,123.3 149.6,126.6 146.3,123.3 	"/>
	<polygon id="XMLID_936_" class="st11" points="89,118.4 85.7,121.7 82.4,118.4 	"/>
	<polygon id="XMLID_935_" class="st11" points="112.2,92.2 107.3,97.1 102.4,92.2 	"/>
	<polygon id="XMLID_934_" class="st2" points="185,131.1 180.1,136 175.2,131.1 	"/>
	<polygon id="XMLID_933_" class="st11" points="115.4,84.7 112.1,88 108.9,84.7 	"/>
	<polygon id="XMLID_932_" class="st2" points="193.2,125.5 189.9,128.8 186.6,125.5 	"/>
	<polygon id="XMLID_931_" class="st11" points="135.7,127.8 132.4,131.1 129.1,127.8 	"/>
	<polygon id="XMLID_930_" class="st2" points="154,127.9 150.7,131.2 147.4,127.9 	"/>
	<path id="XMLID_929_" class="st4" d="M230,132.2h-0.8c-0.9,0-1.6-0.7-1.6-1.6v-6.8c0-0.9,0.7-1.6,1.6-1.6h0.8
		c0.9,0,1.6,0.7,1.6,1.6v6.8C231.6,131.5,230.9,132.2,230,132.2z"/>
	<circle id="XMLID_928_" class="st4" cx="200.3" cy="111.3" r="2"/>
	<path id="XMLID_927_" class="st4" d="M221.5,118.2H221c-0.5,0-1-0.4-1-1v-12c0-0.5,0.4-1,1-1h0.5c0.5,0,1,0.4,1,1v12
		C222.4,117.8,222,118.2,221.5,118.2z"/>
	<path id="XMLID_926_" class="st4" d="M208.2,108.8h-0.3c-0.4,0-0.6-0.3-0.6-0.6v-4.7c0-0.4,0.3-0.6,0.6-0.6h0.3
		c0.4,0,0.6,0.3,0.6,0.6v4.7C208.9,108.5,208.6,108.8,208.2,108.8z"/>
	<path id="XMLID_925_" class="st4" d="M215.4,106.5h-0.6c-0.7,0-1.2-0.5-1.2-1.2v-5.2h3v5.2C216.7,106,216.1,106.5,215.4,106.5z"/>
	<path id="XMLID_924_" class="st4" d="M231,107.2h-0.7c-0.8,0-1.4-0.6-1.4-1.4v-5.2h3.6v5.2C232.4,106.6,231.8,107.2,231,107.2z"/>
	<circle id="XMLID_923_" class="st46" cx="235.9" cy="116.7" r="0.8"/>
	<circle id="XMLID_922_" class="st4" cx="220" cy="80.9" r="1.5"/>
	<circle id="XMLID_921_" class="st4" cx="215.9" cy="92.7" r="1.5"/>
	<circle id="XMLID_920_" class="st4" cx="227.3" cy="95.1" r="1.5"/>
	<g id="XMLID_918_">
		<polygon id="XMLID_919_" class="st43" points="323.4,67.6 322.4,66.5 321.3,67.6 323.4,69.7 325.5,67.6 324.5,66.5 		"/>
	</g>
	<g id="XMLID_911_">
		<g id="XMLID_916_">
			<polygon id="XMLID_917_" class="st47" points="280.7,119.3 279.7,118.3 278.6,119.3 280.7,121.5 282.8,119.3 281.8,118.3 			"/>
		</g>
		<g id="XMLID_914_">
			<polygon id="XMLID_915_" class="st47" points="319.5,115.4 318.4,114.3 317.4,115.4 319.5,117.5 321.6,115.4 320.5,114.3 			"/>
		</g>
		<g id="XMLID_912_">
			<polygon id="XMLID_913_" class="st47" points="270.9,105.7 268.9,103.7 266.8,105.7 270.9,109.8 274.9,105.7 272.9,103.7 			"/>
		</g>
	</g>
	<g id="XMLID_906_">
		<path id="XMLID_910_" class="st5" d="M44.5,136.8c-2.3,0-4.1,1.8-4.1,4.1h8.2C48.6,138.6,46.8,136.8,44.5,136.8z"/>
		<circle id="XMLID_909_" class="st3" cx="44.5" cy="136.8" r="2"/>
		<rect id="XMLID_908_" x="38.5" y="140.9" class="st6" width="12" height="2.5"/>
		
			<rect id="XMLID_907_" x="37.4" y="147.6" transform="matrix(-1.836970e-16 1 -1 -1.836970e-16 193.3413 104.3502)" class="st6" width="14.2" height="2.5"/>
	</g>
	<circle id="XMLID_905_" class="st23" cx="104.5" cy="132.4" r="2.1"/>
	<circle id="XMLID_904_" class="st23" cx="89.6" cy="128.6" r="2.1"/>
	<circle id="XMLID_903_" class="st23" cx="112.2" cy="143" r="2.1"/>
	<circle id="XMLID_902_" class="st23" cx="74.7" cy="132.9" r="2.1"/>
	<circle id="XMLID_901_" class="st23" cx="66.3" cy="142.2" r="2.1"/>
	
		<rect id="XMLID_900_" x="117.2" y="110.7" transform="matrix(0.7071 -0.7071 0.7071 0.7071 -45.3949 118.7029)" class="st3" width="6.8" height="6.8"/>
	<path id="XMLID_899_" class="st16" d="M66.7,91.3h-0.5c-0.6,0-1.1-0.5-1.1-1.1V55.2h2.6v35.1C67.7,90.9,67.2,91.3,66.7,91.3z"/>
	<path id="XMLID_898_" class="st16" d="M73.1,76.5h-0.5c-0.6,0-1.1-0.5-1.1-1.1V53.5h2.6v21.9C74.2,76,73.7,76.5,73.1,76.5z"/>
	<path id="XMLID_897_" class="st16" d="M27.1,120.8h-0.5c-0.6,0-1.1-0.5-1.1-1.1v-14.2h2.6v14.2C28.1,120.3,27.7,120.8,27.1,120.8z"
		/>
	<g id="XMLID_891_">
		
			<rect id="XMLID_896_" x="40.8" y="58.1" transform="matrix(0.7071 0.7071 -0.7071 0.7071 54.8106 -12.5749)" class="st12" width="3.6" height="3.6"/>
		
			<rect id="XMLID_895_" x="40.8" y="63.1" transform="matrix(0.7071 0.7071 -0.7071 0.7071 58.3643 -11.1026)" class="st12" width="3.6" height="3.6"/>
		
			<rect id="XMLID_894_" x="40.8" y="68.2" transform="matrix(0.7071 0.7071 -0.7071 0.7071 61.9194 -9.63)" class="st12" width="3.6" height="3.6"/>
		
			<rect id="XMLID_893_" x="40.8" y="73.2" transform="matrix(0.7071 0.7071 -0.7071 0.7071 65.4761 -8.157)" class="st12" width="3.6" height="3.6"/>
		
			<rect id="XMLID_892_" x="40.8" y="78.2" transform="matrix(0.7071 0.7071 -0.7071 0.7071 69.0296 -6.6849)" class="st12" width="3.6" height="3.6"/>
	</g>
</g>
</svg>
