<?xml version="1.0" encoding="utf-8"?>
<!-- Generator: Adobe Illustrator 21.0.0, SVG Export Plug-In . SVG Version: 6.00 Build 0)  -->
<svg version="1.1" id="Layer_1" xmlns="http://www.w3.org/2000/svg" xmlns:xlink="http://www.w3.org/1999/xlink" x="0px" y="0px"
	 viewBox="0 0 63.9 55" style="enable-background:new 0 0 63.9 55;" xml:space="preserve">
<style type="text/css">
	.st0{fill:#DEDEDD;}
	.st1{fill:#5FE0ED;}
	.st2{fill:none;}
	.st3{fill:#48515A;}
	.st4{fill:#FFD15D;}
	.st5{fill:#FFFFFF;}
</style>
<g>
	<g>
		<g>
			<g>
				<g>
					<path class="st0" d="M32,8L32,8c0-2.2,1.8-4,4-4h10c2.2,0,4-1.8,4-4l0,0h4v2.1C54,8.7,48.7,14,42.1,14l0,0
						c-2.5,0-4.9,1.3-6.3,3.4l0,0c-1.1,1.7-1.5,3.7-1.1,5.7l4.6,22.7l-14.6,0.5l4.8-23.2c0.4-2,0-4-1.1-5.7l0,0
						c-1.4-2.1-3.8-3.4-6.3-3.4h0C15.3,14,10,8.7,10,2.1V0h4l0,0c0,2.2,1.8,4,4,4h10C30.2,4,32,5.8,32,8L32,8"/>
				</g>
			</g>
		</g>
		<g>
			<g>
				<g>
					<path class="st1" d="M1,49.5c0,2.4,2,4.4,4.4,4.4c2.4,0,4.4-2,4.4-4.4c0,2.4,2,4.4,4.4,4.4c2.4,0,4.4-2,4.4-4.4
						c0,2.4,2,4.4,4.4,4.4c2.4,0,4.4-2,4.4-4.4h0c0,2.4,2,4.4,4.4,4.4c2.4,0,4.4-2,4.4-4.4h0c0,2.4,2,4.4,4.4,4.4
						c2.4,0,4.4-2,4.4-4.4h0c0,2.4,2,4.4,4.4,4.4c2.4,0,4.4-2,4.4-4.4h0c0,2.4,2,4.4,4.4,4.4c2.4,0,4.4-2,4.4-4.4v-8
						c0,2.4-2,4.4-4.4,4.4c-2.4,0-4.4-1-4.4-3.4h0c0,2.4-2,3.4-4.4,3.4c-2.4,0-4.4-1-4.4-3.4h0c0,2.4-2,3.4-4.4,3.4
						c-2.4,0-4.4-1-4.4-3.4h0c0,2.4-2,3.4-4.4,3.4c-2.4,0-4.4-1-4.4-3.4h0c0,2.4-2,3.4-4.4,3.4c-2.4,0-4.4-2-4.4-4.4
						c0,2.4-2,4.4-4.4,4.4c-2.4,0-4.4-2-4.4-4.4c0,2.4-2,4.4-4.4,4.4c-2.4,0-4.4-2-4.4-4.4V49.5z"/>
				</g>
				<g>
					<path class="st1" d="M23.1,54.9c-1.8,0-3.4-0.9-4.4-2.3c-1,1.4-2.6,2.3-4.4,2.3c-1.8,0-3.4-0.9-4.4-2.3c-1,1.4-2.6,2.3-4.4,2.3
						c-3,0-5.4-2.4-5.4-5.4v-8h2c0,1.9,1.5,3.4,3.4,3.4s3.4-1.5,3.4-3.4h2c0,1.9,1.5,3.4,3.4,3.4c1.9,0,3.4-1.5,3.4-3.4h2
						c0,1.9,1.5,3.4,3.4,3.4c1.6,0,3.4-0.4,3.4-2.4v-1h2l0,1c0,1.6,1.2,2.4,3.4,2.4c2.3,0,3.4-0.8,3.4-2.4l0-1h2l0,1
						c0,1.6,1.2,2.4,3.4,2.4c2.3,0,3.4-0.8,3.4-2.4l0-1h2l0,1c0,1.6,1.2,2.4,3.4,2.4c2.3,0,3.4-0.8,3.4-2.4l0-1h2l0,1
						c0,1.6,1.2,2.4,3.4,2.4c1.9,0,3.4-1.5,3.4-3.4l2,0v8c0,3-2.5,5.4-5.4,5.4c-1.8,0-3.4-0.9-4.4-2.3c-1,1.4-2.6,2.3-4.4,2.3
						c-1.8,0-3.4-0.9-4.4-2.3c-1,1.4-2.6,2.3-4.4,2.3c-1.8,0-3.4-0.9-4.4-2.3c-1,1.4-2.6,2.3-4.4,2.3c-1.8,0-3.4-0.9-4.4-2.3
						C26.6,54,24.9,54.9,23.1,54.9z M17.7,49.5h2c0,1.9,1.5,3.4,3.4,3.4s3.4-1.5,3.4-3.4v-1h2l0,1c0,1.9,1.6,3.4,3.4,3.4
						c1.9,0,3.4-1.5,3.4-3.4l0-1h2l0,1c0,1.9,1.6,3.4,3.4,3.4c1.9,0,3.4-1.5,3.4-3.4l0-1h2l0,1c0,1.9,1.6,3.4,3.4,3.4
						c1.9,0,3.4-1.5,3.4-3.4l0-1h2l0,1c0,1.9,1.6,3.4,3.4,3.4c1.9,0,3.4-1.5,3.4-3.4v-3.8c-0.9,0.8-2.1,1.2-3.4,1.2
						c-2,0-3.5-0.6-4.4-1.6c-0.9,1-2.4,1.6-4.4,1.6c-2,0-3.5-0.6-4.4-1.6c-0.9,1-2.4,1.6-4.4,1.6c-2,0-3.5-0.6-4.4-1.6
						c-0.9,1-2.4,1.6-4.4,1.6c-2,0-3.5-0.6-4.4-1.6c-0.9,1-2.5,1.6-4.4,1.6c-1.8,0-3.4-0.9-4.4-2.3c-1,1.4-2.6,2.3-4.4,2.3
						c-1.8,0-3.4-0.9-4.4-2.3c-1,1.4-2.6,2.3-4.4,2.3c-1.3,0-2.5-0.5-3.4-1.2v3.8c0,1.9,1.5,3.4,3.4,3.4s3.4-1.5,3.4-3.4h2
						c0,1.9,1.5,3.4,3.4,3.4C16.2,52.9,17.7,51.4,17.7,49.5z"/>
				</g>
			</g>
		</g>
		<g>
			<g>
				<path class="st2" d="M45.2,41.5L45.2,41.5C45.2,41.5,45.2,41.5,45.2,41.5C45.2,41.5,45.2,41.5,45.2,41.5z"/>
			</g>
		</g>
		<g>
			<g>
				<path class="st2" d="M36.4,41.5L36.4,41.5C36.4,41.5,36.4,41.5,36.4,41.5C36.4,41.5,36.4,41.5,36.4,41.5z"/>
			</g>
		</g>
		<g>
			<g>
				<path class="st3" d="M5.4,46.9c-3,0-5.4-2.4-5.4-5.4h2c0,1.9,1.5,3.4,3.4,3.4s3.4-1.5,3.4-3.4h2C10.8,44.5,8.4,46.9,5.4,46.9z"
					/>
			</g>
		</g>
		<g>
			<g>
				<path class="st3" d="M14.3,46.9c-3,0-5.4-2.4-5.4-5.4h2c0,1.9,1.5,3.4,3.4,3.4c1.9,0,3.4-1.5,3.4-3.4h2
					C19.7,44.5,17.3,46.9,14.3,46.9z"/>
			</g>
		</g>
		<g>
			<g>
				<path class="st3" d="M23.1,46.9c-3,0-5.4-2.4-5.4-5.4h2c0,1.9,1.5,3.4,3.4,3.4s3.4-1.5,3.4-3.4h2C28.5,44.5,26.1,46.9,23.1,46.9
					z"/>
			</g>
		</g>
		<g>
			<g>
				<path class="st3" d="M32,46.9c-3,0-5.4-2.4-5.4-5.4l2,0c0,1.9,1.6,3.4,3.4,3.4c1.9,0,3.4-1.5,3.4-3.4l2,0
					C37.3,44.5,34.9,46.9,32,46.9z"/>
			</g>
		</g>
		<g>
			<g>
				<path class="st3" d="M40.8,46.9c-3,0-5.4-2.4-5.4-5.4l2,0c0,1.9,1.6,3.4,3.4,3.4c1.9,0,3.4-1.5,3.4-3.4l2,0
					C46.2,44.5,43.8,46.9,40.8,46.9z"/>
			</g>
		</g>
		<g>
			<g>
				<circle class="st2" cx="36.4" cy="41.4" r="0"/>
			</g>
		</g>
		<g>
			<g>
				<path class="st3" d="M58.5,46.9c-3,0-5.4-2.4-5.4-5.4l2,0c0,1.9,1.6,3.4,3.4,3.4c1.9,0,3.4-1.5,3.4-3.4l2,0
					C63.9,44.5,61.4,46.9,58.5,46.9z"/>
			</g>
		</g>
		<g>
			<g>
				<path class="st3" d="M49.6,46.9c-3,0-5.4-2.4-5.4-5.4l2,0c0,1.9,1.6,3.4,3.4,3.4c1.9,0,3.4-1.5,3.4-3.4l2,0
					C55,44.5,52.6,46.9,49.6,46.9z"/>
			</g>
		</g>
		<g>
			<g>
				<path class="st2" d="M45.2,49.6L45.2,49.6C45.2,49.6,45.2,49.6,45.2,49.6C45.2,49.6,45.2,49.6,45.2,49.6z"/>
			</g>
		</g>
		<g>
			<g>
				<path class="st2" d="M36.4,49.6L36.4,49.6C36.4,49.6,36.4,49.6,36.4,49.6C36.4,49.6,36.4,49.6,36.4,49.6z"/>
			</g>
		</g>
		<g>
			<g>
				<path class="st3" d="M5.4,55c-3,0-5.4-2.4-5.4-5.4h2C2,51.5,3.5,53,5.4,53s3.4-1.5,3.4-3.4h2C10.8,52.6,8.4,55,5.4,55z"/>
			</g>
		</g>
		<g>
			<g>
				<path class="st3" d="M14.3,55c-3,0-5.4-2.4-5.4-5.4h2c0,1.9,1.5,3.4,3.4,3.4c1.9,0,3.4-1.5,3.4-3.4h2C19.7,52.6,17.3,55,14.3,55
					z"/>
			</g>
		</g>
		<g>
			<g>
				<path class="st3" d="M23.1,55c-3,0-5.4-2.4-5.4-5.4h2c0,1.9,1.5,3.4,3.4,3.4s3.4-1.5,3.4-3.4h2C28.5,52.6,26.1,55,23.1,55z"/>
			</g>
		</g>
		<g>
			<g>
				<path class="st3" d="M32,55c-3,0-5.4-2.4-5.4-5.4l2,0c0,1.9,1.6,3.4,3.4,3.4c1.9,0,3.4-1.5,3.4-3.4l2,0C37.3,52.6,34.9,55,32,55
					z"/>
			</g>
		</g>
		<g>
			<g>
				<path class="st3" d="M40.8,55c-3,0-5.4-2.4-5.4-5.4l2,0c0,1.9,1.6,3.4,3.4,3.4c1.9,0,3.4-1.5,3.4-3.4l2,0
					C46.2,52.6,43.8,55,40.8,55z"/>
			</g>
		</g>
		<g>
			<g>
				<circle class="st2" cx="36.4" cy="49.6" r="0"/>
			</g>
		</g>
		<g>
			<g>
				<path class="st3" d="M58.5,55c-3,0-5.4-2.4-5.4-5.4l2,0c0,1.9,1.6,3.4,3.4,3.4c1.9,0,3.4-1.5,3.4-3.4l2,0
					C63.9,52.6,61.4,55,58.5,55z"/>
			</g>
		</g>
		<g>
			<g>
				<path class="st3" d="M49.6,55c-3,0-5.4-2.4-5.4-5.4l2,0c0,1.9,1.6,3.4,3.4,3.4c1.9,0,3.4-1.5,3.4-3.4l2,0
					C55,52.6,52.6,55,49.6,55z"/>
			</g>
		</g>
		<g>
			<g>
				<path class="st3" d="M27,40.2l-2-0.4l3.4-16.9c0.3-1.7,0-3.5-1-5c-1.2-1.8-3.3-2.9-5.5-2.9C14.8,15,9,9.2,9,2.1V0h2v2.1
					c0,6,4.9,10.9,10.9,10.9c2.9,0,5.6,1.4,7.2,3.8c1.3,1.9,1.7,4.2,1.3,6.5L27,40.2z"/>
			</g>
		</g>
		<g>
			<g>
				<path class="st3" d="M33,8h-2c0-1.7-1.3-3-3-3V3C30.8,3,33,5.2,33,8z"/>
			</g>
		</g>
		<g>
			<g>
				<path class="st3" d="M18,5c-2.8,0-5-2.2-5-5h2c0,1.7,1.3,3,3,3V5z"/>
			</g>
		</g>
		<g>
			<g>
				<path class="st3" d="M42.1,15v-2C48.1,13,53,8.1,53,2.1V0h2v2.1C55,9.2,49.2,15,42.1,15z"/>
			</g>
		</g>
		<g>
			<g>
				<path class="st3" d="M37,40.2l-3.4-16.9c-0.4-2.2,0-4.6,1.3-6.5l1.7,1.1c-1,1.4-1.3,3.2-1,5L39,39.8L37,40.2z"/>
			</g>
		</g>
		<g>
			<g>
				<path class="st3" d="M33,8h-2c0-2.8,2.2-5,5-5h10c1.7,0,3-1.3,3-3h2c0,2.8-2.2,5-5,5H36C34.3,5,33,6.3,33,8z"/>
			</g>
		</g>
		<g>
			<g>
				<g>
					<line class="st4" x1="23" y1="34" x2="23" y2="26"/>
				</g>
				<g>
					<rect x="22" y="26" class="st4" width="2" height="8"/>
				</g>
			</g>
			<g>
				<g>
					<line class="st4" x1="23" y1="24" x2="23" y2="22"/>
				</g>
				<g>
					<rect x="22" y="22" class="st4" width="2" height="2"/>
				</g>
			</g>
		</g>
		<g>
			<g>
				<g>
					<line class="st4" x1="18.2" y1="34.8" x2="14.7" y2="27.6"/>
				</g>
				<g>
					<rect x="15.5" y="27.2" transform="matrix(0.901 -0.4339 0.4339 0.901 -11.9095 10.2369)" class="st4" width="2" height="8"/>
				</g>
			</g>
			<g>
				<g>
					<line class="st4" x1="13.9" y1="25.8" x2="13" y2="24"/>
				</g>
				<g>
					<rect x="12.4" y="23.9" transform="matrix(0.9011 -0.4337 0.4337 0.9011 -9.4703 8.2899)" class="st4" width="2" height="2"/>
				</g>
			</g>
		</g>
		<g>
			<g>
				<g>
					<line class="st4" x1="14.4" y1="38" x2="8.1" y2="33.1"/>
				</g>
				<g>
					
						<rect x="10.3" y="31.5" transform="matrix(0.6173 -0.7867 0.7867 0.6173 -23.6315 22.4793)" class="st4" width="2" height="8"/>
				</g>
			</g>
			<g>
				<g>
					<line class="st4" x1="6.6" y1="31.8" x2="5" y2="30.6"/>
				</g>
				<g>
					<rect x="4.8" y="30.2" transform="matrix(0.6175 -0.7866 0.7866 0.6175 -22.3366 16.4898)" class="st4" width="2" height="2"/>
				</g>
			</g>
		</g>
		<g>
			<g>
				<g>
					<line class="st4" x1="41" y1="34" x2="41" y2="26"/>
				</g>
				<g>
					<rect x="40" y="26" class="st4" width="2" height="8"/>
				</g>
			</g>
			<g>
				<g>
					<line class="st4" x1="41" y1="24" x2="41" y2="22"/>
				</g>
				<g>
					<rect x="40" y="22" class="st4" width="2" height="2"/>
				</g>
			</g>
		</g>
		<g>
			<g>
				<g>
					<line class="st4" x1="45.8" y1="34.8" x2="49.3" y2="27.6"/>
				</g>
				<g>
					<rect x="43.5" y="30.2" transform="matrix(0.4335 -0.9012 0.9012 0.4335 -1.198 60.5103)" class="st4" width="8" height="2"/>
				</g>
			</g>
			<g>
				<g>
					<line class="st4" x1="50.1" y1="25.8" x2="51" y2="24"/>
				</g>
				<g>
					<rect x="49.6" y="23.9" transform="matrix(0.4339 -0.901 0.901 0.4339 6.1911 59.6544)" class="st4" width="2" height="2"/>
				</g>
			</g>
		</g>
		<g>
			<g>
				<g>
					<line class="st4" x1="49.6" y1="38" x2="55.9" y2="33.1"/>
				</g>
				<g>
					<rect x="48.7" y="34.5" transform="matrix(0.7869 -0.617 0.617 0.7869 -10.694 40.0921)" class="st4" width="8" height="2"/>
				</g>
			</g>
			<g>
				<g>
					<line class="st4" x1="57.4" y1="31.8" x2="59" y2="30.6"/>
				</g>
				<g>
					<rect x="57.2" y="30.2" transform="matrix(0.7869 -0.6171 0.6171 0.7869 -6.8547 42.5715)" class="st4" width="2" height="2"/>
				</g>
			</g>
		</g>
		<g>
			<g>
				<g>
					<g>
						<path class="st5" d="M29.4,38.2l-2-0.4l2.9-14.5c0.4-2.3,0-4.5-1.3-6.5c-1.6-2.4-4.3-3.8-7.2-3.8C15.9,13,11,8.1,11,2.1v-1
							L13,1l0.2,0.7C14,3.7,15.9,5,18,5h10c1.7,0,3,1.3,3,3h-2c0-0.6-0.4-1-1-1H18c-1.6,0-3.1-0.5-4.3-1.5c1.4,3.2,4.5,5.5,8.2,5.5
							c3.6,0,6.8,1.8,8.8,4.7c1.6,2.4,2.1,5.2,1.6,8L29.4,38.2z M34.6,38.2L33.3,32l2-0.4l1.2,6.2L34.6,38.2z M42.1,13v-2
							c3.7,0,6.9-2.3,8.2-5.5C49.1,6.5,47.6,7,46,7H36V5h10c2.1,0,4-1.3,4.7-3.3L51,1h2v1C53,8.1,48.1,13,42.1,13z"/>
					</g>
				</g>
			</g>
		</g>
	</g>
</g>
</svg>
