<svg xmlns="http://www.w3.org/2000/svg" viewBox="0 0 33.21 63.92"><defs><style>.cls-1{fill:#fff;}.cls-2{fill:#48515a;}.cls-3{fill:#ffd15d;}</style></defs><title>ELEM_noproduct</title><g id="Layer_2" data-name="Layer 2"><g id="Layer_1-2" data-name="Layer 1"><path class="cls-1" d="M31,54.7l0,0-.16-.13c0-.05-.08-.11-.13-.16L9.54,33.17a5,5,0,1,0-7.07,7.07L23.68,61.45l.16.13c0,.05.08.11.13.16l0,0a5,5,0,0,0,7-7Z"/><path class="cls-1" d="M2.47,54.38s-.08.11-.13.16l-.16.13,0,0a5,5,0,0,0,.26,6.76h0a5,5,0,0,0,6.76.26l0,0s.08-.11.13-.16l.16-.13,6.94-6.94L9.41,47.44Z"/><path class="cls-1" d="M30.75,40.24a5,5,0,0,0,0-7.07h0a5,5,0,0,0-7.07,0L16.9,39.94l6.95,7.2Z"/><path class="cls-2" d="M27.21,63.92A6,6,0,0,1,23,62.16L1.76,40.95a6,6,0,0,1,8.49-8.49L31.46,53.68a6,6,0,0,1-4.24,10.24Zm-2.83-3.17A4,4,0,0,0,30,55.09L8.83,33.88a4,4,0,0,0-5.66,5.66Z"/><path class="cls-2" d="M23.26,62.45A6,6,0,0,1,31.74,54l-1.41,1.41A4,4,0,0,0,24.67,61Z"/><path class="cls-2" d="M6,63.92A6,6,0,0,1,1.76,53.68L8.7,46.74l1.41,1.41L3.17,55.09a4,4,0,0,0,0,5.66,4.1,4.1,0,0,0,5.66,0l6.94-6.94,1.41,1.41-6.94,6.94A6,6,0,0,1,6,63.92Z"/><path class="cls-2" d="M24.56,47.85l-1.41-1.41,6.9-6.9a4,4,0,0,0,0-5.66,4.1,4.1,0,0,0-5.66,0l-6.77,6.77L16.2,39.24,23,32.46a6,6,0,0,1,8.49,8.49Z"/><path class="cls-2" d="M10,62.45,8.54,61a4,4,0,0,0,0-5.66,4.1,4.1,0,0,0-5.66,0L1.47,54A6,6,0,0,1,10,62.45Z"/><rect class="cls-2" x="12.61" y="42.48" width="2" height="5.66" transform="translate(-28.05 22.89) rotate(-45)"/><rect class="cls-2" x="16.56" y="47.83" width="2" height="2.87" transform="translate(-29.69 26.85) rotate(-45)"/><path class="cls-3" d="M28.91,30.94v-.14a12.43,12.43,0,0,0-2.08-6.49,8.77,8.77,0,0,1-1.59-4.92l.13-1.52a7.69,7.69,0,0,1,.89-2.41,8.67,8.67,0,0,0-4.4,2.19A17.27,17.27,0,0,1,20.85,3a21.64,21.64,0,0,0-8.54,16.46,8.09,8.09,0,0,0-5.75-3.89,8.77,8.77,0,0,1,1,3.89A8.12,8.12,0,0,1,6,24.31a12.44,12.44,0,0,0-2.08,6.49v.14c0,.1,0,.2,0,.3a11.82,11.82,0,0,0,3.34,8.68L7,38.46l2.13,1.63H23.73l.92-1.71s1,1.33,1.14,1.13a12.46,12.46,0,0,0,3.12-8.27C28.91,31.14,28.91,31,28.91,30.94Z"/><path class="cls-1" d="M22.63,41.58a1,1,0,0,1-.71-1.71l1.78-1.8.25-.28.29-.34.31-.41L24.6,37l.2-.28c.08-.13.16-.26.23-.39l.1-.17.15-.27c.06-.12.12-.24.17-.36l.11-.25.11-.25c.06-.14.1-.28.15-.42l.08-.25.08-.24c0-.14.08-.29.11-.45l.11-.48c0-.17.06-.35.08-.53l.06-.42c0-.32,0-.64,0-1v-.36a9.91,9.91,0,0,0-1.09-4.16,10.14,10.14,0,0,0-.58-1,11,11,0,0,1-2-5.44l-1.49,1.41-1.57-2.82a19.75,19.75,0,0,1-2.5-9.61,1,1,0,0,1,2,0,17.75,17.75,0,0,0,2.25,8.64l.31.56L22.2,18l.25-.2.25-.2a5.19,5.19,0,0,1,.5-.39l.11-.07L25.17,16l-.34,2.19-.11,1.86a8.9,8.9,0,0,0,1.66,4.5,12.08,12.08,0,0,1,.72,1.25,11.94,11.94,0,0,1,1.3,5v.39c0,.41,0,.8-.06,1.19,0,.09,0,.17,0,.25l0,.21c0,.24-.06.46-.1.68s0,.18-.06.27l-.07.29c0,.18-.09.37-.14.56s-.07.23-.11.34l-.08.22c-.06.18-.12.35-.19.53s-.1.23-.15.34l-.09.2c-.09.19-.16.34-.24.49l-.2.35-.08.13c-.12.2-.21.36-.31.51l-.25.36-.06.09c-.12.16-.24.33-.37.49l-.35.41-.28.31-.1.11-.17.19-1.56,1.56A1,1,0,0,1,22.63,41.58Z"/><path class="cls-1" d="M10.22,41.58a1,1,0,0,1-.71-.29L8,39.73l-.15-.16-.14-.16-.31-.34L7,38.7c-.13-.16-.25-.34-.38-.51l-.06-.08-.24-.34c-.11-.17-.21-.34-.32-.54L6,37.12l-.19-.34c-.09-.16-.16-.34-.28-.58l-.06-.12-.14-.32c-.07-.17-.13-.35-.21-.6L5,35c0-.11-.08-.21-.1-.31s-.1-.38-.17-.66l0-.17c0-.1,0-.19-.07-.29s-.08-.48-.11-.75l0-.17c0-.06,0-.14,0-.22,0-.38-.06-.77-.06-1.16v-.41a12,12,0,0,1,2-6.24,8.53,8.53,0,0,0,1.68-5.22c0-.42-.07-.82-.13-1.2a1,1,0,1,1,2-.31q.11.66.15,1.39a10.54,10.54,0,0,1-2,6.48,9.92,9.92,0,0,0-1.64,5.16v.37c0,.3,0,.63,0,.95l0,.28c0,.28.06.48.1.67l.08.35c.06.26.1.42.14.58l.07.19.06.17c.08.25.13.39.19.53l.11.24.06.13c.1.21.16.35.23.49l.15.26.06.11c.1.18.19.32.28.46l.16.23.09.12c.11.15.21.29.32.43l.25.29.28.31.23.26,1.56,1.56a1,1,0,0,1-.71,1.71Z"/><path class="cls-2" d="M26,40.79l-1.41-1.41a11.44,11.44,0,0,0,3.37-8.14v-.4a11.46,11.46,0,0,0-1.92-6,9,9,0,0,1-1.76-5.52c0-.29.15-1.66.27-2.19l2,.44c-.07.29-.17,1.29-.23,1.9a7,7,0,0,0,1.38,4.2,13.5,13.5,0,0,1,2.29,7.08v.46A13.42,13.42,0,0,1,26,40.79Z"/><path class="cls-2" d="M6.89,40.79a13.42,13.42,0,0,1-4-9.55v-.47a13.44,13.44,0,0,1,2.25-7,7.06,7.06,0,0,0,1.43-4.28A7.77,7.77,0,0,0,5.71,16L4.63,14.17l2.12.37a9.69,9.69,0,0,1,4.81,2.31,22.59,22.59,0,0,1,8.7-14.7L23.08,0,21.79,3.32a16.27,16.27,0,0,0,.39,12.77,9.85,9.85,0,0,1,3.9-1.61l2.11-.38L27.12,16a6.67,6.67,0,0,0-.77,2.1l-2-.37q.06-.33.15-.65a7.26,7.26,0,0,0-2,1.33l-.93.89L21,18.13A18.27,18.27,0,0,1,19,6a20.58,20.58,0,0,0-5.64,13.46l-.13,3.7-1.75-3.27a6.6,6.6,0,0,0-3.17-2.8,12.15,12.15,0,0,1,.35,2.27,9,9,0,0,1-1.75,5.51,11.45,11.45,0,0,0-1.92,6v.4A11.44,11.44,0,0,0,8.3,39.38Z"/></g></g></svg>