<?xml version="1.0" encoding="utf-8"?>
<!-- Generator: Adobe Illustrator 16.0.0, SVG Export Plug-In . SVG Version: 6.00 Build 0)  -->
<!DOCTYPE svg PUBLIC "-//W3C//DTD SVG 1.1//EN" "http://www.w3.org/Graphics/SVG/1.1/DTD/svg11.dtd">
<svg version="1.1" id="Layer_1" xmlns="http://www.w3.org/2000/svg" xmlns:xlink="http://www.w3.org/1999/xlink" x="0px" y="0px"
	 width="338.06px" height="179.708px" viewBox="0 0 338.06 179.708" enable-background="new 0 0 338.06 179.708"
	 xml:space="preserve">
<g>
	<path fill="#75A035" d="M41.952,164.781c-0.604-6.018-5.68-10.713-11.855-10.713c-6.175,0-11.253,4.695-11.857,10.713H41.952z"/>
	<circle fill="#75A035" cx="290.623" cy="149.48" r="9.689"/>
	<circle fill="#75A035" cx="308.388" cy="163.023" r="9.486"/>
	<circle fill="#75A035" cx="297.444" cy="160.89" r="7.891"/>
	<circle fill="#75A035" cx="305.26" cy="145.427" r="2.975"/>
	<path fill="#9489B9" d="M290.821,72.585c-2.047,0-3.91,0.767-5.334,2.021c-2.244-4.572-6.932-7.726-12.369-7.726
		c-5.417,0-10.091,3.132-12.345,7.678c-1.417-1.227-3.262-1.974-5.283-1.974c-4.463,0-8.081,3.618-8.081,8.081h51.493
		C298.902,76.203,295.284,72.585,290.821,72.585z"/>
	<path fill="#9489B9" d="M140.663,57.341c-0.322-6.024-5.295-10.814-11.4-10.814c-1.762,0-3.424,0.41-4.914,1.122
		c-1.799-9.195-9.896-16.135-19.619-16.135c-7.81,0-14.568,4.48-17.86,11.007c-1.183-0.318-2.425-0.49-3.708-0.49
		c-7.871,0-14.252,6.381-14.252,14.252c0,0.356,0.018,0.708,0.043,1.058H140.663z"/>
	<g>
		<path fill="#75A035" d="M117.932,81.223c-6.285,0-11.764,3.401-14.735,8.454c-2.007-1.298-4.392-2.059-6.958-2.059
			c-7.094,0-12.845,5.751-12.845,12.845c0,2.27,0.593,4.395,1.624,6.245c-5.959,0.089-10.764,4.938-10.764,10.92
			c0,2.395,0.779,4.603,2.085,6.404H63.446c-1.538-0.942-3.339-1.496-5.275-1.496c-5.59,0-10.122,4.532-10.122,10.122
			c0,0.081,0.01,0.159,0.012,0.24C41.644,133.432,36.6,138.8,36.6,145.356c0,2.526,0.755,4.874,2.043,6.841
			c-2.417,1.377-4.049,3.973-4.049,6.953c0,4.421,3.583,8.004,8.003,8.004c2.109,0,4.023-0.822,5.453-2.156v5.226h83.099V140.12
			h-26.913v-16.088h-10.21c1.307-1.802,2.085-4.01,2.085-6.404c0-1.556-0.33-3.034-0.916-4.372c0.345,0.027,0.691,0.053,1.044,0.053
			c0.953,0,1.879-0.111,2.773-0.31c0,0.028-0.004,0.054-0.004,0.081c0,4.522,3.666,8.189,8.19,8.189c3.799,0,6.984-2.59,7.909-6.099
			c0.921,0.153,1.86,0.252,2.825,0.252c9.443,0,17.1-7.656,17.1-17.099C135.032,88.878,127.375,81.223,117.932,81.223z"/>
		<circle fill="#75A035" cx="27.596" cy="145.621" r="4.154"/>
	</g>
	<rect x="90.936" y="150.488" fill="#716742" width="31.469" height="15.721"/>
	<g>
		<g>
			<rect x="115.072" y="92.732" fill="#FFFFFF" width="1.056" height="6.02"/>
		</g>
		<rect x="111.95" y="103.65" fill="#FF9933" width="7.299" height="9.975"/>
		<rect x="111.95" y="103.49" fill="#337CB0" width="7.299" height="1.24"/>
		<path fill="#4A6B8B" d="M116.711,110.378h-2.185v-3.051c0-0.598,0.484-1.081,1.081-1.081h0.021c0.598,0,1.082,0.483,1.082,1.081
			V110.378z"/>
		<path fill="#40B3DA" d="M115.636,96.804h-0.073c-1.995,0-3.613,1.617-3.613,3.612v3.233h7.299v-3.233
			C119.249,98.421,117.631,96.804,115.636,96.804z"/>
		<path fill="#337CB0" d="M115.636,96.804h-0.037v7.846h3.649v-4.233C119.249,98.421,117.631,96.804,115.636,96.804z"/>
	</g>
	<circle fill="#FFFFFF" cx="115.599" cy="92.417" r="1.083"/>
	<g>
		<polygon fill="#FF4964" points="222.932,73.087 219.046,68.876 215.505,73.087 215.505,59.498 222.932,55.907 		"/>
		
			<rect x="212.433" y="50.074" transform="matrix(0.5283 0.8491 -0.8491 0.5283 152.5709 -151.9631)" fill="#9E743C" width="1.233" height="22.512"/>
		<circle fill="#9E743C" cx="223.322" cy="54.859" r="1.152"/>
	</g>
	<g>
		<polygon fill="#FF4964" points="108.758,73.087 112.645,68.876 116.186,73.087 116.186,59.498 108.758,55.907 		"/>
		
			<rect x="118.024" y="50.074" transform="matrix(-0.5289 0.8487 -0.8487 -0.5289 233.4368 -6.9271)" fill="#9E743C" width="1.233" height="22.512"/>
		<circle fill="#9E743C" cx="108.37" cy="54.859" r="1.152"/>
	</g>
	<rect x="196.069" y="130.036" fill="#5C8A35" width="58.664" height="38.89"/>
	<g>
		<rect x="164.592" y="3.947" fill="#F26C58" width="2.879" height="8.813"/>
		<rect x="156.454" y="18.456" fill="#0499CC" width="19.24" height="8.971"/>
		<rect x="166.079" y="18.456" fill="#337CB0" width="9.615" height="8.971"/>
		<path fill="#F26C58" d="M167.25,9.928h-2.355c-4.662,0-8.441,3.78-8.441,8.443v0.085h19.24v-0.085
			C175.694,13.708,171.913,9.928,167.25,9.928z"/>
	</g>
	<rect x="124.696" y="74.967" fill="#FBD458" width="82.694" height="26.794"/>
	<rect x="124.696" y="74.967" fill="#FBB040" width="82.694" height="3.305"/>
	<rect x="124.696" y="72.331" fill="#FFFFFF" width="82.694" height="2.636"/>
	<rect x="124.696" y="99.283" fill="#FBB040" width="82.694" height="2.479"/>
	<g>
		<g>
			<rect x="126.766" y="74.25" fill="#FFFFFF" width="3.514" height="2.704"/>
			<rect x="134.151" y="74.25" fill="#FFFFFF" width="3.514" height="2.704"/>
			<rect x="141.946" y="74.25" fill="#FFFFFF" width="3.516" height="2.704"/>
			<rect x="149.331" y="74.25" fill="#FFFFFF" width="3.515" height="2.704"/>
			<rect x="156.583" y="74.25" fill="#FFFFFF" width="3.516" height="2.704"/>
			<rect x="163.967" y="74.25" fill="#FFFFFF" width="3.514" height="2.704"/>
		</g>
		<g>
			<rect x="171.944" y="74.25" fill="#FFFFFF" width="3.514" height="2.704"/>
			<rect x="179.329" y="74.25" fill="#FFFFFF" width="3.514" height="2.704"/>
			<rect x="187.125" y="74.25" fill="#FFFFFF" width="3.514" height="2.704"/>
			<rect x="194.508" y="74.25" fill="#FFFFFF" width="3.515" height="2.704"/>
			<rect x="201.76" y="74.25" fill="#FFFFFF" width="3.515" height="2.704"/>
		</g>
	</g>
	<rect x="147.22" y="88.104" fill="#FB9A58" width="10.08" height="5.409"/>
	<rect x="174.289" y="88.104" fill="#FB9A58" width="10.08" height="5.409"/>
	<rect x="176.051" y="89.597" fill="#FBD458" width="6.555" height="2.424"/>
	<rect x="148.98" y="89.597" fill="#FBD458" width="6.555" height="2.424"/>
	<g>
		<path fill="#5E5F45" d="M144.54,101.761h-12.102V85.846c0-3.309,2.682-5.99,5.99-5.99h0.121c3.308,0,5.99,2.682,5.99,5.99V101.761
			z"/>
		<path fill="#5E5F45" d="M172.093,101.761h-12.102V85.846c0-3.309,2.683-5.99,5.991-5.99h0.12c3.309,0,5.99,2.682,5.99,5.99
			V101.761z"/>
		<path fill="#5E5F45" d="M198.275,101.761h-12.103V85.846c0-3.309,2.682-5.99,5.99-5.99h0.122c3.308,0,5.99,2.682,5.99,5.99
			V101.761z"/>
	</g>
	<rect x="124.696" y="109.147" fill="#716742" width="82.694" height="59.462"/>
	<rect x="124.696" y="101.761" fill="#FFFFFF" width="82.694" height="7.386"/>
	<polygon fill="#4C4F40" points="168.639,168.609 207.39,168.609 207.39,109.147 184.731,109.147 132.438,161.441 	"/>
	<g>
		<path fill="#61C7DC" d="M166.055,23.081c-22.915,0.744-41.275,19.506-41.275,42.602h41.275V23.081z"/>
		<path fill="#9FEBE0" d="M166.055,23.081c-22.915,0.744-41.275,19.506-41.275,42.602l18.082,0.092L166.055,23.081z"/>
		<path fill="#40B3DA" d="M158.617,36.587c-15.649,0.508-28.188,13.322-28.188,29.095h28.188V36.587z"/>
		<path fill="#40B3DA" d="M166.055,23.081c22.914,0.744,41.273,19.506,41.273,42.602h-41.273V23.081z"/>
		<path fill="#0499CC" d="M166.101,23.081c22.915,0.744,41.276,19.506,41.276,42.602L188.89,65.27L166.101,23.081z"/>
		<path fill="#337CB0" d="M173.54,36.587c15.648,0.508,28.189,13.322,28.189,29.095H173.54V36.587z"/>
	</g>
	<g>
		<path fill="#75A035" d="M247.419,106.247c0-3.716-3.012-6.728-6.728-6.728s-6.729,3.012-6.729,6.728
			c0,0.153,0.013,0.303,0.023,0.452h-1.789v25.398h15.61v-25.398h-0.411C247.407,106.549,247.419,106.4,247.419,106.247z"/>
		<circle fill="#75A035" cx="240.003" cy="91.625" r="2.203"/>
		<circle fill="#75A035" cx="224.873" cy="80.322" r="2.198"/>
		<path fill="#75A035" d="M275.051,114.352c-0.97,0-1.885,0.22-2.709,0.604c0.172-0.522,0.269-1.079,0.269-1.658
			c0-2.931-2.374-5.304-5.304-5.304c-2.929,0-5.305,2.373-5.305,5.304c0,1.962,1.068,3.672,2.653,4.589
			c-0.752,0.843-1.223,1.943-1.223,3.162c0,2.634,2.135,4.769,4.769,4.769c0.809,0,1.559-0.22,2.227-0.575
			c1.169,1.209,2.808,1.966,4.623,1.966c3.55,0,6.427-2.878,6.427-6.428S278.601,114.352,275.051,114.352z"/>
		<circle fill="#75A035" cx="272.728" cy="104.56" r="2.139"/>
	</g>
	<path fill="#FC975F" d="M56.562,130.562c0,2.868,2.325,5.194,5.193,5.194v-5.194H56.562z"/>
	<path fill="#FC975F" d="M76.663,130.562v5.194c2.868,0,5.194-2.326,5.194-5.194H76.663z"/>
	<path fill="#FBD458" d="M188.377,133.303v35.832l6.949-0.21c-1.125-2.757-1.75-5.771-1.75-8.934
		c0-13.061,10.589-23.648,23.65-23.648s23.65,10.588,23.65,23.648c0,3.162-0.626,6.177-1.751,8.934h5.22v-35.832L188.377,133.303z"
		/>
	<g>
		<g>
			<g>
				<rect x="96.655" y="92.732" fill="#FFFFFF" width="1.056" height="6.02"/>
			</g>
			<rect x="93.533" y="103.65" fill="#FF9933" width="7.298" height="9.975"/>
			<rect x="93.533" y="103.49" fill="#337CB0" width="7.298" height="1.24"/>
			<path fill="#4A6B8B" d="M98.294,110.378H96.11v-3.051c0-0.598,0.484-1.081,1.082-1.081h0.021c0.597,0,1.081,0.483,1.081,1.081
				V110.378z"/>
			<path fill="#40B3DA" d="M97.219,96.804h-0.073c-1.995,0-3.613,1.617-3.613,3.612v3.233h7.298v-3.233
				C100.832,98.421,99.214,96.804,97.219,96.804z"/>
			<path fill="#337CB0" d="M97.219,96.804h-0.037v7.846h3.649v-4.233C100.832,98.421,99.214,96.804,97.219,96.804z"/>
		</g>
		<rect x="87.552" y="112.503" fill="#40B3DA" width="37.144" height="17.532"/>
		<rect x="87.552" y="112.503" fill="#72E6EB" width="6.768" height="17.532"/>
		<rect x="102.788" y="112.503" fill="#72E6EB" width="6.768" height="17.532"/>
		<rect x="87.552" y="130.036" fill="#FBD458" width="37.144" height="15.636"/>
		<rect x="87.552" y="130.036" fill="#FBB040" width="37.144" height="3.614"/>
		<rect x="87.552" y="145.671" fill="#FFFFFF" width="37.144" height="2.203"/>
		<path fill="#3F402E" d="M87.552,147.875v20.224h37.144v-20.224H87.552z M103.212,166.603H91.408v-9.267
			c0-3.226,2.616-5.843,5.843-5.843h0.118c3.227,0,5.843,2.617,5.843,5.843V166.603z M120.053,166.603h-11.805v-9.267
			c0-3.226,2.616-5.843,5.843-5.843h0.118c3.227,0,5.844,2.617,5.844,5.843V166.603z"/>
		<rect x="87.552" y="112.503" fill="#72E6EB" width="37.144" height="1.77"/>
		<rect x="118.022" y="112.503" fill="#72E6EB" width="6.674" height="17.532"/>
		<g>
			<path fill="#FFFFFF" d="M87.552,133.65v3.305h3.856c0,1.805,1.462,3.268,3.266,3.268c1.803,0,3.265-1.463,3.265-3.268h4.918
				c0,1.805,1.462,3.268,3.266,3.268s3.266-1.463,3.266-3.268h5.47c0,1.805,1.462,3.268,3.265,3.268
				c1.805,0,3.268-1.463,3.268-3.268h3.305v-3.305H87.552z"/>
			<circle fill="#FBD458" cx="118.321" cy="137.374" r="1.338"/>
			<circle fill="#FBD458" cx="106.124" cy="137.374" r="1.338"/>
			<circle fill="#FBD458" cx="94.871" cy="137.374" r="1.338"/>
		</g>
		<rect x="87.552" y="128.32" fill="#40B3DA" width="37.144" height="1.77"/>
	</g>
	<g>
		<rect x="68.292" y="96.095" fill="#23475F" width="1.889" height="16.408"/>
	</g>
	<path fill="#FC975F" d="M71.303,117.224h-4.279v-3.783c0-1.171,0.948-2.119,2.118-2.119h0.043c1.17,0,2.118,0.948,2.118,2.119
		V117.224z"/>
	<path fill="#FBF071" d="M61.624,127.021v19.122h15.227v-19.122H61.624z M73.31,144.491h-8.145V134.24
		c0-2.227,1.805-4.031,4.032-4.031h0.082c2.227,0,4.032,1.805,4.032,4.031V144.491z"/>
	<rect x="60.562" y="145.671" fill="#5E5F45" width="17.587" height="13.928"/>
	<rect x="60.562" y="157.947" fill="#3F402E" width="17.587" height="7.555"/>
	<path fill="#A8E407" d="M80.328,144.966c-0.153-0.889-0.551-1.686-1.12-2.34c0.494-0.6,0.745-1.406,0.542-2.285
		c-0.236-1.021-1.1-1.836-2.133-2.009c-0.965-0.162-1.841,0.205-2.418,0.845c-0.096-1.916-1.677-3.443-3.624-3.421
		c-0.803,0.009-1.573,0.378-2.154,0.933c-1.524,1.453-1.537,2.562-1.278,3.565c-0.042-0.002-0.083-0.013-0.126-0.013
		c-1.286,0-2.357,0.896-2.638,2.097c-0.949-1.456-2.693-2.349-4.622-2.034c-1.833,0.297-3.353,1.73-3.732,3.549
		c-0.621,2.976,1.633,5.596,4.5,5.596c1.958,0,3.62-1.228,4.286-2.951h4.993c0.346,2.334,2.338,4.131,4.769,4.131
		c0.958,0,1.845-0.287,2.597-0.767v3.364c0,0,4.367,0,4.367-4.324v-1.047C82.536,146.472,81.598,145.32,80.328,144.966z"/>
	<rect x="61.505" y="125.132" fill="#337CB0" width="15.345" height="1.889"/>
	<path fill="#01BCBC" d="M69.229,114.526h-0.153c-4.181,0-7.57,3.39-7.57,7.571v3.035h15.293v-3.035
		C76.798,117.916,73.409,114.526,69.229,114.526z"/>
	<path fill="#337CB0" d="M69.287,114.526h-0.109v11.606h7.679v-4.035C76.857,117.916,73.468,114.526,69.287,114.526z"/>
	<circle fill="#FC975F" cx="69.237" cy="102.44" r="1.977"/>
	<g>
		<g>
			<path fill="#75A035" d="M135.575,155.833C134.928,155.833,136.163,155.652,135.575,155.833c0.551-0.832-0.981-1.549-0.971-2.619
				h0.002c3.418,0,6.188-2.771,6.188-6.188c0-3.416-2.77-6.187-6.188-6.187c-3.416,0-6.187,2.771-6.187,6.187
				c0,0.283,0.026,0.561,0.063,0.835c-2.595,0.372-4.59,2.599-4.59,5.295c0,0.329,0.033,0.647,0.09,0.958
				c-3.092,1.034-5.32,3.946-5.32,7.385c0,4.303,3.486,7.789,7.789,7.789c2.054,0,3.914-0.799,5.307-2.096
				c1.061,0.806,2.381,1.289,3.816,1.289c3.493,0,6.324-2.832,6.324-6.324C141.899,158.664,139.068,155.833,135.575,155.833z"/>
			<g>
				<rect x="150.95" y="81.223" fill="#2E5E7F" width="1.889" height="16.407"/>
			</g>
			<g>
				<rect x="159.322" y="120.095" fill="#BC9F42" width="1.157" height="13.625"/>
			</g>
			<g>
				<rect x="144.739" y="120.095" fill="#BC9F42" width="1.051" height="12.002"/>
			</g>
			<path fill="#04819F" d="M156.728,104.889h-9.61v-3.269c0-2.628,2.13-4.758,4.758-4.758h0.096c2.627,0,4.757,2.13,4.757,4.758
				V104.889z"/>
			<g>
				<path fill="#FBE340" d="M145.264,131.374c-1.898,0-3.438,1.54-3.438,3.438h6.876
					C148.702,132.914,147.163,131.374,145.264,131.374z"/>
			</g>
			<g>
				<path fill="#FBE340" d="M159.901,131.537c-1.898,0-3.438,1.539-3.438,3.438h6.876
					C163.338,133.076,161.799,131.537,159.901,131.537z"/>
			</g>
			<rect x="138.899" y="143.083" fill="#F26347" width="27.385" height="9.434"/>
			<path fill="#FBDC4E" d="M136.302,121.591v30.375h31.909v-30.375H136.302z M149.463,151.494h-8.656v-20.816
				c0-2.367,1.919-4.285,4.285-4.285h0.086c2.367,0,4.285,1.918,4.285,4.285V151.494z M163.708,151.494h-8.656v-20.816
				c0-2.367,1.918-4.285,4.285-4.285h0.086c2.367,0,4.285,1.918,4.285,4.285V151.494z"/>
			<g>
				<path fill="#5E4A45" d="M170.14,171.955h-16.887c-11.188,0-20.257-9.068-20.257-20.256v-0.205h37.144V171.955z"/>
			</g>
			<path fill="#A8D307" d="M184.086,155.645c-0.23,0-0.446,0.042-0.667,0.067c0.21-0.439,0.335-0.928,0.335-1.449
				c0-1.875-1.517-3.394-3.391-3.394c-0.223,0-0.438,0.025-0.648,0.065c0.155-0.555,0.246-1.135,0.246-1.738
				c0-3.526-2.858-6.384-6.385-6.384c-2.51,0-4.675,1.453-5.719,3.56c-1.597-0.812-3.401-1.281-5.317-1.281
				c-6.494,0-11.759,5.264-11.759,11.759c0,6.494,5.265,11.758,11.759,11.758c3.902,0,7.352-1.911,9.49-4.837
				c1.05,1.191,2.583,1.949,4.297,1.949c1.38,0,2.647-0.489,3.638-1.305c0.983,1.192,2.454,1.968,4.121,1.968
				c2.965,0,5.369-2.404,5.369-5.369C189.456,158.049,187.051,155.645,184.086,155.645z"/>
			<rect x="133.292" y="118.601" fill="#FFA633" width="3.449" height="2.99"/>
			<rect x="136.741" y="118.601" fill="#EE6B4A" width="3.448" height="2.99"/>
			<rect x="140.189" y="118.601" fill="#FFA633" width="3.448" height="2.99"/>
			<rect x="143.637" y="118.601" fill="#EE6B4A" width="3.447" height="2.99"/>
			<rect x="147.084" y="118.601" fill="#FFA633" width="3.449" height="2.99"/>
			<rect x="150.534" y="118.601" fill="#EE6B4A" width="3.447" height="2.99"/>
			<rect x="153.981" y="118.601" fill="#FFA633" width="3.447" height="2.99"/>
			<rect x="157.428" y="118.601" fill="#EE6B4A" width="3.449" height="2.99"/>
			<rect x="160.877" y="118.601" fill="#FFA633" width="3.448" height="2.99"/>
			<rect x="164.326" y="118.601" fill="#EE6B4A" width="3.448" height="2.99"/>
			<rect x="167.774" y="118.601" fill="#FFA633" width="3.447" height="2.99"/>
			<path fill="#04BBB0" d="M152.09,101.21h0.334c9.188,0,16.633,7.447,16.633,16.633v0.758h-33.601v-0.758
				C135.457,108.658,142.903,101.21,152.09,101.21z"/>
			<path fill="#2E6C7E" d="M152.424,101.21h-0.334c-0.057,0-0.111,0.008-0.166,0.008v17.383h17.133v-0.758
				C169.057,108.658,161.612,101.21,152.424,101.21z"/>
			<circle fill="#A8E407" cx="156.32" cy="110.482" r="1.108"/>
			<circle fill="#A8E407" cx="161.038" cy="113.902" r="1.504"/>
			<path fill="#A8E407" d="M158.897,102.208c-0.898,0.827-1.469,2.002-1.469,3.318c0,2.502,2.027,4.53,4.529,4.53
				c0.611,0,1.193-0.126,1.726-0.345c-0.018,0.137-0.042,0.273-0.042,0.415c0,1.781,1.445,3.226,3.227,3.226
				c0.645,0,1.24-0.193,1.743-0.518C167.153,107.99,163.546,104.083,158.897,102.208z"/>
			<circle fill="#2E5E7F" cx="151.893" cy="81.658" r="2.082"/>
			<circle fill="#C2E467" cx="130.906" cy="133.255" r="2.833"/>
			<circle fill="#75A035" cx="41.952" cy="127.208" r="2.575"/>
		</g>
		<circle fill="#A8D307" cx="178.346" cy="138.878" r="2.839"/>
	</g>
	<g>
		<rect x="265.121" y="139.65" fill="#FBD458" width="25.929" height="19.241"/>
		<rect x="265.121" y="158.891" fill="#996633" width="25.929" height="8.263"/>
		<rect x="265.121" y="124.032" fill="#01D3CF" width="8.643" height="12.748"/>
		<rect x="273.763" y="124.032" fill="#4097DA" width="8.644" height="12.748"/>
		<rect x="282.407" y="124.032" fill="#01D3CF" width="8.643" height="12.748"/>
		<rect x="265.121" y="136.78" fill="#FBD458" width="25.929" height="2.87"/>
		<rect x="265.905" y="124.032" fill="#01D3CF" width="25.145" height="1.614"/>
		<path fill="#FFFFFF" d="M265.121,140.65v4.782h3.581c0,1.7,1.378,3.077,3.078,3.077s3.079-1.377,3.079-3.077h5.712
			c0,1.7,1.377,3.077,3.078,3.077s3.079-1.377,3.079-3.077h4.321v-4.782H265.121z"/>
		<circle fill="#FBD458" cx="271.78" cy="145.924" r="1.19"/>
		<circle fill="#FBD458" cx="283.65" cy="145.924" r="1.19"/>
		<rect x="276.482" y="150.75" fill="#2E5E7F" width="3.206" height="4.592"/>
		<rect x="266.065" y="150.75" fill="#2E5E7F" width="3.206" height="4.592"/>
		<rect x="286.728" y="150.75" fill="#2E5E7F" width="3.206" height="4.592"/>
		<rect x="265.121" y="136.728" fill="#FBB040" width="25.929" height="4.112"/>
		<rect x="265.121" y="135.349" fill="#4097DA" width="25.929" height="1.379"/>
	</g>
	<g>
		<rect x="244.071" y="105.578" fill="#996633" width="20.774" height="9.049"/>
		<rect x="244.071" y="91.138" fill="#FBCB4E" width="20.774" height="14.439"/>
		<rect x="244.071" y="88.148" fill="#FFFFFF" width="20.774" height="2.99"/>
		<rect x="244.071" y="72.331" fill="#FBCB4E" width="20.774" height="15.817"/>
		<rect x="244.071" y="69.891" fill="#FFFFFF" width="20.774" height="2.44"/>
		<rect x="254.458" y="91.138" fill="#D59D40" width="10.387" height="14.439"/>
		<rect x="254.458" y="105.597" fill="#715028" width="10.387" height="9.296"/>
		<g>
			<rect x="244.346" y="116.28" fill="#5E5F45" width="20.774" height="52.646"/>
			<rect x="254.733" y="116.28" fill="#3F402E" width="10.388" height="52.646"/>
			<path fill="#A8E407" d="M267.153,112.974h-9.704c0-1.803-1.463-3.266-3.266-3.266c-0.784,0-1.496,0.288-2.059,0.75
				c-0.381-1.382-1.633-2.402-3.136-2.402c-1.804,0-3.266,1.463-3.266,3.266c0,0.606,0.177,1.166,0.464,1.652h-1.788
				c-0.035,0-0.068,0.01-0.104,0.012c-0.363-0.971-1.291-1.664-2.387-1.664c-1.414,0-2.559,1.146-2.559,2.559
				c0,1.412,1.145,2.557,2.559,2.557c0.036,0,0.071-0.01,0.108-0.012c-0.336,0.443-0.543,0.988-0.543,1.586
				c0,1.455,1.181,2.636,2.637,2.636c1.457,0,2.637-1.181,2.637-2.636h9.03v6.932c0,0.932,0.753,1.686,1.684,1.686h0.034
				c0.93,0,1.685-0.754,1.685-1.686v-6.932h2.677v12.969c0,1.246,1.011,2.258,2.258,2.258h0.047c1.246,0,2.259-1.012,2.259-2.258
				v-12.969h0.733c1.376,0,2.493-1.116,2.493-2.493v-0.05C269.646,114.091,268.529,112.974,267.153,112.974z"/>
			<path fill="#6A6B4E" d="M265.121,150.594c-0.456-0.481-1.096-0.785-1.81-0.785c-1.38,0-2.498,1.118-2.498,2.499
				c0,1.38,1.118,2.498,2.498,2.498c0.714,0,1.354-0.303,1.81-0.783V150.594z"/>
			<circle fill="#ACAD7E" cx="258.237" cy="145.82" r="1.689"/>
			<circle fill="#ACAD7E" cx="249.749" cy="130.583" r="1.555"/>
			<circle fill="#6A6B4E" cx="261.475" cy="139.706" r="1.491"/>
		</g>
		<g>
			<rect x="260.418" y="97.276" fill="#2E5E7F" width="2.479" height="4.485"/>
			<rect x="255.698" y="97.276" fill="#2E5E7F" width="2.479" height="4.485"/>
			<rect x="251.291" y="97.276" fill="#2E5E7F" width="2.479" height="4.485"/>
			<rect x="246.57" y="97.276" fill="#2E5E7F" width="2.479" height="4.485"/>
		</g>
		<path fill="#5E5F45" d="M256.041,88.148h-3.166v-9.686c0-0.866,0.702-1.568,1.567-1.568h0.031c0.866,0,1.567,0.703,1.567,1.568
			V88.148z"/>
		<path fill="#5E5F45" d="M262.002,88.148h-3.167v-9.686c0-0.866,0.702-1.568,1.567-1.568h0.031c0.866,0,1.568,0.703,1.568,1.568
			V88.148z"/>
		<path fill="#5E5F45" d="M249.737,88.148h-3.167v-9.686c0-0.866,0.701-1.568,1.567-1.568h0.031c0.866,0,1.568,0.703,1.568,1.568
			V88.148z"/>
		<g>
			<rect x="253.363" y="43.057" fill="#23475F" width="2.19" height="8.971"/>
			<path fill="#00D4B6" d="M244.109,60.369c-0.018,0.252-0.038,0.505-0.038,0.762v8.76h10.388v-9.522H244.109z"/>
			<path fill="#0499B0" d="M254.458,69.891h10.387v-8.76c0-0.256-0.02-0.509-0.039-0.762h-10.348V69.891z"/>
			<path fill="#95EBE5" d="M254.458,50.848h-0.104c-5.422,0-9.854,4.199-10.245,9.521h10.35V50.848z"/>
			<path fill="#00D4B6" d="M254.562,50.848h-0.104v9.521h10.348C264.416,55.047,259.985,50.848,254.562,50.848z"/>
			<path fill="#2E5E7F" d="M256.826,61.379h-0.046v8.512h4.642v-3.916C261.421,63.438,259.365,61.379,256.826,61.379z"/>
			<path fill="#2E5E7F" d="M252.168,61.379h0.047v8.512h-4.643v-3.916C247.573,63.438,249.63,61.379,252.168,61.379z"/>
			<circle fill="#FFFFFF" cx="250.425" cy="56.366" r="1.907"/>
		</g>
	</g>
	<path fill="#4A4A36" d="M138.549,79.856h-0.084v21.905h6.074V85.846C144.54,82.538,141.857,79.856,138.549,79.856z"/>
	<path fill="#4A4A36" d="M166.105,79.856h-0.085v21.905h6.075V85.846C172.095,82.538,169.414,79.856,166.105,79.856z"/>
	<path fill="#4A4A36" d="M192.308,79.856h-0.085v21.905h6.075V85.846C198.298,82.538,195.617,79.856,192.308,79.856z"/>
	<g>
		<g>
			<g>
				<path fill="#A8E407" d="M196.291,108.282c0.056-0.191,0.093-0.39,0.093-0.599c0-1.229-0.995-2.225-2.224-2.225
					c-1.228,0-2.223,0.996-2.223,2.225c0,0.674,0.307,1.271,0.781,1.678c-0.003,0.004-0.006,0.01-0.009,0.015
					c-0.448-0.319-0.994-0.513-1.588-0.513c-1.515,0-2.744,1.229-2.744,2.745c0,1.516,1.229,2.744,2.744,2.744
					c1.014,0,1.889-0.555,2.363-1.371c0.451,0.324,1.001,0.52,1.6,0.52c1.521,0,2.755-1.232,2.755-2.754
					C197.839,109.661,197.205,108.73,196.291,108.282z"/>
				<circle fill="#A8E407" cx="189.458" cy="105.458" r="1.239"/>
			</g>
			<path fill="#62CC85" d="M188.377,111.794c0,4.248,3.443,7.691,7.691,7.691v-7.691H188.377L188.377,111.794z"/>
		</g>
		<g>
			<g>
				<rect x="233.448" y="80.344" fill="#23475F" width="2.281" height="15.532"/>
			</g>
			<g>
				<rect x="196.069" y="80.344" fill="#23475F" width="2.462" height="15.532"/>
			</g>
			<path fill="#23475F" d="M233.448,85.55c-2.259,0-4.092,1.832-4.092,4.092h4.092V85.55L233.448,85.55z"/>
			<path fill="#23475F" d="M198.453,85.55v4.092h4.092C202.544,87.382,200.712,85.55,198.453,85.55z"/>
		</g>
		<rect x="196.069" y="104.889" fill="#FFFFFF" width="39.66" height="26.484"/>
		<rect x="196.069" y="103.658" fill="#FBCB4E" width="39.66" height="3.363"/>
		<g>
			<path fill="#FBCB4E" d="M215.869,109.147h0.06c1.63,0,2.951,1.321,2.951,2.95v19.262h-5.961v-19.262
				C212.918,110.468,214.24,109.147,215.869,109.147z"/>
			<path fill="#FBCB4E" d="M204.38,109.147h0.06c1.63,0,2.951,1.321,2.951,2.95v19.262h-5.961v-19.262
				C201.43,110.468,202.751,109.147,204.38,109.147z"/>
			<rect x="214.572" y="115.019" fill="#2E5E7F" width="2.655" height="4.84"/>
			<rect x="214.572" y="124.699" fill="#2E5E7F" width="2.655" height="2.832"/>
		</g>
		<g>
			<path fill="#FBCB4E" d="M227.824,109.147h0.06c1.63,0,2.95,1.321,2.95,2.95v19.262h-5.961v-19.262
				C224.873,110.468,226.194,109.147,227.824,109.147z"/>
			<rect x="226.525" y="115.019" fill="#2E5E7F" width="2.656" height="4.84"/>
			<rect x="226.525" y="124.699" fill="#2E5E7F" width="2.656" height="2.832"/>
		</g>
		<g>
			<rect x="203.083" y="115.019" fill="#2E5E7F" width="2.655" height="4.84"/>
			<rect x="203.083" y="124.699" fill="#2E5E7F" width="2.655" height="2.832"/>
		</g>
		<rect x="196.069" y="89.642" fill="#72E6EB" width="7.931" height="12.119"/>
		<rect x="204" y="89.642" fill="#40B3DA" width="7.934" height="12.119"/>
		<rect x="211.933" y="89.642" fill="#72E6EB" width="7.933" height="12.119"/>
		<rect x="219.866" y="89.642" fill="#40B3DA" width="7.931" height="12.119"/>
		<rect x="227.796" y="89.642" fill="#72E6EB" width="7.933" height="12.119"/>
		<polygon fill="#23475F" points="209.252,89.642 215.899,82.56 222.545,89.642 		"/>
		<g>
			<rect x="214.955" y="77.092" fill="#23475F" width="1.889" height="8.117"/>
		</g>
		<rect x="196.069" y="89.642" fill="#72E6EB" width="39.66" height="1.982"/>
		<rect x="196.069" y="101.21" fill="#40B3DA" width="39.66" height="3.01"/>
	</g>
	<rect x="187.57" y="130.583" fill="#F05D4B" width="56.776" height="3.136"/>
	<path fill="#42BD6A" d="M196.069,119.486v-7.691h-2.026v7.412C194.688,119.383,195.366,119.486,196.069,119.486z"/>
	<path fill="#FFC6B1" d="M48.377,143.466c0,1.078-0.873,1.951-1.949,1.951c-1.076,0-1.949-0.873-1.949-1.951
		c0-1.074,0.873-1.947,1.949-1.947C47.504,141.519,48.377,142.392,48.377,143.466z"/>
	<circle fill="#FFC6B1" cx="82.535" cy="116.089" r="1.949"/>
	<circle fill="#FFC6B1" cx="54.363" cy="155.064" r="1.949"/>
	<circle fill="#FFC6B1" cx="106.124" cy="96.863" r="1.949"/>
	<circle fill="#FF8D9F" cx="212.918" cy="143.083" r="1.949"/>
	<circle fill="#FF8D9F" cx="233.964" cy="149.271" r="1.949"/>
	<circle fill="#FFC6B1" cx="274.164" cy="119.486" r="1.949"/>
	<circle fill="#FFE0B1" cx="239.854" cy="124.316" r="1.949"/>
	
		<rect x="214.316" y="74.501" transform="matrix(0.707 -0.7072 0.7072 0.707 9.4471 174.9704)" fill="#23475F" width="3.166" height="3.165"/>
	
		<rect x="252.876" y="41.019" transform="matrix(0.707 -0.7072 0.7072 0.707 44.4218 192.4299)" fill="#23475F" width="3.166" height="3.165"/>
	<circle fill="#FFFFFF" cx="144.435" cy="110.482" r="2.273"/>
	<path fill="#2E6C7E" d="M168.985,116.396H135.53c-0.041,0.478-0.073,0.959-0.073,1.447v0.758h33.601v-0.758
		C169.057,117.355,169.026,116.874,168.985,116.396z"/>
	<rect x="135.663" y="121.591" fill="#836742" width="32.948" height="1.742"/>
	<path fill="#337CB0" d="M124.731,66.458h41.3h41.298c0-1.347-0.054-2.678-0.133-4h-82.332
		C124.785,63.78,124.731,65.11,124.731,66.458z"/>
	<rect x="124.696" y="65.635" fill="#FFA572" width="6.891" height="6.696"/>
	<rect x="131.586" y="65.635" fill="#EE6B4A" width="6.893" height="6.696"/>
	<rect x="138.479" y="65.635" fill="#FFA572" width="6.89" height="6.696"/>
	<rect x="145.369" y="65.635" fill="#EE6B4A" width="6.892" height="6.696"/>
	<rect x="152.26" y="65.635" fill="#FFA572" width="6.891" height="6.696"/>
	<rect x="159.151" y="65.635" fill="#EE6B4A" width="6.893" height="6.696"/>
	<rect x="166.043" y="65.635" fill="#FFA572" width="6.891" height="6.696"/>
	<rect x="172.934" y="65.635" fill="#EE6B4A" width="6.892" height="6.696"/>
	<rect x="179.826" y="65.635" fill="#FFA572" width="6.892" height="6.696"/>
	<rect x="186.717" y="65.635" fill="#EE6B4A" width="6.89" height="6.696"/>
	<rect x="193.607" y="65.635" fill="#FFA572" width="6.892" height="6.696"/>
	<rect x="200.499" y="65.635" fill="#EE6B4A" width="6.892" height="6.696"/>
	<g>
		<path fill="#0499CC" d="M153.84,44.067c1.695,0,3.07-1.375,3.07-3.07h-6.141C150.77,42.693,152.145,44.067,153.84,44.067z"/>
		<path fill="#0499CC" d="M153.84,50.651c1.695,0,3.07-1.375,3.07-3.07h-6.141C150.77,49.276,152.145,50.651,153.84,50.651z"/>
		<path fill="#0499CC" d="M153.84,57.234c1.695,0,3.07-1.375,3.07-3.07h-6.141C150.77,55.86,152.145,57.234,153.84,57.234z"/>
		<path fill="#0499CC" d="M146.632,47.138c1.695,0,3.07-1.375,3.07-3.07h-6.141C143.562,45.763,144.937,47.138,146.632,47.138z"/>
		<path fill="#0499CC" d="M146.632,54.638c1.695,0,3.07-1.375,3.07-3.07h-6.141C143.562,53.263,144.937,54.638,146.632,54.638z"/>
		<path fill="#0499CC" d="M146.632,61.263c1.695,0,3.07-1.375,3.07-3.07h-6.141C143.562,59.888,144.937,61.263,146.632,61.263z"/>
		<path fill="#0499CC" d="M140.257,51.135c1.695,0,3.07-1.375,3.07-3.07h-6.141C137.187,49.76,138.562,51.135,140.257,51.135z"/>
		<path fill="#0499CC" d="M140.257,57.708c1.695,0,3.07-1.375,3.07-3.07h-6.141C137.187,56.333,138.562,57.708,140.257,57.708z"/>
	</g>
	<g>
		<path fill="#0499CC" d="M177.764,44.067c-1.695,0-3.07-1.375-3.07-3.07h6.141C180.834,42.693,179.459,44.067,177.764,44.067z"/>
		<path fill="#0499CC" d="M177.764,50.651c-1.695,0-3.07-1.375-3.07-3.07h6.141C180.834,49.276,179.459,50.651,177.764,50.651z"/>
		<path fill="#0499CC" d="M177.764,57.234c-1.695,0-3.07-1.375-3.07-3.07h6.141C180.834,55.86,179.459,57.234,177.764,57.234z"/>
		<path fill="#0499CC" d="M184.971,47.138c-1.695,0-3.07-1.375-3.07-3.07h6.141C188.042,45.763,186.667,47.138,184.971,47.138z"/>
		<path fill="#0499CC" d="M184.971,54.638c-1.695,0-3.07-1.375-3.07-3.07h6.141C188.042,53.263,186.667,54.638,184.971,54.638z"/>
		<path fill="#0499CC" d="M184.971,61.263c-1.695,0-3.07-1.375-3.07-3.07h6.141C188.042,59.888,186.667,61.263,184.971,61.263z"/>
		<path fill="#0499CC" d="M191.346,51.135c-1.695,0-3.07-1.375-3.07-3.07h6.141C194.417,49.76,193.042,51.135,191.346,51.135z"/>
		<path fill="#0499CC" d="M191.346,57.708c-1.695,0-3.07-1.375-3.07-3.07h6.141C194.417,56.333,193.042,57.708,191.346,57.708z"/>
	</g>
	<circle fill="#CC3B46" cx="166.101" cy="2.415" r="2.415"/>
	<circle fill="#FFFFFF" cx="162.217" cy="14.59" r="1.829"/>
	<circle fill="#FFFFFF" cx="97.182" cy="92.417" r="1.083"/>
	<rect x="98.822" y="139.958" fill="#2E5E7F" width="3.083" height="4.084"/>
	<rect x="110.384" y="139.958" fill="#2E5E7F" width="3.083" height="4.084"/>
	<circle fill="#FFFFFF" cx="65.696" cy="120.276" r="1.324"/>
	
		<rect x="67.737" y="94.164" transform="matrix(0.7074 -0.7069 0.7069 0.7074 -47.3588 76.9369)" fill="#23475F" width="2.999" height="2.998"/>
	<circle fill="#23475F" cx="197.299" cy="79.365" r="1.875"/>
	<circle fill="#23475F" cx="234.588" cy="79.365" r="1.875"/>
	<path fill="#C398B9" d="M80.258,70.72c-2.774,0-5.3,1.04-7.23,2.741c-3.042-6.197-9.396-10.473-16.766-10.473
		c-7.344,0-13.681,4.247-16.735,10.409c-1.921-1.663-4.42-2.677-7.161-2.677c-6.05,0-10.955,4.905-10.955,10.955h69.802
		C91.213,75.625,86.308,70.72,80.258,70.72z"/>
	<path fill="#FFAB9E" d="M234.916,41.874c-2.773,0-5.3,1.04-7.23,2.741c-3.042-6.197-9.396-10.473-16.766-10.473
		c-7.344,0-13.681,4.247-16.735,10.409c-1.921-1.663-4.421-2.677-7.161-2.677c-6.05,0-10.955,4.905-10.955,10.955h69.803
		C245.871,46.778,240.966,41.874,234.916,41.874z"/>
	<rect x="237.651" y="133.72" fill="#FBD458" width="6.695" height="33.435"/>
	<rect x="189.167" y="144.806" fill="#FBD458" width="6.695" height="22.348"/>
	<g>
		<polygon fill="#564542" points="229.106,168.392 213.782,168.392 209.505,159.544 233.381,159.544 		"/>
		<polygon fill="#FF6038" points="221.319,159.562 221.319,145.621 230.218,159.562 		"/>
		<polygon fill="#FFBE9E" points="221.319,159.544 221.319,150.449 214.546,159.544 		"/>
		<polygon fill="#FCD85E" points="225.504,144.806 221.319,144.806 221.319,142.29 225.504,142.29 224.019,143.548 		"/>
		<rect x="220.971" y="142.29" fill="#FFFFFF" width="0.473" height="17.255"/>
	</g>
	<path fill="#FFFFFF" d="M0.28,160.89l0.062,0.102c2.643,4.289,8.869,4.289,11.51,0l0.063-0.102l0.06,0.099
		c2.643,4.29,8.87,4.29,11.511,0l0.061-0.099l0.062,0.1c2.642,4.289,8.868,4.291,11.511,0l0.062-0.1l0.063,0.102
		c2.643,4.289,8.869,4.289,11.51-0.002l0.062-0.1l0.062,0.1c2.642,4.289,8.869,4.289,11.511,0l0.061-0.1l0.063,0.104
		c2.643,4.289,8.868,4.287,11.511-0.002l0.063-0.102l0.062,0.1c2.642,4.289,8.869,4.289,11.511,0l0.061-0.1l0.064,0.104
		c2.642,4.289,8.868,4.287,11.51-0.002l0.063-0.102l0.062,0.102c2.642,4.289,8.868,4.289,11.51,0l0.062-0.102l0.063,0.102
		c2.642,4.289,8.867,4.289,11.51,0l0.062-0.102l0.065,0.104c2.641,4.289,8.867,4.289,11.51,0l0.062-0.104l0.063,0.102
		c2.642,4.289,8.868,4.291,11.511,0.002l0.062-0.104l0.062,0.1c2.644,4.289,8.87,4.287,11.511-0.003l0.061-0.097l0.058,0.095
		c2.642,4.291,8.87,4.292,11.512,0.001l0.06-0.096l0.063,0.104c2.644,4.287,8.868,4.287,11.51-0.002l0.062-0.102l0.06,0.098
		c2.643,4.289,8.87,4.291,11.512,0.001l0.061-0.099l0.062,0.102c2.645,4.289,8.869,4.289,11.512-0.002l0.062-0.1l0.063,0.104
		c2.642,4.289,8.868,4.289,11.51,0l0.064-0.104l0.062,0.102c2.643,4.289,8.868,4.291,11.51,0.002l0.064-0.104l0.063,0.104
		c2.643,4.289,8.868,4.289,11.51,0l0.064-0.104l0.065,0.105c2.644,4.288,8.866,4.288,11.51,0.001l0.065-0.106l0.065,0.105
		c2.642,4.288,8.867,4.288,11.509,0.001l0.065-0.106l0.069,0.109c2.641,4.286,8.865,4.286,11.508,0l0.066-0.109l0.067,0.109
		c2.644,4.286,8.865,4.286,11.508,0l0.067-0.109l0.062,0.102c2.643,4.289,8.868,4.289,11.511,0.002l0.064-0.104l0.066,0.11
		c2.643,4.286,8.865,4.286,11.509,0l0.067-0.11l0.069,0.111c2.643,4.286,8.865,4.286,11.508,0.001l0.069-0.112l0.067,0.111
		c2.643,4.286,8.865,4.287,11.508,0.002l0.07-0.113l0.077,0.126c2.645,4.281,8.862,4.281,11.505,0l0.077-0.126v13.818H0.28V160.89z"
		/>
	<path fill="#3B3167" d="M337.982,167.925c-2.646,4.281-8.875,4.281-11.523,0l-0.077-0.125l-0.07,0.111
		c-2.647,4.287-8.88,4.285-11.527-0.001l-0.067-0.11l-0.069,0.111c-2.647,4.285-8.88,4.285-11.527-0.001l-0.069-0.11l-0.067,0.109
		c-2.647,4.285-8.881,4.285-11.527,0l-0.067-0.109l-0.064,0.102c-2.646,4.289-8.883,4.287-11.529-0.001l-0.062-0.101l-0.067,0.108
		c-2.647,4.286-8.88,4.286-11.527,0l-0.067-0.108l-0.066,0.108c-2.647,4.286-8.882,4.286-11.527,0l-0.069-0.108l-0.065,0.106
		c-2.646,4.286-8.882,4.286-11.528-0.001l-0.065-0.105l-0.065,0.105c-2.647,4.287-8.881,4.287-11.528-0.001l-0.065-0.104
		l-0.065,0.104c-2.646,4.287-8.882,4.287-11.528-0.001l-0.063-0.103l-0.064,0.103c-2.646,4.288-8.882,4.288-11.529-0.001
		l-0.062-0.102l-0.064,0.103c-2.646,4.288-8.883,4.288-11.529-0.001l-0.063-0.102l-0.062,0.1c-2.646,4.289-8.882,4.289-11.53,0.001
		l-0.062-0.101l-0.062,0.098c-2.646,4.289-8.884,4.289-11.53,0l-0.06-0.098l-0.062,0.101c-2.646,4.288-8.882,4.29-11.529,0.002
		l-0.063-0.103l-0.06,0.094c-2.646,4.291-8.885,4.291-11.53,0l-0.059-0.094l-0.061,0.096c-2.645,4.291-8.883,4.291-11.529,0.002
		l-0.062-0.098l-0.062,0.103c-2.646,4.288-8.883,4.288-11.529-0.001l-0.063-0.102l-0.063,0.103c-2.646,4.288-8.883,4.288-11.529,0
		l-0.064-0.103l-0.062,0.101c-2.646,4.29-8.883,4.29-11.529,0l-0.062-0.101l-0.063,0.101c-2.647,4.288-8.883,4.288-11.529,0
		l-0.062-0.101l-0.063,0.102c-2.647,4.289-8.883,4.289-11.529,0.001l-0.064-0.103l-0.062,0.099c-2.647,4.29-8.884,4.29-11.53,0
		l-0.062-0.099l-0.063,0.101c-2.647,4.29-8.883,4.29-11.53,0.002l-0.063-0.103l-0.061,0.099c-2.647,4.29-8.884,4.29-11.531,0
		l-0.062-0.099l-0.062,0.1c-2.646,4.289-8.882,4.289-11.529,0.001L34.96,167.8l-0.062,0.1c-2.647,4.289-8.883,4.289-11.53-0.001
		l-0.062-0.099l-0.061,0.098c-2.646,4.289-8.883,4.289-11.53,0l-0.06-0.098l-0.063,0.101c-2.646,4.288-8.882,4.29-11.529,0L0,167.8
		v6.908v5h338.06v-5V167.8L337.982,167.925z"/>
	<g>
		<g>
			<rect x="238.288" y="138.75" fill="#F05D4B" width="3.053" height="1.37"/>
			<rect x="236.124" y="136.728" fill="#F05D4B" width="3.054" height="1.371"/>
			<rect x="236.124" y="140.799" fill="#F05D4B" width="3.054" height="1.37"/>
			<rect x="234.031" y="138.75" fill="#F05D4B" width="3.054" height="1.37"/>
		</g>
		<g>
			<rect x="228.737" y="137.105" fill="#F05D4B" width="3.054" height="1.371"/>
			<rect x="226.572" y="135.083" fill="#F05D4B" width="3.054" height="1.371"/>
		</g>
		<g>
			<rect x="195.245" y="138.75" fill="#F05D4B" width="3.053" height="1.37"/>
			<rect x="193.081" y="136.728" fill="#F05D4B" width="3.053" height="1.371"/>
			<rect x="193.081" y="140.799" fill="#F05D4B" width="3.053" height="1.37"/>
			<rect x="190.988" y="138.75" fill="#F05D4B" width="3.055" height="1.37"/>
		</g>
		<rect x="202.683" y="136.094" fill="#F05D4B" width="3.055" height="1.371"/>
		<rect x="190.988" y="146.625" fill="#F05D4B" width="3.055" height="1.371"/>
		<rect x="190.988" y="151.28" fill="#F05D4B" width="3.055" height="1.371"/>
		<rect x="190.988" y="155.295" fill="#F05D4B" width="3.055" height="1.371"/>
		<rect x="239.815" y="146.425" fill="#F05D4B" width="3.053" height="1.371"/>
		<rect x="239.815" y="150.231" fill="#F05D4B" width="3.053" height="1.371"/>
		<rect x="239.815" y="155.025" fill="#F05D4B" width="3.053" height="1.371"/>
	</g>
</g>
</svg>
