<svg xmlns="http://www.w3.org/2000/svg" viewBox="0 0 49.32 52.61"><defs><style>.cls-1{fill:#fff;}</style></defs><title>ICON_arobase</title><g id="Layer_2" data-name="Layer 2"><g id="Layer_1-2" data-name="Layer 1"><path class="cls-1" d="M45.32,6.72C41.72,2.39,36.06,0,29.37,0,16.35,0,1.67,9.84.12,28.08-.49,35.24,1.3,41.41,5.29,45.92a20.25,20.25,0,0,0,14.64,6.66l1.35,0c6.66,0,13.5-1.72,17.36-4.43a1.64,1.64,0,0,0-1.89-2.69c-2.88,2-9.35,4.08-16.71,3.81a17,17,0,0,1-12.3-5.56C4.37,39.92,2.86,34.6,3.39,28.36c1.39-16.28,14.42-25.07,26-25.07,5.69,0,10.45,2,13.41,5.53S46.68,17.26,45.6,23c-2.36,12.6-8.69,14.34-10.92,14-.77-.13-1-.43-1-.52a2.42,2.42,0,0,1-.08-1.66L39.4,13.58a1.64,1.64,0,0,0-3.17-.87L35,17.38a10.87,10.87,0,0,0-1.38-2.23,9.77,9.77,0,0,0-7.75-3.64C18.93,11.51,11.95,18,10.25,26c-.94,4.41-.14,8.6,2.21,11.5a9.77,9.77,0,0,0,7.75,3.64,14.82,14.82,0,0,0,10.06-4.57,4.48,4.48,0,0,0,.59,1.65,4.53,4.53,0,0,0,3.26,2.05c3.88.67,12-1.92,14.72-16.59C50.1,16.87,48.88,11,45.32,6.72ZM20.21,37.81A6.46,6.46,0,0,1,15,35.39c-1.72-2.12-2.28-5.31-1.55-8.75C14.86,20.11,20.4,14.8,25.82,14.8A6.46,6.46,0,0,1,31,17.21c1.72,2.12,2.28,5.31,1.55,8.75C31.17,32.49,25.63,37.81,20.21,37.81Z"/></g></g></svg>