<svg xmlns="http://www.w3.org/2000/svg" viewBox="0 0 71.12 55.56"><defs><style>.cls-1{fill:#fff;}</style></defs><title>ICON_mail</title><g id="Layer_2" data-name="Layer 2"><g id="Layer_1-2" data-name="Layer 1"><path class="cls-1" d="M64.45,0H6.67A6.67,6.67,0,0,0,0,6.67V48.89a6.67,6.67,0,0,0,6.67,6.67H64.45a6.67,6.67,0,0,0,6.67-6.67V6.67A6.67,6.67,0,0,0,64.45,0Zm0,4.44a2.17,2.17,0,0,1,1,.28L41.15,28.83c-2.3,1.7-3.72,2.28-5.59,2.28s-3.29-.58-5.59-2.27L5.65,4.72a2.17,2.17,0,0,1,1-.27Zm0,46.67H6.67a2.22,2.22,0,0,1-2.22-2.22V9.78L27,32.11l.24.2c2.61,1.95,5,3.24,8.37,3.24s5.77-1.3,8.38-3.26L66.67,9.78V48.89A2.22,2.22,0,0,1,64.45,51.12Z"/></g></g></svg>