<svg xmlns="http://www.w3.org/2000/svg" viewBox="0 0 827.81 253.02"><defs><style>.cls-1{fill:#fff;}.cls-2,.cls-3{fill:#043f80;}.cls-2{fill-rule:evenodd;}</style></defs><title>LOGO_logocoulor</title><g id="Layer_2" data-name="Layer 2"><g id="Layer_1-2" data-name="Layer 1"><path class="cls-1" d="M147.8,252.18V193.87h16.26q8.25,0,12.87,3.92t4.63,11.77a13,13,0,0,1-2.1,7.35,12.17,12.17,0,0,1-5.83,4.66,11.21,11.21,0,0,1,7.27,4.95,16.41,16.41,0,0,1,2.54,9.15q0,8.05-4.54,12.27t-12.56,4.23Zm8.13-33h8.93a8.21,8.21,0,0,0,6.29-2.43q2.28-2.43,2.28-7,0-4.83-2.38-7.24t-7-2.41h-8.13Zm0,5.85v21h10.41a8.4,8.4,0,0,0,6.67-2.66q2.34-2.67,2.34-7.63a13.59,13.59,0,0,0-2-7.83,7,7,0,0,0-6.17-2.9Z"/><path class="cls-1" d="M238.07,231.07q0,10.37-5.37,16.16T218.32,253q-8.89,0-14.14-5.79t-5.24-16.16v-16q0-10.33,5.27-16.18T218.32,193q9,0,14.36,5.85t5.39,16.18ZM230,214.93q0-7.61-3-11.56a10.24,10.24,0,0,0-8.61-3.94,9.83,9.83,0,0,0-8.41,3.94Q207,207.33,207,214.93v16.14q0,7.69,2.95,11.65a9.83,9.83,0,0,0,8.39,4,10.23,10.23,0,0,0,8.63-3.94q3-3.94,3-11.67Z"/><path class="cls-1" d="M294.17,252.18h-8.09L264,208.8l-.24.08v43.29H255.6V193.87h8.13l22.11,43.25.24-.08V193.87h8.09Z"/><path class="cls-1" d="M313.74,252.18V193.87h16a18.85,18.85,0,0,1,15.16,7q5.87,7,5.87,18v8.29q0,11.05-5.87,18a18.9,18.9,0,0,1-15.16,7ZM321.87,200v46h7.61a11.08,11.08,0,0,0,9.67-5.25q3.54-5.26,3.54-13.6v-8.39q0-8.26-3.54-13.5a11.1,11.1,0,0,0-9.67-5.23Z"/><path class="cls-1" d="M376.81,252.18h-8.09V193.87h8.09Z"/><path class="cls-1" d="M423,252.18V193.87h16.26q8.25,0,12.87,3.92t4.63,11.77a13,13,0,0,1-2.1,7.35,12.17,12.17,0,0,1-5.83,4.66,11.21,11.21,0,0,1,7.27,4.95,16.42,16.42,0,0,1,2.54,9.15q0,8.05-4.54,12.27t-12.56,4.23Zm8.13-33H440a8.21,8.21,0,0,0,6.29-2.43q2.28-2.43,2.28-7,0-4.83-2.38-7.24t-7-2.41H431.1Zm0,5.85v21h10.41a8.4,8.4,0,0,0,6.67-2.66q2.34-2.67,2.34-7.63a13.58,13.58,0,0,0-2-7.83,7,7,0,0,0-6.17-2.9Z"/><path class="cls-1" d="M505.86,225.06H484.24V246h25.07v6.17h-33.2V193.87h33V200H484.24V218.9h21.63Z"/><path class="cls-1" d="M551.59,237.44H533l-4.25,14.74h-8.25l17.94-58.31h7.85l17.78,58.31h-8.25ZM534.89,231h14.86l-7.29-25.47h-.24Z"/><path class="cls-1" d="M612.86,234.48l.12.24q0,8.72-4.64,13.52t-13,4.79q-8.57,0-13.7-5.77t-5.12-16.1V215q0-10.33,5.07-16.14T595.07,193q8.57,0,13.18,4.69T613,211.41l-.12.24h-7.69q-.12-6.41-2.52-9.43t-7.57-3a8.86,8.86,0,0,0-7.77,4q-2.76,4.05-2.76,11.56v16.33q0,7.62,2.82,11.67a9.13,9.13,0,0,0,8,4.05q5,0,7.39-2.94t2.42-9.43Z"/><path class="cls-1" d="M668.56,252.18h-8.09V226.43H638.12v25.75H630V193.87h8.13v26.39h22.35V193.87h8.09Z"/><path class="cls-2" d="M582.74,25.1a2.71,2.71,0,0,0,2.69-2.71V2.68A2.7,2.7,0,0,0,582.74,0H515.89a2.7,2.7,0,0,0-2.69,2.68v19.7a2.71,2.71,0,0,0,2.69,2.71H533.5a2.68,2.68,0,0,1,2.69,2.68V131a2.7,2.7,0,0,0,2.69,2.69h20.87a2.69,2.69,0,0,0,2.69-2.69V27.78a2.69,2.69,0,0,1,2.71-2.68Z"/><path class="cls-2" d="M437.17,133.68a2.71,2.71,0,0,0,2.69-2.71l0-128.24A2.72,2.72,0,0,0,437.19,0H417.55a2.76,2.76,0,0,0-2.71,2.76v57c0,1.47-.44,1.57-1,.17L390.09,2.57A4.39,4.39,0,0,0,386.39,0H367.81a2.72,2.72,0,0,0-2.69,2.73V131a2.7,2.7,0,0,0,2.69,2.68h19.62a2.7,2.7,0,0,0,2.71-2.68V70.61c0-1.49.4-1.57.92-.18l24.64,60.71a4.15,4.15,0,0,0,3.63,2.55Z"/><path class="cls-2" d="M314.43,79.65c0-1.47.31-1.79,1.8-1.79h18.34a2.76,2.76,0,0,0,2.69-2.77V55.83a2.7,2.7,0,0,0-2.69-2.68H316.22c-1.48,0-1.8-.33-1.8-1.82V26.87c0-1.49.31-1.75,1.8-1.75h31.66a2.54,2.54,0,0,0,2.69-2.47V2.7A2.72,2.72,0,0,0,347.88,0H290.76a2.72,2.72,0,0,0-2.69,2.7V131a2.7,2.7,0,0,0,2.69,2.69h57.12a2.7,2.7,0,0,0,2.69-2.69V111.15a2.71,2.71,0,0,0-2.69-2.69H316.22c-1.48,0-1.8-.31-1.8-1.81Z"/><path class="cls-2" d="M232.68,80.6c0-1.47.4-1.49.88-.1l19.79,50.64a4.05,4.05,0,0,0,3.55,2.55h21.47a1.79,1.79,0,0,0,1.8-2.55L254.78,66.56a8.25,8.25,0,0,1,.06-5.07l22.81-59A1.73,1.73,0,0,0,275.92,0H254.45a4.14,4.14,0,0,0-3.61,2.53l-17.22,47c-.51,1.39-.93,1.33-.93-.16V2.69A2.71,2.71,0,0,0,230,0H210.3a2.72,2.72,0,0,0-2.71,2.69V131a2.7,2.7,0,0,0,2.71,2.69H230a2.69,2.69,0,0,0,2.71-2.69Z"/><path class="cls-2" d="M768.24,80.6c0-1.47.42-1.49.88-.1l19.79,50.64a4.06,4.06,0,0,0,3.57,2.55h21.47a1.8,1.8,0,0,0,1.8-2.55L790.33,66.56a8.54,8.54,0,0,1,.07-5.07l22.79-59A1.72,1.72,0,0,0,811.47,0H790a4.1,4.1,0,0,0-3.63,2.53l-17.26,47c-.49,1.39-.92,1.33-.92-.16V2.69A2.7,2.7,0,0,0,765.54,0H745.83a2.72,2.72,0,0,0-2.69,2.69V131a2.7,2.7,0,0,0,2.69,2.69h19.71a2.69,2.69,0,0,0,2.69-2.69Z"/><path class="cls-2" d="M107.3,2.69A2.7,2.7,0,0,0,104.61,0H84.93a2.68,2.68,0,0,0-2.69,2.68V131a2.69,2.69,0,0,0,2.69,2.69h19.68A2.7,2.7,0,0,0,107.3,131Z"/><path class="cls-2" d="M492.24,56.81c-7.93-8-16.12-14.22-16.12-21.59,0-5.14,4.12-10.09,9.38-10.1,1.19,0,10.83,0,14.84,0h.07a2.75,2.75,0,0,0,2.73-2.75V2.73A2.73,2.73,0,0,0,500.4,0H481.91c-20.46,0-31.8,14.27-31.55,34.41.11,16.33,9.64,27.55,23,40,7.58,6.93,13.8,12.67,13.8,22,0,7.66-4.4,11.87-11.69,12.09H453a2.75,2.75,0,0,0-2.67,2.77V131a2.71,2.71,0,0,0,2.71,2.73h29.57c22.31.44,30.54-18.33,30.54-37.53,0-18.53-9.44-27.61-20.94-39.33"/><path class="cls-2" d="M58.13,64.31a1.74,1.74,0,0,1-.75-1.21c0-.72.88-1.44.88-1.44a26.33,26.33,0,0,0,7.58-19.35V26.82C65.62,8,59.27,0,38.44,0H2.75A2.74,2.74,0,0,0,0,2.74V131a2.73,2.73,0,0,0,2.75,2.73H40.29c19.57,0,27.15-14,27.15-33.55v-11c0-13-1.94-19.46-9.31-24.85M25,25.62c0-1.51.29-1.8,1.78-1.8H33c5.64,0,8,4.25,8,15.19,0,12.18-3.3,14.14-8,14.14H26.77c-1.48,0-1.78-.31-1.78-1.8Zm9.8,84.26H26.93c-1.52,0-1.83-.31-1.83-1.83V79.7c0-1.52.31-1.84,1.83-1.84h7.86c6.1,0,7.68,5.31,7.79,15.43.13,13.45-2,16.59-7.79,16.59"/><path class="cls-2" d="M196.57,131.14,175.07,78.32l.27,0s2-.81,2-.82c6.56-3.35,13.3-10.49,13.3-24.23V28.43C190.68,4.67,176.77,0,159.6,0H126.46a2.76,2.76,0,0,0-2.77,2.73V131a2.76,2.76,0,0,0,2.77,2.73h19.6A2.72,2.72,0,0,0,148.8,131V80.59c0-1.48.4-1.48.88-.09l20.08,50.64a4.06,4.06,0,0,0,3.57,2.55H194.8a1.78,1.78,0,0,0,1.78-2.55m-30.3-91.91c.15,13.46-2,16.61-7.77,16.61h-7.84c-1.52,0-1.87-.32-1.87-1.84V25.65c0-1.49.35-1.83,1.87-1.83h7.84c6.08,0,7.68,5.29,7.77,15.41"/><path class="cls-3" d="M721.57,133.68c-38.87,0-43.73-28-43.73-67.05S682.7,0,721.57,0h8.81a2.66,2.66,0,0,1,2.78,2.58l0,19.78a2.73,2.73,0,0,1-2.75,2.73h-8.87c-15.3,0-17.82,7.14-17.82,41.53,0,34.58,2.53,41.79,17.82,41.79l8.85,0h0a2.74,2.74,0,0,1,2.75,2.74V131a2.74,2.74,0,0,1-2.75,2.73Z"/><path class="cls-3" d="M627.83,0c38.87,0,41.55,27.51,41.55,66.58s-2.68,67.11-41.55,67.11-41.55-28-41.55-67.11S588.92,0,627.83,0m0,108.62c15.3,0,15.61-7.48,15.61-42,0-34.39-.31-42.85-15.61-42.85S612.2,32.19,612.2,66.58c0,34.56.31,42,15.63,42"/><path class="cls-3" d="M803,64.83a12.43,12.43,0,1,1,12.44,12.48A12.22,12.22,0,0,1,803,64.83m22.64,0a10.21,10.21,0,1,0-10.2,10.34,10,10,0,0,0,10.2-10.34M811,71.65a.4.4,0,0,1-.46-.45V58.32a.41.41,0,0,1,.46-.46h5.2c3,0,4.75,1.49,4.75,4.09a3.89,3.89,0,0,1-2.73,3.85L821,71.2c.13.27,0,.45-.26.45H819a.6.6,0,0,1-.59-.45l-2.6-5.08H813.3c-.2,0-.26.07-.26.27V71.2a.41.41,0,0,1-.46.45ZM818.51,62c0-1.23-.71-1.88-2.27-1.88H813.3c-.2,0-.26.06-.26.26v3.32a.23.23,0,0,0,.26.27h2.93c1.56,0,2.27-.71,2.27-2"/></g></g></svg>