<svg xmlns="http://www.w3.org/2000/svg" viewBox="0 0 172.59 54.42"><defs><style>.cls-1,.cls-2{fill:#043f80;}.cls-1{fill-rule:evenodd;}.cls-3{fill:#303030;}</style></defs><title>LOGO_logomenu</title><g id="Layer_2" data-name="Layer 2"><g id="Layer_1-2" data-name="Layer 1"><path class="cls-1" d="M121.5,5.23a.57.57,0,0,0,.56-.56V.56A.56.56,0,0,0,121.5,0H107.56a.56.56,0,0,0-.56.56V4.67a.57.57,0,0,0,.56.56h3.67a.56.56,0,0,1,.56.56V27.31a.56.56,0,0,0,.56.56h4.35a.56.56,0,0,0,.56-.56V5.79a.56.56,0,0,1,.56-.56Z"/><path class="cls-1" d="M91.15,27.87a.56.56,0,0,0,.56-.56V.57A.57.57,0,0,0,91.15,0H87.06a.57.57,0,0,0-.56.57V12.46c0,.31-.09.33-.21,0l-5-12A.91.91,0,0,0,80.56,0H76.69a.57.57,0,0,0-.56.57V27.31a.56.56,0,0,0,.56.56h4.09a.56.56,0,0,0,.56-.56V14.72c0-.31.08-.33.19,0l5.14,12.66a.86.86,0,0,0,.76.53Z"/><path class="cls-1" d="M65.55,16.61c0-.31.06-.37.37-.37h3.82a.58.58,0,0,0,.56-.58v-4a.56.56,0,0,0-.56-.56H65.93c-.31,0-.37-.07-.37-.38V5.6c0-.31.06-.36.37-.36h6.6a.53.53,0,0,0,.56-.52V.56A.56.56,0,0,0,72.53,0H60.62a.56.56,0,0,0-.56.56V27.31a.56.56,0,0,0,.56.56H72.53a.56.56,0,0,0,.56-.56V23.17a.56.56,0,0,0-.56-.56h-6.6c-.31,0-.37-.06-.37-.38Z"/><path class="cls-1" d="M48.51,16.8c0-.31.08-.31.18,0l4.13,10.56a.84.84,0,0,0,.74.53H58a.37.37,0,0,0,.38-.53L53.12,13.87a1.72,1.72,0,0,1,0-1.05L57.89.52A.36.36,0,0,0,57.53,0H53.05a.86.86,0,0,0-.75.53l-3.59,9.8c-.11.29-.2.28-.2,0V.56A.56.56,0,0,0,47.95,0H43.84a.56.56,0,0,0-.56.56V27.31a.56.56,0,0,0,.56.56h4.11a.56.56,0,0,0,.56-.56Z"/><path class="cls-1" d="M160.17,16.8c0-.31.09-.31.18,0l4.12,10.56a.85.85,0,0,0,.75.53h4.48a.37.37,0,0,0,.37-.53l-5.3-13.47a1.79,1.79,0,0,1,0-1.05L169.55.52a.36.36,0,0,0-.36-.52h-4.47a.86.86,0,0,0-.76.53l-3.6,9.8c-.1.29-.19.28-.19,0V.56a.56.56,0,0,0-.56-.56H155.5a.56.56,0,0,0-.56.56V27.31a.56.56,0,0,0,.56.56h4.11a.56.56,0,0,0,.56-.56Z"/><rect class="cls-2" x="17.15" width="5.23" height="27.87" rx="0.56" ry="0.56"/><path class="cls-1" d="M102.63,11.84c-1.65-1.66-3.36-3-3.36-4.5a2.09,2.09,0,0,1,2-2.11h3.11a.57.57,0,0,0,.57-.57V.58h0a.57.57,0,0,0-.57-.57h-3.85c-4.27,0-6.63,3-6.58,7.18,0,3.41,2,5.74,4.8,8.33,1.58,1.44,2.88,2.64,2.88,4.58a2.3,2.3,0,0,1-2.44,2.52H94.46a.58.58,0,0,0-.56.58V27.3a.57.57,0,0,0,.57.57h6.16C105.28,28,107,24,107,20s-2-5.76-4.37-8.2"/><path class="cls-1" d="M12.12,13.41a.36.36,0,0,1-.16-.25c0-.15.18-.3.18-.3a5.49,5.49,0,0,0,1.58-4V5.59C13.68,1.66,12.36,0,8,0H.57A.57.57,0,0,0,0,.57V27.3a.57.57,0,0,0,.57.57H8.4c4.08,0,5.66-2.92,5.66-7V18.59c0-2.71-.41-4.05-1.94-5.18M5.21,5.34c0-.31.06-.38.37-.38H6.87C8,5,8.54,5.85,8.54,8.13c0,2.54-.69,2.95-1.67,2.95H5.58c-.31,0-.37-.06-.37-.37Zm2,17.57H5.62c-.32,0-.38-.07-.38-.38V16.62c0-.32.07-.38.38-.38H7.25c1.27,0,1.6,1.11,1.62,3.22,0,2.8-.43,3.46-1.62,3.46"/><path class="cls-1" d="M41,27.34l-4.49-11h.06l.42-.17a5.25,5.25,0,0,0,2.78-5.05V5.93c0-5-2.9-5.93-6.48-5.93H26.37a.57.57,0,0,0-.57.57V27.3h0a.57.57,0,0,0,.57.57h4.09A.57.57,0,0,0,31,27.3h0V16.8c0-.31.08-.31.18,0l4.19,10.56a.84.84,0,0,0,.75.53h4.47a.37.37,0,0,0,.37-.53M34.67,8.18c0,2.81-.42,3.46-1.62,3.46H31.41c-.32,0-.39-.07-.39-.38V5.35c0-.31.07-.38.39-.38H33c1.27,0,1.6,1.1,1.62,3.21"/><path class="cls-2" d="M150.44,27.87c-8.11,0-9.12-5.83-9.12-14S142.34,0,150.44,0h1.84a.56.56,0,0,1,.58.54V4.66a.57.57,0,0,1-.57.57h-1.85c-3.19,0-3.72,1.49-3.72,8.66s.53,8.71,3.72,8.71h1.85a.57.57,0,0,1,.57.57V27.3a.57.57,0,0,1-.57.57Z"/><path class="cls-2" d="M130.9,0c8.11,0,8.66,5.73,8.66,13.88s-.56,14-8.66,14-8.66-5.85-8.66-14S122.79,0,130.9,0m0,22.64c3.19,0,3.25-1.56,3.25-8.76s-.06-8.94-3.25-8.94-3.26,1.77-3.26,8.94.07,8.76,3.26,8.76"/><path class="cls-2" d="M167.41,13.52a2.59,2.59,0,1,1,2.59,2.6,2.55,2.55,0,0,1-2.59-2.6m4.72,0A2.13,2.13,0,1,0,170,15.67a2.08,2.08,0,0,0,2.13-2.16m-3,1.42a.08.08,0,0,1-.09-.09V12.16a.09.09,0,0,1,.09-.1h1.09c.62,0,1,.31,1,.86a.81.81,0,0,1-.57.8l.58,1.12c0,.06,0,.09-.05.09h-.38a.12.12,0,0,1-.12-.09l-.54-1.06h-.52s-.05,0-.05.06v1a.09.09,0,0,1-.1.09Zm1.56-2c0-.26-.15-.39-.47-.39h-.61s-.05,0-.05.05v.69a0,0,0,0,0,.05.05h.61c.32,0,.47-.15.47-.41"/><path class="cls-3" d="M11.86,51.46A4.23,4.23,0,0,1,10.77,53,4.58,4.58,0,0,1,9.09,54a7,7,0,0,1-2.15.31H0V36.44H6.71a6.73,6.73,0,0,1,2.13.33,4.71,4.71,0,0,1,1.66.94,4.32,4.32,0,0,1,1.08,1.49,4.9,4.9,0,0,1,.39,2A4.08,4.08,0,0,1,9.34,45.1a4.57,4.57,0,0,1,2.09,1.55,4.32,4.32,0,0,1,.81,2.68A5.46,5.46,0,0,1,11.86,51.46ZM9.79,39.84a2.73,2.73,0,0,0-.74-1A3.15,3.15,0,0,0,8,38.33a4.9,4.9,0,0,0-1.39-.19H1.9v6.19H6.56A4.9,4.9,0,0,0,8,44.14a3.14,3.14,0,0,0,1.1-.56,2.69,2.69,0,0,0,.74-1,3.26,3.26,0,0,0,.28-1.39A3.17,3.17,0,0,0,9.79,39.84Zm-.41,7.06A3.74,3.74,0,0,0,6.76,46H1.9v6.54H6.76a3.71,3.71,0,0,0,2.62-.89,3.09,3.09,0,0,0,1-2.39A3.05,3.05,0,0,0,9.38,46.91Z"/><path class="cls-3" d="M28.5,47.85a11.48,11.48,0,0,1-.19,1.9,5.9,5.9,0,0,1-.5,1.52,5.07,5.07,0,0,1-1,1.3,6.28,6.28,0,0,1-2.05,1.38,6.5,6.5,0,0,1-2.5.47,6.19,6.19,0,0,1-4.56-1.85,5.07,5.07,0,0,1-1-1.3,5.86,5.86,0,0,1-.5-1.52,11.37,11.37,0,0,1-.19-1.9q0-1.06,0-2.49t0-2.49a11.37,11.37,0,0,1,.19-1.9,5.86,5.86,0,0,1,.5-1.52,5.07,5.07,0,0,1,1-1.3,6.2,6.2,0,0,1,4.56-1.85,6.2,6.2,0,0,1,4.56,1.85,5.07,5.07,0,0,1,1,1.3,5.9,5.9,0,0,1,.5,1.52,11.48,11.48,0,0,1,.19,1.9q0,1.06,0,2.49T28.5,47.85ZM26.58,43a11.72,11.72,0,0,0-.16-1.64A4.26,4.26,0,0,0,26,40.18a3.68,3.68,0,0,0-.68-.91A4.07,4.07,0,0,0,24,38.33a4.4,4.4,0,0,0-3.38,0,4.07,4.07,0,0,0-1.39.94,3.66,3.66,0,0,0-.68.91,4.23,4.23,0,0,0-.38,1.16A11.72,11.72,0,0,0,18,43q0,1,0,2.37t0,2.37a11.72,11.72,0,0,0,.16,1.64,4.25,4.25,0,0,0,.38,1.16,3.64,3.64,0,0,0,.68.91,4.07,4.07,0,0,0,1.39.94,4.4,4.4,0,0,0,3.38,0,4.07,4.07,0,0,0,1.39-.94,3.67,3.67,0,0,0,.68-.91,4.29,4.29,0,0,0,.37-1.16,11.72,11.72,0,0,0,.16-1.64q0-1,0-2.37T26.58,43Z"/><path class="cls-3" d="M44.37,54.27,34.91,40v14.3H33V36.44h1.8l9.47,14.25V36.44h1.9V54.27Z"/><path class="cls-3" d="M63.69,47.11a14.77,14.77,0,0,1-.16,2A8.45,8.45,0,0,1,63,51,4.78,4.78,0,0,1,62,52.62a5.33,5.33,0,0,1-2,1.23,7.31,7.31,0,0,1-2.55.43H51.34V36.44h6.11a7.31,7.31,0,0,1,2.55.43,5.34,5.34,0,0,1,2,1.23A5,5,0,0,1,63,39.63a7.45,7.45,0,0,1,.51,1.75,12.72,12.72,0,0,1,.16,1.88q0,1,0,1.89T63.69,47.11Zm-1.9-3.59A13.34,13.34,0,0,0,61.68,42a6.13,6.13,0,0,0-.35-1.39,3.38,3.38,0,0,0-.7-1.13,3.85,3.85,0,0,0-1.58-1,6.16,6.16,0,0,0-1.93-.29H53.24V52.57h3.88A6.13,6.13,0,0,0,59,52.28a3.85,3.85,0,0,0,1.58-1,3.29,3.29,0,0,0,.7-1.19,7.25,7.25,0,0,0,.35-1.53,16,16,0,0,0,.11-1.69q0-.88,0-1.7T61.79,43.51Z"/><path class="cls-3" d="M68.19,54.27V36.44h1.9V54.27Z"/><path class="cls-3" d="M93.34,51.46A4.23,4.23,0,0,1,92.25,53a4.58,4.58,0,0,1-1.68.94,7,7,0,0,1-2.15.31H81.48V36.44H88.2a6.73,6.73,0,0,1,2.13.33A4.71,4.71,0,0,1,92,37.7a4.32,4.32,0,0,1,1.08,1.49,4.9,4.9,0,0,1,.39,2,4.08,4.08,0,0,1-2.63,3.91,4.57,4.57,0,0,1,2.09,1.55,4.32,4.32,0,0,1,.81,2.68A5.46,5.46,0,0,1,93.34,51.46ZM91.28,39.84a2.73,2.73,0,0,0-.74-1,3.15,3.15,0,0,0-1.1-.56A4.9,4.9,0,0,0,88,38.14H83.39v6.19H88a4.9,4.9,0,0,0,1.39-.19,3.14,3.14,0,0,0,1.1-.56,2.69,2.69,0,0,0,.74-1,3.26,3.26,0,0,0,.28-1.39A3.17,3.17,0,0,0,91.28,39.84Zm-.41,7.06A3.74,3.74,0,0,0,88.25,46H83.39v6.54h4.86a3.71,3.71,0,0,0,2.62-.89,3.09,3.09,0,0,0,1-2.39A3.05,3.05,0,0,0,90.86,46.91Z"/><path class="cls-3" d="M98.21,54.27V36.44h11.07v1.7h-9.17v6.29h7.81v1.7h-7.81v6.44h9.17v1.7Z"/><path class="cls-3" d="M123.63,54.27l-1.43-4h-7.79l-1.43,4h-2l6.56-17.83h1.6l6.54,17.83Zm-5.28-15.1L115,48.58h6.66Z"/><path class="cls-3" d="M139.27,51.35A5.66,5.66,0,0,1,137.92,53a6,6,0,0,1-1.84,1,6.65,6.65,0,0,1-2.23.36,6.53,6.53,0,0,1-2.49-.47,6.24,6.24,0,0,1-2.07-1.38,5.07,5.07,0,0,1-1-1.3,5.86,5.86,0,0,1-.5-1.52,11.37,11.37,0,0,1-.19-1.9q0-1.06,0-2.49t0-2.49a11.37,11.37,0,0,1,.19-1.9,5.86,5.86,0,0,1,.5-1.52,5.07,5.07,0,0,1,1-1.3,6.24,6.24,0,0,1,2.07-1.38,6.53,6.53,0,0,1,2.49-.48,6.63,6.63,0,0,1,2.23.36,6,6,0,0,1,1.84,1,5.66,5.66,0,0,1,1.35,1.66A7.38,7.38,0,0,1,140,41.6h-2A4.7,4.7,0,0,0,136.63,39a4,4,0,0,0-2.78-1,4.51,4.51,0,0,0-1.69.33,3.92,3.92,0,0,0-1.39.93,3.66,3.66,0,0,0-.68.91,4.25,4.25,0,0,0-.38,1.18,12.08,12.08,0,0,0-.16,1.65q0,1,0,2.37t0,2.37a12,12,0,0,0,.16,1.65,4.23,4.23,0,0,0,.38,1.18,3.62,3.62,0,0,0,.68.91,3.9,3.9,0,0,0,1.39.93,4.51,4.51,0,0,0,1.69.33,4.13,4.13,0,0,0,2.81-1,4.64,4.64,0,0,0,1.48-2.63H140A7.38,7.38,0,0,1,139.27,51.35Z"/><path class="cls-3" d="M154.61,54.27V46.13h-8.46v8.14h-1.9V36.44h1.9v8h8.46v-8h1.9V54.27Z"/></g></g></svg>