<svg xmlns="http://www.w3.org/2000/svg" viewBox="0 0 31.92 46.43"><defs><style>.cls-1{fill:#fff;}</style></defs><title>ICON_location</title><g id="Layer_2" data-name="Layer 2"><g id="Layer_1-2" data-name="Layer 1"><path class="cls-1" d="M16,46.43a1.45,1.45,0,0,1-1.26-.73L2.05,23.8,2,23.64a16,16,0,1,1,28,0l-.08.15L17.22,45.71A1.45,1.45,0,0,1,16,46.43ZM4.65,22.49,16,42.08l11.32-19.6.06-.11a13.06,13.06,0,1,0-22.76,0Z"/><path class="cls-1" d="M16,21.76a5.8,5.8,0,1,1,5.8-5.8A5.81,5.81,0,0,1,16,21.76Zm0-8.71a2.9,2.9,0,1,0,2.9,2.9A2.91,2.91,0,0,0,16,13.06Z"/></g></g></svg>