<svg xmlns="http://www.w3.org/2000/svg" viewBox="0 0 50.43 50.43"><defs><style>.cls-1{fill:#fff;}</style></defs><title>ICON_phone</title><g id="Layer_2" data-name="Layer 2"><g id="Layer_1-2" data-name="Layer 1"><path class="cls-1" d="M37.54,50.43h0c-2.71,0-11,0-24.25-13.28S0,15.72,0,12.66v-.2C0,6.74,6.1,2.18,8.72.49a3.1,3.1,0,0,1,4.39,1.1l5.62,10.1a3.12,3.12,0,0,1-.84,4C14,18.62,13,19.54,13,20.34c.19,3,14.09,16.91,17.1,17.09.81,0,1.69-.92,4.68-4.89a3.18,3.18,0,0,1,4-.85l10.09,5.62a3.1,3.1,0,0,1,1.09,4.4c-1.69,2.62-6.25,8.72-12,8.72ZM10.36,3.12c-1.63,1.12-7.21,5-7.21,9.33v.2c0,2.71,0,9.88,12.36,22.26s19.63,12.36,22,12.36H38c4.28,0,8.22-5.57,9.32-7.28L37.22,34.45C34,38.8,32.57,40.56,30.1,40.59c-4.56,0-20.26-15.72-20.26-20.27,0-2.47,1.8-3.89,6.15-7.17Z"/></g></g></svg>